%TF.GenerationSoftware,KiCad,Pcbnew,(5.99.0-12740-g895f4ca989)*%
%TF.CreationDate,2021-10-23T17:36:28+02:00*%
%TF.ProjectId,mamooth,6d616d6f-6f74-4682-9e6b-696361645f70,rev?*%
%TF.SameCoordinates,Original*%
%TF.FileFunction,AssemblyDrawing,Bot*%
%FSLAX46Y46*%
G04 Gerber Fmt 4.6, Leading zero omitted, Abs format (unit mm)*
G04 Created by KiCad (PCBNEW (5.99.0-12740-g895f4ca989)) date 2021-10-23 17:36:28*
%MOMM*%
%LPD*%
G01*
G04 APERTURE LIST*
%ADD10C,0.125000*%
%ADD11C,0.150000*%
%ADD12C,0.075000*%
%ADD13C,0.100000*%
%ADD14C,0.030000*%
%ADD15C,0.080000*%
%ADD16C,0.120000*%
G04 APERTURE END LIST*
D10*
%TO.C,D7*%
X141315371Y-10346586D02*
X140815371Y-10346586D01*
X140815371Y-10465634D01*
X140839181Y-10537062D01*
X140886800Y-10584681D01*
X140934419Y-10608491D01*
X141029657Y-10632300D01*
X141101085Y-10632300D01*
X141196323Y-10608491D01*
X141243942Y-10584681D01*
X141291561Y-10537062D01*
X141315371Y-10465634D01*
X141315371Y-10346586D01*
X140815371Y-10798967D02*
X140815371Y-11132300D01*
X141315371Y-10918014D01*
%TO.C,D53*%
X107977843Y-67258539D02*
X107477843Y-67258539D01*
X107477843Y-67377586D01*
X107501653Y-67449015D01*
X107549272Y-67496634D01*
X107596891Y-67520443D01*
X107692129Y-67544253D01*
X107763557Y-67544253D01*
X107858795Y-67520443D01*
X107906414Y-67496634D01*
X107954033Y-67449015D01*
X107977843Y-67377586D01*
X107977843Y-67258539D01*
X107477843Y-67996634D02*
X107477843Y-67758539D01*
X107715938Y-67734729D01*
X107692129Y-67758539D01*
X107668319Y-67806158D01*
X107668319Y-67925205D01*
X107692129Y-67972824D01*
X107715938Y-67996634D01*
X107763557Y-68020443D01*
X107882605Y-68020443D01*
X107930224Y-67996634D01*
X107954033Y-67972824D01*
X107977843Y-67925205D01*
X107977843Y-67806158D01*
X107954033Y-67758539D01*
X107930224Y-67734729D01*
X107477843Y-68187110D02*
X107477843Y-68496634D01*
X107668319Y-68329967D01*
X107668319Y-68401396D01*
X107692129Y-68449015D01*
X107715938Y-68472824D01*
X107763557Y-68496634D01*
X107882605Y-68496634D01*
X107930224Y-68472824D01*
X107954033Y-68449015D01*
X107977843Y-68401396D01*
X107977843Y-68258539D01*
X107954033Y-68210920D01*
X107930224Y-68187110D01*
D11*
%TO.C,J3*%
X267934796Y-16192758D02*
X267410987Y-16192758D01*
X267315749Y-16145139D01*
X267268130Y-16049901D01*
X267268130Y-15859424D01*
X267315749Y-15764186D01*
X267887177Y-16192758D02*
X267934796Y-16097520D01*
X267934796Y-15859424D01*
X267887177Y-15764186D01*
X267791939Y-15716567D01*
X267696701Y-15716567D01*
X267601463Y-15764186D01*
X267553844Y-15859424D01*
X267553844Y-16097520D01*
X267506225Y-16192758D01*
X267934796Y-16668948D02*
X267268130Y-16668948D01*
X266934796Y-16668948D02*
X266982416Y-16621329D01*
X267030035Y-16668948D01*
X266982416Y-16716567D01*
X266934796Y-16668948D01*
X267030035Y-16668948D01*
X266934796Y-17335615D02*
X266934796Y-17430853D01*
X266982416Y-17526091D01*
X267030035Y-17573710D01*
X267125273Y-17621329D01*
X267315749Y-17668948D01*
X267553844Y-17668948D01*
X267744320Y-17621329D01*
X267839558Y-17573710D01*
X267887177Y-17526091D01*
X267934796Y-17430853D01*
X267934796Y-17335615D01*
X267887177Y-17240377D01*
X267839558Y-17192758D01*
X267744320Y-17145139D01*
X267553844Y-17097520D01*
X267315749Y-17097520D01*
X267125273Y-17145139D01*
X267030035Y-17192758D01*
X266982416Y-17240377D01*
X266934796Y-17335615D01*
X266934796Y-18002282D02*
X266934796Y-18621329D01*
X267315749Y-18287996D01*
X267315749Y-18430853D01*
X267363368Y-18526091D01*
X267410987Y-18573710D01*
X267506225Y-18621329D01*
X267744320Y-18621329D01*
X267839558Y-18573710D01*
X267887177Y-18526091D01*
X267934796Y-18430853D01*
X267934796Y-18145139D01*
X267887177Y-18049901D01*
X267839558Y-18002282D01*
X268030035Y-18811805D02*
X268030035Y-19573710D01*
X267268130Y-20240377D02*
X267934796Y-20240377D01*
X267268130Y-19811805D02*
X267791939Y-19811805D01*
X267887177Y-19859424D01*
X267934796Y-19954663D01*
X267934796Y-20097520D01*
X267887177Y-20192758D01*
X267839558Y-20240377D01*
X267934796Y-21145139D02*
X266934796Y-21145139D01*
X267887177Y-21145139D02*
X267934796Y-21049901D01*
X267934796Y-20859424D01*
X267887177Y-20764186D01*
X267839558Y-20716567D01*
X267744320Y-20668948D01*
X267458606Y-20668948D01*
X267363368Y-20716567D01*
X267315749Y-20764186D01*
X267268130Y-20859424D01*
X267268130Y-21049901D01*
X267315749Y-21145139D01*
X270914796Y-18121329D02*
X271629082Y-18121329D01*
X271771939Y-18073710D01*
X271867177Y-17978472D01*
X271914796Y-17835615D01*
X271914796Y-17740377D01*
X270914796Y-18502282D02*
X270914796Y-19121329D01*
X271295749Y-18787996D01*
X271295749Y-18930853D01*
X271343368Y-19026091D01*
X271390987Y-19073710D01*
X271486225Y-19121329D01*
X271724320Y-19121329D01*
X271819558Y-19073710D01*
X271867177Y-19026091D01*
X271914796Y-18930853D01*
X271914796Y-18645139D01*
X271867177Y-18549901D01*
X271819558Y-18502282D01*
D10*
%TO.C,D6*%
X122265355Y-10346586D02*
X121765355Y-10346586D01*
X121765355Y-10465634D01*
X121789165Y-10537062D01*
X121836784Y-10584681D01*
X121884403Y-10608491D01*
X121979641Y-10632300D01*
X122051069Y-10632300D01*
X122146307Y-10608491D01*
X122193926Y-10584681D01*
X122241545Y-10537062D01*
X122265355Y-10465634D01*
X122265355Y-10346586D01*
X121765355Y-11060872D02*
X121765355Y-10965634D01*
X121789165Y-10918014D01*
X121812974Y-10894205D01*
X121884403Y-10846586D01*
X121979641Y-10822776D01*
X122170117Y-10822776D01*
X122217736Y-10846586D01*
X122241545Y-10870395D01*
X122265355Y-10918014D01*
X122265355Y-11013253D01*
X122241545Y-11060872D01*
X122217736Y-11084681D01*
X122170117Y-11108491D01*
X122051069Y-11108491D01*
X122003450Y-11084681D01*
X121979641Y-11060872D01*
X121955831Y-11013253D01*
X121955831Y-10918014D01*
X121979641Y-10870395D01*
X122003450Y-10846586D01*
X122051069Y-10822776D01*
%TO.C,D20*%
X93690331Y-29158507D02*
X93190331Y-29158507D01*
X93190331Y-29277554D01*
X93214141Y-29348983D01*
X93261760Y-29396602D01*
X93309379Y-29420411D01*
X93404617Y-29444221D01*
X93476045Y-29444221D01*
X93571283Y-29420411D01*
X93618902Y-29396602D01*
X93666521Y-29348983D01*
X93690331Y-29277554D01*
X93690331Y-29158507D01*
X93237950Y-29634697D02*
X93214141Y-29658507D01*
X93190331Y-29706126D01*
X93190331Y-29825173D01*
X93214141Y-29872792D01*
X93237950Y-29896602D01*
X93285569Y-29920411D01*
X93333188Y-29920411D01*
X93404617Y-29896602D01*
X93690331Y-29610888D01*
X93690331Y-29920411D01*
X93190331Y-30229935D02*
X93190331Y-30277554D01*
X93214141Y-30325173D01*
X93237950Y-30348983D01*
X93285569Y-30372792D01*
X93380807Y-30396602D01*
X93499855Y-30396602D01*
X93595093Y-30372792D01*
X93642712Y-30348983D01*
X93666521Y-30325173D01*
X93690331Y-30277554D01*
X93690331Y-30229935D01*
X93666521Y-30182316D01*
X93642712Y-30158507D01*
X93595093Y-30134697D01*
X93499855Y-30110888D01*
X93380807Y-30110888D01*
X93285569Y-30134697D01*
X93237950Y-30158507D01*
X93214141Y-30182316D01*
X93190331Y-30229935D01*
%TO.C,D16*%
X316337393Y-10108491D02*
X315837393Y-10108491D01*
X315837393Y-10227538D01*
X315861203Y-10298967D01*
X315908822Y-10346586D01*
X315956441Y-10370395D01*
X316051679Y-10394205D01*
X316123107Y-10394205D01*
X316218345Y-10370395D01*
X316265964Y-10346586D01*
X316313583Y-10298967D01*
X316337393Y-10227538D01*
X316337393Y-10108491D01*
X316337393Y-10870395D02*
X316337393Y-10584681D01*
X316337393Y-10727538D02*
X315837393Y-10727538D01*
X315908822Y-10679919D01*
X315956441Y-10632300D01*
X315980250Y-10584681D01*
X315837393Y-11298967D02*
X315837393Y-11203729D01*
X315861203Y-11156110D01*
X315885012Y-11132300D01*
X315956441Y-11084681D01*
X316051679Y-11060872D01*
X316242155Y-11060872D01*
X316289774Y-11084681D01*
X316313583Y-11108491D01*
X316337393Y-11156110D01*
X316337393Y-11251348D01*
X316313583Y-11298967D01*
X316289774Y-11322776D01*
X316242155Y-11346586D01*
X316123107Y-11346586D01*
X316075488Y-11322776D01*
X316051679Y-11298967D01*
X316027869Y-11251348D01*
X316027869Y-11156110D01*
X316051679Y-11108491D01*
X316075488Y-11084681D01*
X316123107Y-11060872D01*
%TO.C,D26*%
X207990427Y-29158507D02*
X207490427Y-29158507D01*
X207490427Y-29277554D01*
X207514237Y-29348983D01*
X207561856Y-29396602D01*
X207609475Y-29420411D01*
X207704713Y-29444221D01*
X207776141Y-29444221D01*
X207871379Y-29420411D01*
X207918998Y-29396602D01*
X207966617Y-29348983D01*
X207990427Y-29277554D01*
X207990427Y-29158507D01*
X207538046Y-29634697D02*
X207514237Y-29658507D01*
X207490427Y-29706126D01*
X207490427Y-29825173D01*
X207514237Y-29872792D01*
X207538046Y-29896602D01*
X207585665Y-29920411D01*
X207633284Y-29920411D01*
X207704713Y-29896602D01*
X207990427Y-29610888D01*
X207990427Y-29920411D01*
X207490427Y-30348983D02*
X207490427Y-30253745D01*
X207514237Y-30206126D01*
X207538046Y-30182316D01*
X207609475Y-30134697D01*
X207704713Y-30110888D01*
X207895189Y-30110888D01*
X207942808Y-30134697D01*
X207966617Y-30158507D01*
X207990427Y-30206126D01*
X207990427Y-30301364D01*
X207966617Y-30348983D01*
X207942808Y-30372792D01*
X207895189Y-30396602D01*
X207776141Y-30396602D01*
X207728522Y-30372792D01*
X207704713Y-30348983D01*
X207680903Y-30301364D01*
X207680903Y-30206126D01*
X207704713Y-30158507D01*
X207728522Y-30134697D01*
X207776141Y-30110888D01*
%TO.C,D42*%
X212752931Y-48208523D02*
X212252931Y-48208523D01*
X212252931Y-48327570D01*
X212276741Y-48398999D01*
X212324360Y-48446618D01*
X212371979Y-48470427D01*
X212467217Y-48494237D01*
X212538645Y-48494237D01*
X212633883Y-48470427D01*
X212681502Y-48446618D01*
X212729121Y-48398999D01*
X212752931Y-48327570D01*
X212752931Y-48208523D01*
X212419598Y-48922808D02*
X212752931Y-48922808D01*
X212229121Y-48803761D02*
X212586264Y-48684713D01*
X212586264Y-48994237D01*
X212300550Y-49160904D02*
X212276741Y-49184713D01*
X212252931Y-49232332D01*
X212252931Y-49351380D01*
X212276741Y-49398999D01*
X212300550Y-49422808D01*
X212348169Y-49446618D01*
X212395788Y-49446618D01*
X212467217Y-49422808D01*
X212752931Y-49137094D01*
X212752931Y-49446618D01*
%TO.C,D78*%
X293715499Y-86308555D02*
X293215499Y-86308555D01*
X293215499Y-86427602D01*
X293239309Y-86499031D01*
X293286928Y-86546650D01*
X293334547Y-86570459D01*
X293429785Y-86594269D01*
X293501213Y-86594269D01*
X293596451Y-86570459D01*
X293644070Y-86546650D01*
X293691689Y-86499031D01*
X293715499Y-86427602D01*
X293715499Y-86308555D01*
X293215499Y-86760936D02*
X293215499Y-87094269D01*
X293715499Y-86879983D01*
X293429785Y-87356174D02*
X293405975Y-87308555D01*
X293382166Y-87284745D01*
X293334547Y-87260936D01*
X293310737Y-87260936D01*
X293263118Y-87284745D01*
X293239309Y-87308555D01*
X293215499Y-87356174D01*
X293215499Y-87451412D01*
X293239309Y-87499031D01*
X293263118Y-87522840D01*
X293310737Y-87546650D01*
X293334547Y-87546650D01*
X293382166Y-87522840D01*
X293405975Y-87499031D01*
X293429785Y-87451412D01*
X293429785Y-87356174D01*
X293453594Y-87308555D01*
X293477404Y-87284745D01*
X293525023Y-87260936D01*
X293620261Y-87260936D01*
X293667880Y-87284745D01*
X293691689Y-87308555D01*
X293715499Y-87356174D01*
X293715499Y-87451412D01*
X293691689Y-87499031D01*
X293667880Y-87522840D01*
X293620261Y-87546650D01*
X293525023Y-87546650D01*
X293477404Y-87522840D01*
X293453594Y-87499031D01*
X293429785Y-87451412D01*
D12*
%TO.C,R102*%
X275260796Y-10156110D02*
X275022701Y-9989443D01*
X275260796Y-9870395D02*
X274760796Y-9870395D01*
X274760796Y-10060872D01*
X274784606Y-10108491D01*
X274808415Y-10132300D01*
X274856034Y-10156110D01*
X274927463Y-10156110D01*
X274975082Y-10132300D01*
X274998891Y-10108491D01*
X275022701Y-10060872D01*
X275022701Y-9870395D01*
X275260796Y-10632300D02*
X275260796Y-10346586D01*
X275260796Y-10489443D02*
X274760796Y-10489443D01*
X274832225Y-10441824D01*
X274879844Y-10394205D01*
X274903653Y-10346586D01*
X274760796Y-10941824D02*
X274760796Y-10989443D01*
X274784606Y-11037062D01*
X274808415Y-11060872D01*
X274856034Y-11084681D01*
X274951272Y-11108491D01*
X275070320Y-11108491D01*
X275165558Y-11084681D01*
X275213177Y-11060872D01*
X275236986Y-11037062D01*
X275260796Y-10989443D01*
X275260796Y-10941824D01*
X275236986Y-10894205D01*
X275213177Y-10870395D01*
X275165558Y-10846586D01*
X275070320Y-10822776D01*
X274951272Y-10822776D01*
X274856034Y-10846586D01*
X274808415Y-10870395D01*
X274784606Y-10894205D01*
X274760796Y-10941824D01*
X274808415Y-11298967D02*
X274784606Y-11322776D01*
X274760796Y-11370395D01*
X274760796Y-11489443D01*
X274784606Y-11537062D01*
X274808415Y-11560872D01*
X274856034Y-11584681D01*
X274903653Y-11584681D01*
X274975082Y-11560872D01*
X275260796Y-11275157D01*
X275260796Y-11584681D01*
D10*
%TO.C,D75*%
X221087313Y-86308555D02*
X220587313Y-86308555D01*
X220587313Y-86427602D01*
X220611123Y-86499031D01*
X220658742Y-86546650D01*
X220706361Y-86570459D01*
X220801599Y-86594269D01*
X220873027Y-86594269D01*
X220968265Y-86570459D01*
X221015884Y-86546650D01*
X221063503Y-86499031D01*
X221087313Y-86427602D01*
X221087313Y-86308555D01*
X220587313Y-86760936D02*
X220587313Y-87094269D01*
X221087313Y-86879983D01*
X220587313Y-87522840D02*
X220587313Y-87284745D01*
X220825408Y-87260936D01*
X220801599Y-87284745D01*
X220777789Y-87332364D01*
X220777789Y-87451412D01*
X220801599Y-87499031D01*
X220825408Y-87522840D01*
X220873027Y-87546650D01*
X220992075Y-87546650D01*
X221039694Y-87522840D01*
X221063503Y-87499031D01*
X221087313Y-87451412D01*
X221087313Y-87332364D01*
X221063503Y-87284745D01*
X221039694Y-87260936D01*
%TO.C,D15*%
X312765515Y-10108491D02*
X312265515Y-10108491D01*
X312265515Y-10227538D01*
X312289325Y-10298967D01*
X312336944Y-10346586D01*
X312384563Y-10370395D01*
X312479801Y-10394205D01*
X312551229Y-10394205D01*
X312646467Y-10370395D01*
X312694086Y-10346586D01*
X312741705Y-10298967D01*
X312765515Y-10227538D01*
X312765515Y-10108491D01*
X312765515Y-10870395D02*
X312765515Y-10584681D01*
X312765515Y-10727538D02*
X312265515Y-10727538D01*
X312336944Y-10679919D01*
X312384563Y-10632300D01*
X312408372Y-10584681D01*
X312265515Y-11322776D02*
X312265515Y-11084681D01*
X312503610Y-11060872D01*
X312479801Y-11084681D01*
X312455991Y-11132300D01*
X312455991Y-11251348D01*
X312479801Y-11298967D01*
X312503610Y-11322776D01*
X312551229Y-11346586D01*
X312670277Y-11346586D01*
X312717896Y-11322776D01*
X312741705Y-11298967D01*
X312765515Y-11251348D01*
X312765515Y-11132300D01*
X312741705Y-11084681D01*
X312717896Y-11060872D01*
%TO.C,D31*%
X255615467Y-10108491D02*
X255115467Y-10108491D01*
X255115467Y-10227538D01*
X255139277Y-10298967D01*
X255186896Y-10346586D01*
X255234515Y-10370395D01*
X255329753Y-10394205D01*
X255401181Y-10394205D01*
X255496419Y-10370395D01*
X255544038Y-10346586D01*
X255591657Y-10298967D01*
X255615467Y-10227538D01*
X255615467Y-10108491D01*
X255115467Y-10560872D02*
X255115467Y-10870395D01*
X255305943Y-10703729D01*
X255305943Y-10775157D01*
X255329753Y-10822776D01*
X255353562Y-10846586D01*
X255401181Y-10870395D01*
X255520229Y-10870395D01*
X255567848Y-10846586D01*
X255591657Y-10822776D01*
X255615467Y-10775157D01*
X255615467Y-10632300D01*
X255591657Y-10584681D01*
X255567848Y-10560872D01*
X255615467Y-11346586D02*
X255615467Y-11060872D01*
X255615467Y-11203729D02*
X255115467Y-11203729D01*
X255186896Y-11156110D01*
X255234515Y-11108491D01*
X255258324Y-11060872D01*
%TO.C,D76*%
X278237361Y-86308555D02*
X277737361Y-86308555D01*
X277737361Y-86427602D01*
X277761171Y-86499031D01*
X277808790Y-86546650D01*
X277856409Y-86570459D01*
X277951647Y-86594269D01*
X278023075Y-86594269D01*
X278118313Y-86570459D01*
X278165932Y-86546650D01*
X278213551Y-86499031D01*
X278237361Y-86427602D01*
X278237361Y-86308555D01*
X277737361Y-86760936D02*
X277737361Y-87094269D01*
X278237361Y-86879983D01*
X277737361Y-87499031D02*
X277737361Y-87403793D01*
X277761171Y-87356174D01*
X277784980Y-87332364D01*
X277856409Y-87284745D01*
X277951647Y-87260936D01*
X278142123Y-87260936D01*
X278189742Y-87284745D01*
X278213551Y-87308555D01*
X278237361Y-87356174D01*
X278237361Y-87451412D01*
X278213551Y-87499031D01*
X278189742Y-87522840D01*
X278142123Y-87546650D01*
X278023075Y-87546650D01*
X277975456Y-87522840D01*
X277951647Y-87499031D01*
X277927837Y-87451412D01*
X277927837Y-87356174D01*
X277951647Y-87308555D01*
X277975456Y-87284745D01*
X278023075Y-87260936D01*
%TO.C,D72*%
X167509143Y-86308555D02*
X167009143Y-86308555D01*
X167009143Y-86427602D01*
X167032953Y-86499031D01*
X167080572Y-86546650D01*
X167128191Y-86570459D01*
X167223429Y-86594269D01*
X167294857Y-86594269D01*
X167390095Y-86570459D01*
X167437714Y-86546650D01*
X167485333Y-86499031D01*
X167509143Y-86427602D01*
X167509143Y-86308555D01*
X167009143Y-86760936D02*
X167009143Y-87094269D01*
X167509143Y-86879983D01*
X167056762Y-87260936D02*
X167032953Y-87284745D01*
X167009143Y-87332364D01*
X167009143Y-87451412D01*
X167032953Y-87499031D01*
X167056762Y-87522840D01*
X167104381Y-87546650D01*
X167152000Y-87546650D01*
X167223429Y-87522840D01*
X167509143Y-87237126D01*
X167509143Y-87546650D01*
%TO.C,D66*%
X50827795Y-86308555D02*
X50327795Y-86308555D01*
X50327795Y-86427602D01*
X50351605Y-86499031D01*
X50399224Y-86546650D01*
X50446843Y-86570459D01*
X50542081Y-86594269D01*
X50613509Y-86594269D01*
X50708747Y-86570459D01*
X50756366Y-86546650D01*
X50803985Y-86499031D01*
X50827795Y-86427602D01*
X50827795Y-86308555D01*
X50327795Y-87022840D02*
X50327795Y-86927602D01*
X50351605Y-86879983D01*
X50375414Y-86856174D01*
X50446843Y-86808555D01*
X50542081Y-86784745D01*
X50732557Y-86784745D01*
X50780176Y-86808555D01*
X50803985Y-86832364D01*
X50827795Y-86879983D01*
X50827795Y-86975221D01*
X50803985Y-87022840D01*
X50780176Y-87046650D01*
X50732557Y-87070459D01*
X50613509Y-87070459D01*
X50565890Y-87046650D01*
X50542081Y-87022840D01*
X50518271Y-86975221D01*
X50518271Y-86879983D01*
X50542081Y-86832364D01*
X50565890Y-86808555D01*
X50613509Y-86784745D01*
X50327795Y-87499031D02*
X50327795Y-87403793D01*
X50351605Y-87356174D01*
X50375414Y-87332364D01*
X50446843Y-87284745D01*
X50542081Y-87260936D01*
X50732557Y-87260936D01*
X50780176Y-87284745D01*
X50803985Y-87308555D01*
X50827795Y-87356174D01*
X50827795Y-87451412D01*
X50803985Y-87499031D01*
X50780176Y-87522840D01*
X50732557Y-87546650D01*
X50613509Y-87546650D01*
X50565890Y-87522840D01*
X50542081Y-87499031D01*
X50518271Y-87451412D01*
X50518271Y-87356174D01*
X50542081Y-87308555D01*
X50565890Y-87284745D01*
X50613509Y-87260936D01*
%TO.C,D68*%
X96071583Y-86308555D02*
X95571583Y-86308555D01*
X95571583Y-86427602D01*
X95595393Y-86499031D01*
X95643012Y-86546650D01*
X95690631Y-86570459D01*
X95785869Y-86594269D01*
X95857297Y-86594269D01*
X95952535Y-86570459D01*
X96000154Y-86546650D01*
X96047773Y-86499031D01*
X96071583Y-86427602D01*
X96071583Y-86308555D01*
X95571583Y-87022840D02*
X95571583Y-86927602D01*
X95595393Y-86879983D01*
X95619202Y-86856174D01*
X95690631Y-86808555D01*
X95785869Y-86784745D01*
X95976345Y-86784745D01*
X96023964Y-86808555D01*
X96047773Y-86832364D01*
X96071583Y-86879983D01*
X96071583Y-86975221D01*
X96047773Y-87022840D01*
X96023964Y-87046650D01*
X95976345Y-87070459D01*
X95857297Y-87070459D01*
X95809678Y-87046650D01*
X95785869Y-87022840D01*
X95762059Y-86975221D01*
X95762059Y-86879983D01*
X95785869Y-86832364D01*
X95809678Y-86808555D01*
X95857297Y-86784745D01*
X95785869Y-87356174D02*
X95762059Y-87308555D01*
X95738250Y-87284745D01*
X95690631Y-87260936D01*
X95666821Y-87260936D01*
X95619202Y-87284745D01*
X95595393Y-87308555D01*
X95571583Y-87356174D01*
X95571583Y-87451412D01*
X95595393Y-87499031D01*
X95619202Y-87522840D01*
X95666821Y-87546650D01*
X95690631Y-87546650D01*
X95738250Y-87522840D01*
X95762059Y-87499031D01*
X95785869Y-87451412D01*
X95785869Y-87356174D01*
X95809678Y-87308555D01*
X95833488Y-87284745D01*
X95881107Y-87260936D01*
X95976345Y-87260936D01*
X96023964Y-87284745D01*
X96047773Y-87308555D01*
X96071583Y-87356174D01*
X96071583Y-87451412D01*
X96047773Y-87499031D01*
X96023964Y-87522840D01*
X95976345Y-87546650D01*
X95881107Y-87546650D01*
X95833488Y-87522840D01*
X95809678Y-87499031D01*
X95785869Y-87451412D01*
%TO.C,D41*%
X193702915Y-48208523D02*
X193202915Y-48208523D01*
X193202915Y-48327570D01*
X193226725Y-48398999D01*
X193274344Y-48446618D01*
X193321963Y-48470427D01*
X193417201Y-48494237D01*
X193488629Y-48494237D01*
X193583867Y-48470427D01*
X193631486Y-48446618D01*
X193679105Y-48398999D01*
X193702915Y-48327570D01*
X193702915Y-48208523D01*
X193369582Y-48922808D02*
X193702915Y-48922808D01*
X193179105Y-48803761D02*
X193536248Y-48684713D01*
X193536248Y-48994237D01*
X193702915Y-49446618D02*
X193702915Y-49160904D01*
X193702915Y-49303761D02*
X193202915Y-49303761D01*
X193274344Y-49256142D01*
X193321963Y-49208523D01*
X193345772Y-49160904D01*
%TO.C,D65*%
X17490267Y-86308555D02*
X16990267Y-86308555D01*
X16990267Y-86427602D01*
X17014077Y-86499031D01*
X17061696Y-86546650D01*
X17109315Y-86570459D01*
X17204553Y-86594269D01*
X17275981Y-86594269D01*
X17371219Y-86570459D01*
X17418838Y-86546650D01*
X17466457Y-86499031D01*
X17490267Y-86427602D01*
X17490267Y-86308555D01*
X16990267Y-87022840D02*
X16990267Y-86927602D01*
X17014077Y-86879983D01*
X17037886Y-86856174D01*
X17109315Y-86808555D01*
X17204553Y-86784745D01*
X17395029Y-86784745D01*
X17442648Y-86808555D01*
X17466457Y-86832364D01*
X17490267Y-86879983D01*
X17490267Y-86975221D01*
X17466457Y-87022840D01*
X17442648Y-87046650D01*
X17395029Y-87070459D01*
X17275981Y-87070459D01*
X17228362Y-87046650D01*
X17204553Y-87022840D01*
X17180743Y-86975221D01*
X17180743Y-86879983D01*
X17204553Y-86832364D01*
X17228362Y-86808555D01*
X17275981Y-86784745D01*
X16990267Y-87522840D02*
X16990267Y-87284745D01*
X17228362Y-87260936D01*
X17204553Y-87284745D01*
X17180743Y-87332364D01*
X17180743Y-87451412D01*
X17204553Y-87499031D01*
X17228362Y-87522840D01*
X17275981Y-87546650D01*
X17395029Y-87546650D01*
X17442648Y-87522840D01*
X17466457Y-87499031D01*
X17490267Y-87451412D01*
X17490267Y-87332364D01*
X17466457Y-87284745D01*
X17442648Y-87260936D01*
D12*
%TO.C,F1*%
X273212952Y-5191150D02*
X273212952Y-5024483D01*
X273474857Y-5024483D02*
X272974857Y-5024483D01*
X272974857Y-5262578D01*
X273474857Y-5714959D02*
X273474857Y-5429245D01*
X273474857Y-5572102D02*
X272974857Y-5572102D01*
X273046286Y-5524483D01*
X273093905Y-5476864D01*
X273117714Y-5429245D01*
D10*
%TO.C,D11*%
X217515435Y-10108491D02*
X217015435Y-10108491D01*
X217015435Y-10227538D01*
X217039245Y-10298967D01*
X217086864Y-10346586D01*
X217134483Y-10370395D01*
X217229721Y-10394205D01*
X217301149Y-10394205D01*
X217396387Y-10370395D01*
X217444006Y-10346586D01*
X217491625Y-10298967D01*
X217515435Y-10227538D01*
X217515435Y-10108491D01*
X217515435Y-10870395D02*
X217515435Y-10584681D01*
X217515435Y-10727538D02*
X217015435Y-10727538D01*
X217086864Y-10679919D01*
X217134483Y-10632300D01*
X217158292Y-10584681D01*
X217515435Y-11346586D02*
X217515435Y-11060872D01*
X217515435Y-11203729D02*
X217015435Y-11203729D01*
X217086864Y-11156110D01*
X217134483Y-11108491D01*
X217158292Y-11060872D01*
%TO.C,D49*%
X17490267Y-67258539D02*
X16990267Y-67258539D01*
X16990267Y-67377586D01*
X17014077Y-67449015D01*
X17061696Y-67496634D01*
X17109315Y-67520443D01*
X17204553Y-67544253D01*
X17275981Y-67544253D01*
X17371219Y-67520443D01*
X17418838Y-67496634D01*
X17466457Y-67449015D01*
X17490267Y-67377586D01*
X17490267Y-67258539D01*
X17156934Y-67972824D02*
X17490267Y-67972824D01*
X16966457Y-67853777D02*
X17323600Y-67734729D01*
X17323600Y-68044253D01*
X17490267Y-68258539D02*
X17490267Y-68353777D01*
X17466457Y-68401396D01*
X17442648Y-68425205D01*
X17371219Y-68472824D01*
X17275981Y-68496634D01*
X17085505Y-68496634D01*
X17037886Y-68472824D01*
X17014077Y-68449015D01*
X16990267Y-68401396D01*
X16990267Y-68306158D01*
X17014077Y-68258539D01*
X17037886Y-68234729D01*
X17085505Y-68210920D01*
X17204553Y-68210920D01*
X17252172Y-68234729D01*
X17275981Y-68258539D01*
X17299791Y-68306158D01*
X17299791Y-68401396D01*
X17275981Y-68449015D01*
X17252172Y-68472824D01*
X17204553Y-68496634D01*
%TO.C,D9*%
X179415403Y-10346586D02*
X178915403Y-10346586D01*
X178915403Y-10465634D01*
X178939213Y-10537062D01*
X178986832Y-10584681D01*
X179034451Y-10608491D01*
X179129689Y-10632300D01*
X179201117Y-10632300D01*
X179296355Y-10608491D01*
X179343974Y-10584681D01*
X179391593Y-10537062D01*
X179415403Y-10465634D01*
X179415403Y-10346586D01*
X179415403Y-10870395D02*
X179415403Y-10965634D01*
X179391593Y-11013253D01*
X179367784Y-11037062D01*
X179296355Y-11084681D01*
X179201117Y-11108491D01*
X179010641Y-11108491D01*
X178963022Y-11084681D01*
X178939213Y-11060872D01*
X178915403Y-11013253D01*
X178915403Y-10918014D01*
X178939213Y-10870395D01*
X178963022Y-10846586D01*
X179010641Y-10822776D01*
X179129689Y-10822776D01*
X179177308Y-10846586D01*
X179201117Y-10870395D01*
X179224927Y-10918014D01*
X179224927Y-11013253D01*
X179201117Y-11060872D01*
X179177308Y-11084681D01*
X179129689Y-11108491D01*
%TO.C,C101*%
X21422319Y-40649874D02*
X21446128Y-40626064D01*
X21469938Y-40554636D01*
X21469938Y-40507017D01*
X21446128Y-40435588D01*
X21398509Y-40387969D01*
X21350890Y-40364159D01*
X21255652Y-40340350D01*
X21184224Y-40340350D01*
X21088986Y-40364159D01*
X21041367Y-40387969D01*
X20993748Y-40435588D01*
X20969938Y-40507017D01*
X20969938Y-40554636D01*
X20993748Y-40626064D01*
X21017557Y-40649874D01*
X21469938Y-41126064D02*
X21469938Y-40840350D01*
X21469938Y-40983207D02*
X20969938Y-40983207D01*
X21041367Y-40935588D01*
X21088986Y-40887969D01*
X21112795Y-40840350D01*
X20969938Y-41435588D02*
X20969938Y-41483207D01*
X20993748Y-41530826D01*
X21017557Y-41554636D01*
X21065176Y-41578445D01*
X21160414Y-41602255D01*
X21279462Y-41602255D01*
X21374700Y-41578445D01*
X21422319Y-41554636D01*
X21446128Y-41530826D01*
X21469938Y-41483207D01*
X21469938Y-41435588D01*
X21446128Y-41387969D01*
X21422319Y-41364159D01*
X21374700Y-41340350D01*
X21279462Y-41316540D01*
X21160414Y-41316540D01*
X21065176Y-41340350D01*
X21017557Y-41364159D01*
X20993748Y-41387969D01*
X20969938Y-41435588D01*
X21469938Y-42078445D02*
X21469938Y-41792731D01*
X21469938Y-41935588D02*
X20969938Y-41935588D01*
X21041367Y-41887969D01*
X21088986Y-41840350D01*
X21112795Y-41792731D01*
%TO.C,D5*%
X103215339Y-10346586D02*
X102715339Y-10346586D01*
X102715339Y-10465634D01*
X102739149Y-10537062D01*
X102786768Y-10584681D01*
X102834387Y-10608491D01*
X102929625Y-10632300D01*
X103001053Y-10632300D01*
X103096291Y-10608491D01*
X103143910Y-10584681D01*
X103191529Y-10537062D01*
X103215339Y-10465634D01*
X103215339Y-10346586D01*
X102715339Y-11084681D02*
X102715339Y-10846586D01*
X102953434Y-10822776D01*
X102929625Y-10846586D01*
X102905815Y-10894205D01*
X102905815Y-11013253D01*
X102929625Y-11060872D01*
X102953434Y-11084681D01*
X103001053Y-11108491D01*
X103120101Y-11108491D01*
X103167720Y-11084681D01*
X103191529Y-11060872D01*
X103215339Y-11013253D01*
X103215339Y-10894205D01*
X103191529Y-10846586D01*
X103167720Y-10822776D01*
%TO.C,D47*%
X300859255Y-48208523D02*
X300359255Y-48208523D01*
X300359255Y-48327570D01*
X300383065Y-48398999D01*
X300430684Y-48446618D01*
X300478303Y-48470427D01*
X300573541Y-48494237D01*
X300644969Y-48494237D01*
X300740207Y-48470427D01*
X300787826Y-48446618D01*
X300835445Y-48398999D01*
X300859255Y-48327570D01*
X300859255Y-48208523D01*
X300525922Y-48922808D02*
X300859255Y-48922808D01*
X300335445Y-48803761D02*
X300692588Y-48684713D01*
X300692588Y-48994237D01*
X300359255Y-49137094D02*
X300359255Y-49470427D01*
X300859255Y-49256142D01*
D11*
%TO.C,U1*%
X31530660Y-35899274D02*
X31530660Y-36708798D01*
X31483041Y-36804036D01*
X31435422Y-36851655D01*
X31340184Y-36899274D01*
X31149708Y-36899274D01*
X31054470Y-36851655D01*
X31006851Y-36804036D01*
X30959232Y-36708798D01*
X30959232Y-35899274D01*
X29959232Y-36899274D02*
X30530660Y-36899274D01*
X30244946Y-36899274D02*
X30244946Y-35899274D01*
X30340184Y-36042132D01*
X30435422Y-36137370D01*
X30530660Y-36184989D01*
X35340184Y-29163559D02*
X34863994Y-29163559D01*
X35435422Y-29449273D02*
X35102089Y-28449273D01*
X34768756Y-29449273D01*
X34578279Y-28449273D02*
X34006851Y-28449273D01*
X34292565Y-29449273D02*
X34292565Y-28449273D01*
X33673517Y-29449273D02*
X33673517Y-28782607D01*
X33673517Y-28877845D02*
X33625898Y-28830226D01*
X33530660Y-28782607D01*
X33387803Y-28782607D01*
X33292565Y-28830226D01*
X33244946Y-28925464D01*
X33244946Y-29449273D01*
X33244946Y-28925464D02*
X33197327Y-28830226D01*
X33102089Y-28782607D01*
X32959232Y-28782607D01*
X32863994Y-28830226D01*
X32816375Y-28925464D01*
X32816375Y-29449273D01*
X31959232Y-29401654D02*
X32054470Y-29449273D01*
X32244946Y-29449273D01*
X32340184Y-29401654D01*
X32387803Y-29306416D01*
X32387803Y-28925464D01*
X32340184Y-28830226D01*
X32244946Y-28782607D01*
X32054470Y-28782607D01*
X31959232Y-28830226D01*
X31911613Y-28925464D01*
X31911613Y-29020702D01*
X32387803Y-29115940D01*
X31054470Y-28782607D02*
X31054470Y-29592131D01*
X31102089Y-29687369D01*
X31149708Y-29734988D01*
X31244946Y-29782607D01*
X31387803Y-29782607D01*
X31483041Y-29734988D01*
X31054470Y-29401654D02*
X31149708Y-29449273D01*
X31340184Y-29449273D01*
X31435422Y-29401654D01*
X31483041Y-29354035D01*
X31530660Y-29258797D01*
X31530660Y-28973083D01*
X31483041Y-28877845D01*
X31435422Y-28830226D01*
X31340184Y-28782607D01*
X31149708Y-28782607D01*
X31054470Y-28830226D01*
X30149708Y-29449273D02*
X30149708Y-28925464D01*
X30197327Y-28830226D01*
X30292565Y-28782607D01*
X30483041Y-28782607D01*
X30578279Y-28830226D01*
X30149708Y-29401654D02*
X30244946Y-29449273D01*
X30483041Y-29449273D01*
X30578279Y-29401654D01*
X30625898Y-29306416D01*
X30625898Y-29211178D01*
X30578279Y-29115940D01*
X30483041Y-29068321D01*
X30244946Y-29068321D01*
X30149708Y-29020702D01*
X29768756Y-28449273D02*
X29149708Y-28449273D01*
X29483041Y-28830226D01*
X29340184Y-28830226D01*
X29244946Y-28877845D01*
X29197327Y-28925464D01*
X29149708Y-29020702D01*
X29149708Y-29258797D01*
X29197327Y-29354035D01*
X29244946Y-29401654D01*
X29340184Y-29449273D01*
X29625898Y-29449273D01*
X29721136Y-29401654D01*
X29768756Y-29354035D01*
X28768756Y-28544512D02*
X28721136Y-28496893D01*
X28625898Y-28449273D01*
X28387803Y-28449273D01*
X28292565Y-28496893D01*
X28244946Y-28544512D01*
X28197327Y-28639750D01*
X28197327Y-28734988D01*
X28244946Y-28877845D01*
X28816375Y-29449273D01*
X28197327Y-29449273D01*
X27768756Y-28449273D02*
X27768756Y-29258797D01*
X27721136Y-29354035D01*
X27673517Y-29401654D01*
X27578279Y-29449273D01*
X27387803Y-29449273D01*
X27292565Y-29401654D01*
X27244946Y-29354035D01*
X27197327Y-29258797D01*
X27197327Y-28449273D01*
X26292565Y-28782607D02*
X26292565Y-29449273D01*
X26530660Y-28401654D02*
X26768756Y-29115940D01*
X26149708Y-29115940D01*
D10*
%TO.C,D67*%
X79402819Y-86308555D02*
X78902819Y-86308555D01*
X78902819Y-86427602D01*
X78926629Y-86499031D01*
X78974248Y-86546650D01*
X79021867Y-86570459D01*
X79117105Y-86594269D01*
X79188533Y-86594269D01*
X79283771Y-86570459D01*
X79331390Y-86546650D01*
X79379009Y-86499031D01*
X79402819Y-86427602D01*
X79402819Y-86308555D01*
X78902819Y-87022840D02*
X78902819Y-86927602D01*
X78926629Y-86879983D01*
X78950438Y-86856174D01*
X79021867Y-86808555D01*
X79117105Y-86784745D01*
X79307581Y-86784745D01*
X79355200Y-86808555D01*
X79379009Y-86832364D01*
X79402819Y-86879983D01*
X79402819Y-86975221D01*
X79379009Y-87022840D01*
X79355200Y-87046650D01*
X79307581Y-87070459D01*
X79188533Y-87070459D01*
X79140914Y-87046650D01*
X79117105Y-87022840D01*
X79093295Y-86975221D01*
X79093295Y-86879983D01*
X79117105Y-86832364D01*
X79140914Y-86808555D01*
X79188533Y-86784745D01*
X78902819Y-87237126D02*
X78902819Y-87570459D01*
X79402819Y-87356174D01*
D11*
%TO.C,J2*%
X10861447Y-35303961D02*
X10861447Y-36018247D01*
X10909066Y-36161104D01*
X11004304Y-36256342D01*
X11147161Y-36303961D01*
X11242399Y-36303961D01*
X10432875Y-35399200D02*
X10385256Y-35351581D01*
X10290018Y-35303961D01*
X10051923Y-35303961D01*
X9956685Y-35351581D01*
X9909066Y-35399200D01*
X9861447Y-35494438D01*
X9861447Y-35589676D01*
X9909066Y-35732533D01*
X10480494Y-36303961D01*
X9861447Y-36303961D01*
D10*
%TO.C,D50*%
X69877811Y-67258539D02*
X69377811Y-67258539D01*
X69377811Y-67377586D01*
X69401621Y-67449015D01*
X69449240Y-67496634D01*
X69496859Y-67520443D01*
X69592097Y-67544253D01*
X69663525Y-67544253D01*
X69758763Y-67520443D01*
X69806382Y-67496634D01*
X69854001Y-67449015D01*
X69877811Y-67377586D01*
X69877811Y-67258539D01*
X69377811Y-67996634D02*
X69377811Y-67758539D01*
X69615906Y-67734729D01*
X69592097Y-67758539D01*
X69568287Y-67806158D01*
X69568287Y-67925205D01*
X69592097Y-67972824D01*
X69615906Y-67996634D01*
X69663525Y-68020443D01*
X69782573Y-68020443D01*
X69830192Y-67996634D01*
X69854001Y-67972824D01*
X69877811Y-67925205D01*
X69877811Y-67806158D01*
X69854001Y-67758539D01*
X69830192Y-67734729D01*
X69377811Y-68329967D02*
X69377811Y-68377586D01*
X69401621Y-68425205D01*
X69425430Y-68449015D01*
X69473049Y-68472824D01*
X69568287Y-68496634D01*
X69687335Y-68496634D01*
X69782573Y-68472824D01*
X69830192Y-68449015D01*
X69854001Y-68425205D01*
X69877811Y-68377586D01*
X69877811Y-68329967D01*
X69854001Y-68282348D01*
X69830192Y-68258539D01*
X69782573Y-68234729D01*
X69687335Y-68210920D01*
X69568287Y-68210920D01*
X69473049Y-68234729D01*
X69425430Y-68258539D01*
X69401621Y-68282348D01*
X69377811Y-68329967D01*
%TO.C,D48*%
X316337393Y-48208523D02*
X315837393Y-48208523D01*
X315837393Y-48327570D01*
X315861203Y-48398999D01*
X315908822Y-48446618D01*
X315956441Y-48470427D01*
X316051679Y-48494237D01*
X316123107Y-48494237D01*
X316218345Y-48470427D01*
X316265964Y-48446618D01*
X316313583Y-48398999D01*
X316337393Y-48327570D01*
X316337393Y-48208523D01*
X316004060Y-48922808D02*
X316337393Y-48922808D01*
X315813583Y-48803761D02*
X316170726Y-48684713D01*
X316170726Y-48994237D01*
X316051679Y-49256142D02*
X316027869Y-49208523D01*
X316004060Y-49184713D01*
X315956441Y-49160904D01*
X315932631Y-49160904D01*
X315885012Y-49184713D01*
X315861203Y-49208523D01*
X315837393Y-49256142D01*
X315837393Y-49351380D01*
X315861203Y-49398999D01*
X315885012Y-49422808D01*
X315932631Y-49446618D01*
X315956441Y-49446618D01*
X316004060Y-49422808D01*
X316027869Y-49398999D01*
X316051679Y-49351380D01*
X316051679Y-49256142D01*
X316075488Y-49208523D01*
X316099298Y-49184713D01*
X316146917Y-49160904D01*
X316242155Y-49160904D01*
X316289774Y-49184713D01*
X316313583Y-49208523D01*
X316337393Y-49256142D01*
X316337393Y-49351380D01*
X316313583Y-49398999D01*
X316289774Y-49422808D01*
X316242155Y-49446618D01*
X316146917Y-49446618D01*
X316099298Y-49422808D01*
X316075488Y-49398999D01*
X316051679Y-49351380D01*
%TO.C,D14*%
X259187345Y-10108491D02*
X258687345Y-10108491D01*
X258687345Y-10227538D01*
X258711155Y-10298967D01*
X258758774Y-10346586D01*
X258806393Y-10370395D01*
X258901631Y-10394205D01*
X258973059Y-10394205D01*
X259068297Y-10370395D01*
X259115916Y-10346586D01*
X259163535Y-10298967D01*
X259187345Y-10227538D01*
X259187345Y-10108491D01*
X259187345Y-10870395D02*
X259187345Y-10584681D01*
X259187345Y-10727538D02*
X258687345Y-10727538D01*
X258758774Y-10679919D01*
X258806393Y-10632300D01*
X258830202Y-10584681D01*
X258854012Y-11298967D02*
X259187345Y-11298967D01*
X258663535Y-11179919D02*
X259020678Y-11060872D01*
X259020678Y-11370395D01*
D11*
%TO.C,J1*%
X276558333Y15822619D02*
X276558333Y15108333D01*
X276605952Y14965476D01*
X276701190Y14870238D01*
X276844047Y14822619D01*
X276939285Y14822619D01*
X275558333Y14822619D02*
X276129761Y14822619D01*
X275844047Y14822619D02*
X275844047Y15822619D01*
X275939285Y15679761D01*
X276034523Y15584523D01*
X276129761Y15536904D01*
D10*
%TO.C,D4*%
X84165323Y-10346586D02*
X83665323Y-10346586D01*
X83665323Y-10465634D01*
X83689133Y-10537062D01*
X83736752Y-10584681D01*
X83784371Y-10608491D01*
X83879609Y-10632300D01*
X83951037Y-10632300D01*
X84046275Y-10608491D01*
X84093894Y-10584681D01*
X84141513Y-10537062D01*
X84165323Y-10465634D01*
X84165323Y-10346586D01*
X83831990Y-11060872D02*
X84165323Y-11060872D01*
X83641513Y-10941824D02*
X83998656Y-10822776D01*
X83998656Y-11132300D01*
%TO.C,D62*%
X286571743Y-67258539D02*
X286071743Y-67258539D01*
X286071743Y-67377586D01*
X286095553Y-67449015D01*
X286143172Y-67496634D01*
X286190791Y-67520443D01*
X286286029Y-67544253D01*
X286357457Y-67544253D01*
X286452695Y-67520443D01*
X286500314Y-67496634D01*
X286547933Y-67449015D01*
X286571743Y-67377586D01*
X286571743Y-67258539D01*
X286071743Y-67972824D02*
X286071743Y-67877586D01*
X286095553Y-67829967D01*
X286119362Y-67806158D01*
X286190791Y-67758539D01*
X286286029Y-67734729D01*
X286476505Y-67734729D01*
X286524124Y-67758539D01*
X286547933Y-67782348D01*
X286571743Y-67829967D01*
X286571743Y-67925205D01*
X286547933Y-67972824D01*
X286524124Y-67996634D01*
X286476505Y-68020443D01*
X286357457Y-68020443D01*
X286309838Y-67996634D01*
X286286029Y-67972824D01*
X286262219Y-67925205D01*
X286262219Y-67829967D01*
X286286029Y-67782348D01*
X286309838Y-67758539D01*
X286357457Y-67734729D01*
X286119362Y-68210920D02*
X286095553Y-68234729D01*
X286071743Y-68282348D01*
X286071743Y-68401396D01*
X286095553Y-68449015D01*
X286119362Y-68472824D01*
X286166981Y-68496634D01*
X286214600Y-68496634D01*
X286286029Y-68472824D01*
X286571743Y-68187110D01*
X286571743Y-68496634D01*
%TO.C,D79*%
X312765515Y-86308555D02*
X312265515Y-86308555D01*
X312265515Y-86427602D01*
X312289325Y-86499031D01*
X312336944Y-86546650D01*
X312384563Y-86570459D01*
X312479801Y-86594269D01*
X312551229Y-86594269D01*
X312646467Y-86570459D01*
X312694086Y-86546650D01*
X312741705Y-86499031D01*
X312765515Y-86427602D01*
X312765515Y-86308555D01*
X312265515Y-86760936D02*
X312265515Y-87094269D01*
X312765515Y-86879983D01*
X312765515Y-87308555D02*
X312765515Y-87403793D01*
X312741705Y-87451412D01*
X312717896Y-87475221D01*
X312646467Y-87522840D01*
X312551229Y-87546650D01*
X312360753Y-87546650D01*
X312313134Y-87522840D01*
X312289325Y-87499031D01*
X312265515Y-87451412D01*
X312265515Y-87356174D01*
X312289325Y-87308555D01*
X312313134Y-87284745D01*
X312360753Y-87260936D01*
X312479801Y-87260936D01*
X312527420Y-87284745D01*
X312551229Y-87308555D01*
X312575039Y-87356174D01*
X312575039Y-87451412D01*
X312551229Y-87499031D01*
X312527420Y-87522840D01*
X312479801Y-87546650D01*
%TO.C,D24*%
X169890395Y-29158507D02*
X169390395Y-29158507D01*
X169390395Y-29277554D01*
X169414205Y-29348983D01*
X169461824Y-29396602D01*
X169509443Y-29420411D01*
X169604681Y-29444221D01*
X169676109Y-29444221D01*
X169771347Y-29420411D01*
X169818966Y-29396602D01*
X169866585Y-29348983D01*
X169890395Y-29277554D01*
X169890395Y-29158507D01*
X169438014Y-29634697D02*
X169414205Y-29658507D01*
X169390395Y-29706126D01*
X169390395Y-29825173D01*
X169414205Y-29872792D01*
X169438014Y-29896602D01*
X169485633Y-29920411D01*
X169533252Y-29920411D01*
X169604681Y-29896602D01*
X169890395Y-29610888D01*
X169890395Y-29920411D01*
X169557062Y-30348983D02*
X169890395Y-30348983D01*
X169366585Y-30229935D02*
X169723728Y-30110888D01*
X169723728Y-30420411D01*
D12*
%TO.C,R105*%
X17490267Y-5393606D02*
X17252172Y-5226939D01*
X17490267Y-5107891D02*
X16990267Y-5107891D01*
X16990267Y-5298368D01*
X17014077Y-5345987D01*
X17037886Y-5369796D01*
X17085505Y-5393606D01*
X17156934Y-5393606D01*
X17204553Y-5369796D01*
X17228362Y-5345987D01*
X17252172Y-5298368D01*
X17252172Y-5107891D01*
X17490267Y-5869796D02*
X17490267Y-5584082D01*
X17490267Y-5726939D02*
X16990267Y-5726939D01*
X17061696Y-5679320D01*
X17109315Y-5631701D01*
X17133124Y-5584082D01*
X16990267Y-6179320D02*
X16990267Y-6226939D01*
X17014077Y-6274558D01*
X17037886Y-6298368D01*
X17085505Y-6322177D01*
X17180743Y-6345987D01*
X17299791Y-6345987D01*
X17395029Y-6322177D01*
X17442648Y-6298368D01*
X17466457Y-6274558D01*
X17490267Y-6226939D01*
X17490267Y-6179320D01*
X17466457Y-6131701D01*
X17442648Y-6107891D01*
X17395029Y-6084082D01*
X17299791Y-6060272D01*
X17180743Y-6060272D01*
X17085505Y-6084082D01*
X17037886Y-6107891D01*
X17014077Y-6131701D01*
X16990267Y-6179320D01*
X16990267Y-6798368D02*
X16990267Y-6560272D01*
X17228362Y-6536463D01*
X17204553Y-6560272D01*
X17180743Y-6607891D01*
X17180743Y-6726939D01*
X17204553Y-6774558D01*
X17228362Y-6798368D01*
X17275981Y-6822177D01*
X17395029Y-6822177D01*
X17442648Y-6798368D01*
X17466457Y-6774558D01*
X17490267Y-6726939D01*
X17490267Y-6607891D01*
X17466457Y-6560272D01*
X17442648Y-6536463D01*
D10*
%TO.C,C106*%
X17636080Y-40792656D02*
X17659890Y-40816465D01*
X17731318Y-40840275D01*
X17778937Y-40840275D01*
X17850366Y-40816465D01*
X17897985Y-40768846D01*
X17921795Y-40721227D01*
X17945604Y-40625989D01*
X17945604Y-40554561D01*
X17921795Y-40459323D01*
X17897985Y-40411704D01*
X17850366Y-40364085D01*
X17778937Y-40340275D01*
X17731318Y-40340275D01*
X17659890Y-40364085D01*
X17636080Y-40387894D01*
X17159890Y-40840275D02*
X17445604Y-40840275D01*
X17302747Y-40840275D02*
X17302747Y-40340275D01*
X17350366Y-40411704D01*
X17397985Y-40459323D01*
X17445604Y-40483132D01*
X16850366Y-40340275D02*
X16802747Y-40340275D01*
X16755128Y-40364085D01*
X16731318Y-40387894D01*
X16707509Y-40435513D01*
X16683699Y-40530751D01*
X16683699Y-40649799D01*
X16707509Y-40745037D01*
X16731318Y-40792656D01*
X16755128Y-40816465D01*
X16802747Y-40840275D01*
X16850366Y-40840275D01*
X16897985Y-40816465D01*
X16921795Y-40792656D01*
X16945604Y-40745037D01*
X16969414Y-40649799D01*
X16969414Y-40530751D01*
X16945604Y-40435513D01*
X16921795Y-40387894D01*
X16897985Y-40364085D01*
X16850366Y-40340275D01*
X16255128Y-40340275D02*
X16350366Y-40340275D01*
X16397985Y-40364085D01*
X16421795Y-40387894D01*
X16469414Y-40459323D01*
X16493223Y-40554561D01*
X16493223Y-40745037D01*
X16469414Y-40792656D01*
X16445604Y-40816465D01*
X16397985Y-40840275D01*
X16302747Y-40840275D01*
X16255128Y-40816465D01*
X16231318Y-40792656D01*
X16207509Y-40745037D01*
X16207509Y-40625989D01*
X16231318Y-40578370D01*
X16255128Y-40554561D01*
X16302747Y-40530751D01*
X16397985Y-40530751D01*
X16445604Y-40554561D01*
X16469414Y-40578370D01*
X16493223Y-40625989D01*
%TO.C,D80*%
X316337393Y-86308555D02*
X315837393Y-86308555D01*
X315837393Y-86427602D01*
X315861203Y-86499031D01*
X315908822Y-86546650D01*
X315956441Y-86570459D01*
X316051679Y-86594269D01*
X316123107Y-86594269D01*
X316218345Y-86570459D01*
X316265964Y-86546650D01*
X316313583Y-86499031D01*
X316337393Y-86427602D01*
X316337393Y-86308555D01*
X316051679Y-86879983D02*
X316027869Y-86832364D01*
X316004060Y-86808555D01*
X315956441Y-86784745D01*
X315932631Y-86784745D01*
X315885012Y-86808555D01*
X315861203Y-86832364D01*
X315837393Y-86879983D01*
X315837393Y-86975221D01*
X315861203Y-87022840D01*
X315885012Y-87046650D01*
X315932631Y-87070459D01*
X315956441Y-87070459D01*
X316004060Y-87046650D01*
X316027869Y-87022840D01*
X316051679Y-86975221D01*
X316051679Y-86879983D01*
X316075488Y-86832364D01*
X316099298Y-86808555D01*
X316146917Y-86784745D01*
X316242155Y-86784745D01*
X316289774Y-86808555D01*
X316313583Y-86832364D01*
X316337393Y-86879983D01*
X316337393Y-86975221D01*
X316313583Y-87022840D01*
X316289774Y-87046650D01*
X316242155Y-87070459D01*
X316146917Y-87070459D01*
X316099298Y-87046650D01*
X316075488Y-87022840D01*
X316051679Y-86975221D01*
X315837393Y-87379983D02*
X315837393Y-87427602D01*
X315861203Y-87475221D01*
X315885012Y-87499031D01*
X315932631Y-87522840D01*
X316027869Y-87546650D01*
X316146917Y-87546650D01*
X316242155Y-87522840D01*
X316289774Y-87499031D01*
X316313583Y-87475221D01*
X316337393Y-87427602D01*
X316337393Y-87379983D01*
X316313583Y-87332364D01*
X316289774Y-87308555D01*
X316242155Y-87284745D01*
X316146917Y-87260936D01*
X316027869Y-87260936D01*
X315932631Y-87284745D01*
X315885012Y-87308555D01*
X315861203Y-87332364D01*
X315837393Y-87379983D01*
%TO.C,D25*%
X188940411Y-29158507D02*
X188440411Y-29158507D01*
X188440411Y-29277554D01*
X188464221Y-29348983D01*
X188511840Y-29396602D01*
X188559459Y-29420411D01*
X188654697Y-29444221D01*
X188726125Y-29444221D01*
X188821363Y-29420411D01*
X188868982Y-29396602D01*
X188916601Y-29348983D01*
X188940411Y-29277554D01*
X188940411Y-29158507D01*
X188488030Y-29634697D02*
X188464221Y-29658507D01*
X188440411Y-29706126D01*
X188440411Y-29825173D01*
X188464221Y-29872792D01*
X188488030Y-29896602D01*
X188535649Y-29920411D01*
X188583268Y-29920411D01*
X188654697Y-29896602D01*
X188940411Y-29610888D01*
X188940411Y-29920411D01*
X188440411Y-30372792D02*
X188440411Y-30134697D01*
X188678506Y-30110888D01*
X188654697Y-30134697D01*
X188630887Y-30182316D01*
X188630887Y-30301364D01*
X188654697Y-30348983D01*
X188678506Y-30372792D01*
X188726125Y-30396602D01*
X188845173Y-30396602D01*
X188892792Y-30372792D01*
X188916601Y-30348983D01*
X188940411Y-30301364D01*
X188940411Y-30182316D01*
X188916601Y-30134697D01*
X188892792Y-30110888D01*
%TO.C,D33*%
X17490267Y-48208523D02*
X16990267Y-48208523D01*
X16990267Y-48327570D01*
X17014077Y-48398999D01*
X17061696Y-48446618D01*
X17109315Y-48470427D01*
X17204553Y-48494237D01*
X17275981Y-48494237D01*
X17371219Y-48470427D01*
X17418838Y-48446618D01*
X17466457Y-48398999D01*
X17490267Y-48327570D01*
X17490267Y-48208523D01*
X16990267Y-48660904D02*
X16990267Y-48970427D01*
X17180743Y-48803761D01*
X17180743Y-48875189D01*
X17204553Y-48922808D01*
X17228362Y-48946618D01*
X17275981Y-48970427D01*
X17395029Y-48970427D01*
X17442648Y-48946618D01*
X17466457Y-48922808D01*
X17490267Y-48875189D01*
X17490267Y-48732332D01*
X17466457Y-48684713D01*
X17442648Y-48660904D01*
X16990267Y-49137094D02*
X16990267Y-49446618D01*
X17180743Y-49279951D01*
X17180743Y-49351380D01*
X17204553Y-49398999D01*
X17228362Y-49422808D01*
X17275981Y-49446618D01*
X17395029Y-49446618D01*
X17442648Y-49422808D01*
X17466457Y-49398999D01*
X17490267Y-49351380D01*
X17490267Y-49208523D01*
X17466457Y-49160904D01*
X17442648Y-49137094D01*
%TO.C,D35*%
X79402819Y-48208523D02*
X78902819Y-48208523D01*
X78902819Y-48327570D01*
X78926629Y-48398999D01*
X78974248Y-48446618D01*
X79021867Y-48470427D01*
X79117105Y-48494237D01*
X79188533Y-48494237D01*
X79283771Y-48470427D01*
X79331390Y-48446618D01*
X79379009Y-48398999D01*
X79402819Y-48327570D01*
X79402819Y-48208523D01*
X78902819Y-48660904D02*
X78902819Y-48970427D01*
X79093295Y-48803761D01*
X79093295Y-48875189D01*
X79117105Y-48922808D01*
X79140914Y-48946618D01*
X79188533Y-48970427D01*
X79307581Y-48970427D01*
X79355200Y-48946618D01*
X79379009Y-48922808D01*
X79402819Y-48875189D01*
X79402819Y-48732332D01*
X79379009Y-48684713D01*
X79355200Y-48660904D01*
X78902819Y-49422808D02*
X78902819Y-49184713D01*
X79140914Y-49160904D01*
X79117105Y-49184713D01*
X79093295Y-49232332D01*
X79093295Y-49351380D01*
X79117105Y-49398999D01*
X79140914Y-49422808D01*
X79188533Y-49446618D01*
X79307581Y-49446618D01*
X79355200Y-49422808D01*
X79379009Y-49398999D01*
X79402819Y-49351380D01*
X79402819Y-49232332D01*
X79379009Y-49184713D01*
X79355200Y-49160904D01*
%TO.C,D52*%
X88927827Y-67258539D02*
X88427827Y-67258539D01*
X88427827Y-67377586D01*
X88451637Y-67449015D01*
X88499256Y-67496634D01*
X88546875Y-67520443D01*
X88642113Y-67544253D01*
X88713541Y-67544253D01*
X88808779Y-67520443D01*
X88856398Y-67496634D01*
X88904017Y-67449015D01*
X88927827Y-67377586D01*
X88927827Y-67258539D01*
X88427827Y-67996634D02*
X88427827Y-67758539D01*
X88665922Y-67734729D01*
X88642113Y-67758539D01*
X88618303Y-67806158D01*
X88618303Y-67925205D01*
X88642113Y-67972824D01*
X88665922Y-67996634D01*
X88713541Y-68020443D01*
X88832589Y-68020443D01*
X88880208Y-67996634D01*
X88904017Y-67972824D01*
X88927827Y-67925205D01*
X88927827Y-67806158D01*
X88904017Y-67758539D01*
X88880208Y-67734729D01*
X88475446Y-68210920D02*
X88451637Y-68234729D01*
X88427827Y-68282348D01*
X88427827Y-68401396D01*
X88451637Y-68449015D01*
X88475446Y-68472824D01*
X88523065Y-68496634D01*
X88570684Y-68496634D01*
X88642113Y-68472824D01*
X88927827Y-68187110D01*
X88927827Y-68496634D01*
%TO.C,D40*%
X174652899Y-48208523D02*
X174152899Y-48208523D01*
X174152899Y-48327570D01*
X174176709Y-48398999D01*
X174224328Y-48446618D01*
X174271947Y-48470427D01*
X174367185Y-48494237D01*
X174438613Y-48494237D01*
X174533851Y-48470427D01*
X174581470Y-48446618D01*
X174629089Y-48398999D01*
X174652899Y-48327570D01*
X174652899Y-48208523D01*
X174319566Y-48922808D02*
X174652899Y-48922808D01*
X174129089Y-48803761D02*
X174486232Y-48684713D01*
X174486232Y-48994237D01*
X174152899Y-49279951D02*
X174152899Y-49327570D01*
X174176709Y-49375189D01*
X174200518Y-49398999D01*
X174248137Y-49422808D01*
X174343375Y-49446618D01*
X174462423Y-49446618D01*
X174557661Y-49422808D01*
X174605280Y-49398999D01*
X174629089Y-49375189D01*
X174652899Y-49327570D01*
X174652899Y-49279951D01*
X174629089Y-49232332D01*
X174605280Y-49208523D01*
X174557661Y-49184713D01*
X174462423Y-49160904D01*
X174343375Y-49160904D01*
X174248137Y-49184713D01*
X174200518Y-49208523D01*
X174176709Y-49232332D01*
X174152899Y-49279951D01*
%TO.C,D32*%
X316337393Y-29158507D02*
X315837393Y-29158507D01*
X315837393Y-29277554D01*
X315861203Y-29348983D01*
X315908822Y-29396602D01*
X315956441Y-29420411D01*
X316051679Y-29444221D01*
X316123107Y-29444221D01*
X316218345Y-29420411D01*
X316265964Y-29396602D01*
X316313583Y-29348983D01*
X316337393Y-29277554D01*
X316337393Y-29158507D01*
X315837393Y-29610888D02*
X315837393Y-29920411D01*
X316027869Y-29753745D01*
X316027869Y-29825173D01*
X316051679Y-29872792D01*
X316075488Y-29896602D01*
X316123107Y-29920411D01*
X316242155Y-29920411D01*
X316289774Y-29896602D01*
X316313583Y-29872792D01*
X316337393Y-29825173D01*
X316337393Y-29682316D01*
X316313583Y-29634697D01*
X316289774Y-29610888D01*
X315885012Y-30110888D02*
X315861203Y-30134697D01*
X315837393Y-30182316D01*
X315837393Y-30301364D01*
X315861203Y-30348983D01*
X315885012Y-30372792D01*
X315932631Y-30396602D01*
X315980250Y-30396602D01*
X316051679Y-30372792D01*
X316337393Y-30087078D01*
X316337393Y-30396602D01*
%TO.C,D23*%
X150840379Y-29158507D02*
X150340379Y-29158507D01*
X150340379Y-29277554D01*
X150364189Y-29348983D01*
X150411808Y-29396602D01*
X150459427Y-29420411D01*
X150554665Y-29444221D01*
X150626093Y-29444221D01*
X150721331Y-29420411D01*
X150768950Y-29396602D01*
X150816569Y-29348983D01*
X150840379Y-29277554D01*
X150840379Y-29158507D01*
X150387998Y-29634697D02*
X150364189Y-29658507D01*
X150340379Y-29706126D01*
X150340379Y-29825173D01*
X150364189Y-29872792D01*
X150387998Y-29896602D01*
X150435617Y-29920411D01*
X150483236Y-29920411D01*
X150554665Y-29896602D01*
X150840379Y-29610888D01*
X150840379Y-29920411D01*
X150340379Y-30087078D02*
X150340379Y-30396602D01*
X150530855Y-30229935D01*
X150530855Y-30301364D01*
X150554665Y-30348983D01*
X150578474Y-30372792D01*
X150626093Y-30396602D01*
X150745141Y-30396602D01*
X150792760Y-30372792D01*
X150816569Y-30348983D01*
X150840379Y-30301364D01*
X150840379Y-30158507D01*
X150816569Y-30110888D01*
X150792760Y-30087078D01*
%TO.C,C102*%
X26780136Y-47198317D02*
X26803945Y-47174507D01*
X26827755Y-47103079D01*
X26827755Y-47055460D01*
X26803945Y-46984031D01*
X26756326Y-46936412D01*
X26708707Y-46912602D01*
X26613469Y-46888793D01*
X26542041Y-46888793D01*
X26446803Y-46912602D01*
X26399184Y-46936412D01*
X26351565Y-46984031D01*
X26327755Y-47055460D01*
X26327755Y-47103079D01*
X26351565Y-47174507D01*
X26375374Y-47198317D01*
X26827755Y-47674507D02*
X26827755Y-47388793D01*
X26827755Y-47531650D02*
X26327755Y-47531650D01*
X26399184Y-47484031D01*
X26446803Y-47436412D01*
X26470612Y-47388793D01*
X26327755Y-47984031D02*
X26327755Y-48031650D01*
X26351565Y-48079269D01*
X26375374Y-48103079D01*
X26422993Y-48126888D01*
X26518231Y-48150698D01*
X26637279Y-48150698D01*
X26732517Y-48126888D01*
X26780136Y-48103079D01*
X26803945Y-48079269D01*
X26827755Y-48031650D01*
X26827755Y-47984031D01*
X26803945Y-47936412D01*
X26780136Y-47912602D01*
X26732517Y-47888793D01*
X26637279Y-47864983D01*
X26518231Y-47864983D01*
X26422993Y-47888793D01*
X26375374Y-47912602D01*
X26351565Y-47936412D01*
X26327755Y-47984031D01*
X26375374Y-48341174D02*
X26351565Y-48364983D01*
X26327755Y-48412602D01*
X26327755Y-48531650D01*
X26351565Y-48579269D01*
X26375374Y-48603079D01*
X26422993Y-48626888D01*
X26470612Y-48626888D01*
X26542041Y-48603079D01*
X26827755Y-48317364D01*
X26827755Y-48626888D01*
%TO.C,D30*%
X284190491Y-29158507D02*
X283690491Y-29158507D01*
X283690491Y-29277554D01*
X283714301Y-29348983D01*
X283761920Y-29396602D01*
X283809539Y-29420411D01*
X283904777Y-29444221D01*
X283976205Y-29444221D01*
X284071443Y-29420411D01*
X284119062Y-29396602D01*
X284166681Y-29348983D01*
X284190491Y-29277554D01*
X284190491Y-29158507D01*
X283690491Y-29610888D02*
X283690491Y-29920411D01*
X283880967Y-29753745D01*
X283880967Y-29825173D01*
X283904777Y-29872792D01*
X283928586Y-29896602D01*
X283976205Y-29920411D01*
X284095253Y-29920411D01*
X284142872Y-29896602D01*
X284166681Y-29872792D01*
X284190491Y-29825173D01*
X284190491Y-29682316D01*
X284166681Y-29634697D01*
X284142872Y-29610888D01*
X283690491Y-30229935D02*
X283690491Y-30277554D01*
X283714301Y-30325173D01*
X283738110Y-30348983D01*
X283785729Y-30372792D01*
X283880967Y-30396602D01*
X284000015Y-30396602D01*
X284095253Y-30372792D01*
X284142872Y-30348983D01*
X284166681Y-30325173D01*
X284190491Y-30277554D01*
X284190491Y-30229935D01*
X284166681Y-30182316D01*
X284142872Y-30158507D01*
X284095253Y-30134697D01*
X284000015Y-30110888D01*
X283880967Y-30110888D01*
X283785729Y-30134697D01*
X283738110Y-30158507D01*
X283714301Y-30182316D01*
X283690491Y-30229935D01*
D11*
%TO.C,U2*%
X282011021Y-1910197D02*
X282011021Y-2719721D01*
X281963402Y-2814959D01*
X281915783Y-2862578D01*
X281820545Y-2910197D01*
X281630068Y-2910197D01*
X281534830Y-2862578D01*
X281487211Y-2814959D01*
X281439592Y-2719721D01*
X281439592Y-1910197D01*
X281011021Y-2862578D02*
X280868164Y-2910197D01*
X280630068Y-2910197D01*
X280534830Y-2862578D01*
X280487211Y-2814959D01*
X280439592Y-2719721D01*
X280439592Y-2624483D01*
X280487211Y-2529245D01*
X280534830Y-2481626D01*
X280630068Y-2434007D01*
X280820545Y-2386388D01*
X280915783Y-2338769D01*
X280963402Y-2291150D01*
X281011021Y-2195912D01*
X281011021Y-2100674D01*
X280963402Y-2005436D01*
X280915783Y-1957817D01*
X280820545Y-1910197D01*
X280582449Y-1910197D01*
X280439592Y-1957817D01*
X279677687Y-2386388D02*
X279534830Y-2434007D01*
X279487211Y-2481626D01*
X279439592Y-2576864D01*
X279439592Y-2719721D01*
X279487211Y-2814959D01*
X279534830Y-2862578D01*
X279630068Y-2910197D01*
X280011021Y-2910197D01*
X280011021Y-1910197D01*
X279677687Y-1910197D01*
X279582449Y-1957817D01*
X279534830Y-2005436D01*
X279487211Y-2100674D01*
X279487211Y-2195912D01*
X279534830Y-2291150D01*
X279582449Y-2338769D01*
X279677687Y-2386388D01*
X280011021Y-2386388D01*
X278534830Y-2910197D02*
X279011021Y-2910197D01*
X279011021Y-1910197D01*
X277630068Y-2814959D02*
X277677687Y-2862578D01*
X277820545Y-2910197D01*
X277915783Y-2910197D01*
X278058640Y-2862578D01*
X278153878Y-2767340D01*
X278201497Y-2672102D01*
X278249116Y-2481626D01*
X278249116Y-2338769D01*
X278201497Y-2148293D01*
X278153878Y-2053055D01*
X278058640Y-1957817D01*
X277915783Y-1910197D01*
X277820545Y-1910197D01*
X277677687Y-1957817D01*
X277630068Y-2005436D01*
X276772925Y-1910197D02*
X276963402Y-1910197D01*
X277058640Y-1957817D01*
X277106259Y-2005436D01*
X277201497Y-2148293D01*
X277249116Y-2338769D01*
X277249116Y-2719721D01*
X277201497Y-2814959D01*
X277153878Y-2862578D01*
X277058640Y-2910197D01*
X276868164Y-2910197D01*
X276772925Y-2862578D01*
X276725306Y-2814959D01*
X276677687Y-2719721D01*
X276677687Y-2481626D01*
X276725306Y-2386388D01*
X276772925Y-2338769D01*
X276868164Y-2291150D01*
X277058640Y-2291150D01*
X277153878Y-2338769D01*
X277201497Y-2386388D01*
X277249116Y-2481626D01*
X276249116Y-2529245D02*
X275487211Y-2529245D01*
X275058640Y-2005436D02*
X275011021Y-1957817D01*
X274915783Y-1910197D01*
X274677687Y-1910197D01*
X274582449Y-1957817D01*
X274534830Y-2005436D01*
X274487211Y-2100674D01*
X274487211Y-2195912D01*
X274534830Y-2338769D01*
X275106259Y-2910197D01*
X274487211Y-2910197D01*
X274106259Y-2862578D02*
X273963402Y-2910197D01*
X273725306Y-2910197D01*
X273630068Y-2862578D01*
X273582449Y-2814959D01*
X273534830Y-2719721D01*
X273534830Y-2624483D01*
X273582449Y-2529245D01*
X273630068Y-2481626D01*
X273725306Y-2434007D01*
X273915783Y-2386388D01*
X274011021Y-2338769D01*
X274058640Y-2291150D01*
X274106259Y-2195912D01*
X274106259Y-2100674D01*
X274058640Y-2005436D01*
X274011021Y-1957817D01*
X273915783Y-1910197D01*
X273677687Y-1910197D01*
X273534830Y-1957817D01*
X272534830Y-2814959D02*
X272582449Y-2862578D01*
X272725306Y-2910197D01*
X272820545Y-2910197D01*
X272963402Y-2862578D01*
X273058640Y-2767340D01*
X273106259Y-2672102D01*
X273153878Y-2481626D01*
X273153878Y-2338769D01*
X273106259Y-2148293D01*
X273058640Y-2053055D01*
X272963402Y-1957817D01*
X272820545Y-1910197D01*
X272725306Y-1910197D01*
X272582449Y-1957817D01*
X272534830Y-2005436D01*
X271677687Y-1910197D02*
X271868164Y-1910197D01*
X271963402Y-1957817D01*
X272011021Y-2005436D01*
X272106259Y-2148293D01*
X272153878Y-2338769D01*
X272153878Y-2719721D01*
X272106259Y-2814959D01*
X272058640Y-2862578D01*
X271963402Y-2910197D01*
X271772925Y-2910197D01*
X271677687Y-2862578D01*
X271630068Y-2814959D01*
X271582449Y-2719721D01*
X271582449Y-2481626D01*
X271630068Y-2386388D01*
X271677687Y-2338769D01*
X271772925Y-2291150D01*
X271963402Y-2291150D01*
X272058640Y-2338769D01*
X272106259Y-2386388D01*
X272153878Y-2481626D01*
D12*
X277201497Y-5084007D02*
X277201497Y-5488769D01*
X277177687Y-5536388D01*
X277153878Y-5560197D01*
X277106259Y-5584007D01*
X277011021Y-5584007D01*
X276963402Y-5560197D01*
X276939592Y-5536388D01*
X276915783Y-5488769D01*
X276915783Y-5084007D01*
X276701497Y-5131626D02*
X276677687Y-5107817D01*
X276630068Y-5084007D01*
X276511021Y-5084007D01*
X276463402Y-5107817D01*
X276439592Y-5131626D01*
X276415783Y-5179245D01*
X276415783Y-5226864D01*
X276439592Y-5298293D01*
X276725306Y-5584007D01*
X276415783Y-5584007D01*
D10*
%TO.C,C105*%
X34519205Y-13265476D02*
X34543014Y-13241666D01*
X34566824Y-13170238D01*
X34566824Y-13122619D01*
X34543014Y-13051190D01*
X34495395Y-13003571D01*
X34447776Y-12979761D01*
X34352538Y-12955952D01*
X34281110Y-12955952D01*
X34185872Y-12979761D01*
X34138253Y-13003571D01*
X34090634Y-13051190D01*
X34066824Y-13122619D01*
X34066824Y-13170238D01*
X34090634Y-13241666D01*
X34114443Y-13265476D01*
X34566824Y-13741666D02*
X34566824Y-13455952D01*
X34566824Y-13598809D02*
X34066824Y-13598809D01*
X34138253Y-13551190D01*
X34185872Y-13503571D01*
X34209681Y-13455952D01*
X34066824Y-14051190D02*
X34066824Y-14098809D01*
X34090634Y-14146428D01*
X34114443Y-14170238D01*
X34162062Y-14194047D01*
X34257300Y-14217857D01*
X34376348Y-14217857D01*
X34471586Y-14194047D01*
X34519205Y-14170238D01*
X34543014Y-14146428D01*
X34566824Y-14098809D01*
X34566824Y-14051190D01*
X34543014Y-14003571D01*
X34519205Y-13979761D01*
X34471586Y-13955952D01*
X34376348Y-13932142D01*
X34257300Y-13932142D01*
X34162062Y-13955952D01*
X34114443Y-13979761D01*
X34090634Y-14003571D01*
X34066824Y-14051190D01*
X34066824Y-14670238D02*
X34066824Y-14432142D01*
X34304919Y-14408333D01*
X34281110Y-14432142D01*
X34257300Y-14479761D01*
X34257300Y-14598809D01*
X34281110Y-14646428D01*
X34304919Y-14670238D01*
X34352538Y-14694047D01*
X34471586Y-14694047D01*
X34519205Y-14670238D01*
X34543014Y-14646428D01*
X34566824Y-14598809D01*
X34566824Y-14479761D01*
X34543014Y-14432142D01*
X34519205Y-14408333D01*
%TO.C,D56*%
X165127891Y-67258539D02*
X164627891Y-67258539D01*
X164627891Y-67377586D01*
X164651701Y-67449015D01*
X164699320Y-67496634D01*
X164746939Y-67520443D01*
X164842177Y-67544253D01*
X164913605Y-67544253D01*
X165008843Y-67520443D01*
X165056462Y-67496634D01*
X165104081Y-67449015D01*
X165127891Y-67377586D01*
X165127891Y-67258539D01*
X164627891Y-67996634D02*
X164627891Y-67758539D01*
X164865986Y-67734729D01*
X164842177Y-67758539D01*
X164818367Y-67806158D01*
X164818367Y-67925205D01*
X164842177Y-67972824D01*
X164865986Y-67996634D01*
X164913605Y-68020443D01*
X165032653Y-68020443D01*
X165080272Y-67996634D01*
X165104081Y-67972824D01*
X165127891Y-67925205D01*
X165127891Y-67806158D01*
X165104081Y-67758539D01*
X165080272Y-67734729D01*
X164627891Y-68449015D02*
X164627891Y-68353777D01*
X164651701Y-68306158D01*
X164675510Y-68282348D01*
X164746939Y-68234729D01*
X164842177Y-68210920D01*
X165032653Y-68210920D01*
X165080272Y-68234729D01*
X165104081Y-68258539D01*
X165127891Y-68306158D01*
X165127891Y-68401396D01*
X165104081Y-68449015D01*
X165080272Y-68472824D01*
X165032653Y-68496634D01*
X164913605Y-68496634D01*
X164865986Y-68472824D01*
X164842177Y-68449015D01*
X164818367Y-68401396D01*
X164818367Y-68306158D01*
X164842177Y-68258539D01*
X164865986Y-68234729D01*
X164913605Y-68210920D01*
%TO.C,D51*%
X73449689Y-67258539D02*
X72949689Y-67258539D01*
X72949689Y-67377586D01*
X72973499Y-67449015D01*
X73021118Y-67496634D01*
X73068737Y-67520443D01*
X73163975Y-67544253D01*
X73235403Y-67544253D01*
X73330641Y-67520443D01*
X73378260Y-67496634D01*
X73425879Y-67449015D01*
X73449689Y-67377586D01*
X73449689Y-67258539D01*
X72949689Y-67996634D02*
X72949689Y-67758539D01*
X73187784Y-67734729D01*
X73163975Y-67758539D01*
X73140165Y-67806158D01*
X73140165Y-67925205D01*
X73163975Y-67972824D01*
X73187784Y-67996634D01*
X73235403Y-68020443D01*
X73354451Y-68020443D01*
X73402070Y-67996634D01*
X73425879Y-67972824D01*
X73449689Y-67925205D01*
X73449689Y-67806158D01*
X73425879Y-67758539D01*
X73402070Y-67734729D01*
X73449689Y-68496634D02*
X73449689Y-68210920D01*
X73449689Y-68353777D02*
X72949689Y-68353777D01*
X73021118Y-68306158D01*
X73068737Y-68258539D01*
X73092546Y-68210920D01*
%TO.C,D22*%
X131790363Y-29158507D02*
X131290363Y-29158507D01*
X131290363Y-29277554D01*
X131314173Y-29348983D01*
X131361792Y-29396602D01*
X131409411Y-29420411D01*
X131504649Y-29444221D01*
X131576077Y-29444221D01*
X131671315Y-29420411D01*
X131718934Y-29396602D01*
X131766553Y-29348983D01*
X131790363Y-29277554D01*
X131790363Y-29158507D01*
X131337982Y-29634697D02*
X131314173Y-29658507D01*
X131290363Y-29706126D01*
X131290363Y-29825173D01*
X131314173Y-29872792D01*
X131337982Y-29896602D01*
X131385601Y-29920411D01*
X131433220Y-29920411D01*
X131504649Y-29896602D01*
X131790363Y-29610888D01*
X131790363Y-29920411D01*
X131337982Y-30110888D02*
X131314173Y-30134697D01*
X131290363Y-30182316D01*
X131290363Y-30301364D01*
X131314173Y-30348983D01*
X131337982Y-30372792D01*
X131385601Y-30396602D01*
X131433220Y-30396602D01*
X131504649Y-30372792D01*
X131790363Y-30087078D01*
X131790363Y-30396602D01*
%TO.C,D8*%
X160365387Y-10346586D02*
X159865387Y-10346586D01*
X159865387Y-10465634D01*
X159889197Y-10537062D01*
X159936816Y-10584681D01*
X159984435Y-10608491D01*
X160079673Y-10632300D01*
X160151101Y-10632300D01*
X160246339Y-10608491D01*
X160293958Y-10584681D01*
X160341577Y-10537062D01*
X160365387Y-10465634D01*
X160365387Y-10346586D01*
X160079673Y-10918014D02*
X160055863Y-10870395D01*
X160032054Y-10846586D01*
X159984435Y-10822776D01*
X159960625Y-10822776D01*
X159913006Y-10846586D01*
X159889197Y-10870395D01*
X159865387Y-10918014D01*
X159865387Y-11013253D01*
X159889197Y-11060872D01*
X159913006Y-11084681D01*
X159960625Y-11108491D01*
X159984435Y-11108491D01*
X160032054Y-11084681D01*
X160055863Y-11060872D01*
X160079673Y-11013253D01*
X160079673Y-10918014D01*
X160103482Y-10870395D01*
X160127292Y-10846586D01*
X160174911Y-10822776D01*
X160270149Y-10822776D01*
X160317768Y-10846586D01*
X160341577Y-10870395D01*
X160365387Y-10918014D01*
X160365387Y-11013253D01*
X160341577Y-11060872D01*
X160317768Y-11084681D01*
X160270149Y-11108491D01*
X160174911Y-11108491D01*
X160127292Y-11084681D01*
X160103482Y-11060872D01*
X160079673Y-11013253D01*
%TO.C,D12*%
X236565451Y-10108491D02*
X236065451Y-10108491D01*
X236065451Y-10227538D01*
X236089261Y-10298967D01*
X236136880Y-10346586D01*
X236184499Y-10370395D01*
X236279737Y-10394205D01*
X236351165Y-10394205D01*
X236446403Y-10370395D01*
X236494022Y-10346586D01*
X236541641Y-10298967D01*
X236565451Y-10227538D01*
X236565451Y-10108491D01*
X236565451Y-10870395D02*
X236565451Y-10584681D01*
X236565451Y-10727538D02*
X236065451Y-10727538D01*
X236136880Y-10679919D01*
X236184499Y-10632300D01*
X236208308Y-10584681D01*
X236113070Y-11060872D02*
X236089261Y-11084681D01*
X236065451Y-11132300D01*
X236065451Y-11251348D01*
X236089261Y-11298967D01*
X236113070Y-11322776D01*
X236160689Y-11346586D01*
X236208308Y-11346586D01*
X236279737Y-11322776D01*
X236565451Y-11037062D01*
X236565451Y-11346586D01*
%TO.C,C103*%
X47997043Y-39602030D02*
X48020853Y-39625839D01*
X48092281Y-39649649D01*
X48139900Y-39649649D01*
X48211329Y-39625839D01*
X48258948Y-39578220D01*
X48282758Y-39530601D01*
X48306567Y-39435363D01*
X48306567Y-39363935D01*
X48282758Y-39268697D01*
X48258948Y-39221078D01*
X48211329Y-39173459D01*
X48139900Y-39149649D01*
X48092281Y-39149649D01*
X48020853Y-39173459D01*
X47997043Y-39197268D01*
X47520853Y-39649649D02*
X47806567Y-39649649D01*
X47663710Y-39649649D02*
X47663710Y-39149649D01*
X47711329Y-39221078D01*
X47758948Y-39268697D01*
X47806567Y-39292506D01*
X47211329Y-39149649D02*
X47163710Y-39149649D01*
X47116091Y-39173459D01*
X47092281Y-39197268D01*
X47068472Y-39244887D01*
X47044662Y-39340125D01*
X47044662Y-39459173D01*
X47068472Y-39554411D01*
X47092281Y-39602030D01*
X47116091Y-39625839D01*
X47163710Y-39649649D01*
X47211329Y-39649649D01*
X47258948Y-39625839D01*
X47282758Y-39602030D01*
X47306567Y-39554411D01*
X47330377Y-39459173D01*
X47330377Y-39340125D01*
X47306567Y-39244887D01*
X47282758Y-39197268D01*
X47258948Y-39173459D01*
X47211329Y-39149649D01*
X46877996Y-39149649D02*
X46568472Y-39149649D01*
X46735139Y-39340125D01*
X46663710Y-39340125D01*
X46616091Y-39363935D01*
X46592281Y-39387744D01*
X46568472Y-39435363D01*
X46568472Y-39554411D01*
X46592281Y-39602030D01*
X46616091Y-39625839D01*
X46663710Y-39649649D01*
X46806567Y-39649649D01*
X46854186Y-39625839D01*
X46877996Y-39602030D01*
%TO.C,D63*%
X312765515Y-67258539D02*
X312265515Y-67258539D01*
X312265515Y-67377586D01*
X312289325Y-67449015D01*
X312336944Y-67496634D01*
X312384563Y-67520443D01*
X312479801Y-67544253D01*
X312551229Y-67544253D01*
X312646467Y-67520443D01*
X312694086Y-67496634D01*
X312741705Y-67449015D01*
X312765515Y-67377586D01*
X312765515Y-67258539D01*
X312265515Y-67972824D02*
X312265515Y-67877586D01*
X312289325Y-67829967D01*
X312313134Y-67806158D01*
X312384563Y-67758539D01*
X312479801Y-67734729D01*
X312670277Y-67734729D01*
X312717896Y-67758539D01*
X312741705Y-67782348D01*
X312765515Y-67829967D01*
X312765515Y-67925205D01*
X312741705Y-67972824D01*
X312717896Y-67996634D01*
X312670277Y-68020443D01*
X312551229Y-68020443D01*
X312503610Y-67996634D01*
X312479801Y-67972824D01*
X312455991Y-67925205D01*
X312455991Y-67829967D01*
X312479801Y-67782348D01*
X312503610Y-67758539D01*
X312551229Y-67734729D01*
X312265515Y-68187110D02*
X312265515Y-68496634D01*
X312455991Y-68329967D01*
X312455991Y-68401396D01*
X312479801Y-68449015D01*
X312503610Y-68472824D01*
X312551229Y-68496634D01*
X312670277Y-68496634D01*
X312717896Y-68472824D01*
X312741705Y-68449015D01*
X312765515Y-68401396D01*
X312765515Y-68258539D01*
X312741705Y-68210920D01*
X312717896Y-68187110D01*
D13*
%TO.C,RGB2*%
X24441666Y-14141666D02*
X24675000Y-13808333D01*
X24841666Y-14141666D02*
X24841666Y-13441666D01*
X24575000Y-13441666D01*
X24508333Y-13475000D01*
X24475000Y-13508333D01*
X24441666Y-13575000D01*
X24441666Y-13675000D01*
X24475000Y-13741666D01*
X24508333Y-13775000D01*
X24575000Y-13808333D01*
X24841666Y-13808333D01*
X23775000Y-13475000D02*
X23841666Y-13441666D01*
X23941666Y-13441666D01*
X24041666Y-13475000D01*
X24108333Y-13541666D01*
X24141666Y-13608333D01*
X24175000Y-13741666D01*
X24175000Y-13841666D01*
X24141666Y-13975000D01*
X24108333Y-14041666D01*
X24041666Y-14108333D01*
X23941666Y-14141666D01*
X23875000Y-14141666D01*
X23775000Y-14108333D01*
X23741666Y-14075000D01*
X23741666Y-13841666D01*
X23875000Y-13841666D01*
X23208333Y-13775000D02*
X23108333Y-13808333D01*
X23075000Y-13841666D01*
X23041666Y-13908333D01*
X23041666Y-14008333D01*
X23075000Y-14075000D01*
X23108333Y-14108333D01*
X23175000Y-14141666D01*
X23441666Y-14141666D01*
X23441666Y-13441666D01*
X23208333Y-13441666D01*
X23141666Y-13475000D01*
X23108333Y-13508333D01*
X23075000Y-13575000D01*
X23075000Y-13641666D01*
X23108333Y-13708333D01*
X23141666Y-13741666D01*
X23208333Y-13775000D01*
X23441666Y-13775000D01*
X22775000Y-13508333D02*
X22741666Y-13475000D01*
X22675000Y-13441666D01*
X22508333Y-13441666D01*
X22441666Y-13475000D01*
X22408333Y-13508333D01*
X22375000Y-13575000D01*
X22375000Y-13641666D01*
X22408333Y-13741666D01*
X22808333Y-14141666D01*
X22375000Y-14141666D01*
D10*
%TO.C,C108*%
X29161388Y-13265476D02*
X29185197Y-13241666D01*
X29209007Y-13170238D01*
X29209007Y-13122619D01*
X29185197Y-13051190D01*
X29137578Y-13003571D01*
X29089959Y-12979761D01*
X28994721Y-12955952D01*
X28923293Y-12955952D01*
X28828055Y-12979761D01*
X28780436Y-13003571D01*
X28732817Y-13051190D01*
X28709007Y-13122619D01*
X28709007Y-13170238D01*
X28732817Y-13241666D01*
X28756626Y-13265476D01*
X29209007Y-13741666D02*
X29209007Y-13455952D01*
X29209007Y-13598809D02*
X28709007Y-13598809D01*
X28780436Y-13551190D01*
X28828055Y-13503571D01*
X28851864Y-13455952D01*
X28709007Y-14051190D02*
X28709007Y-14098809D01*
X28732817Y-14146428D01*
X28756626Y-14170238D01*
X28804245Y-14194047D01*
X28899483Y-14217857D01*
X29018531Y-14217857D01*
X29113769Y-14194047D01*
X29161388Y-14170238D01*
X29185197Y-14146428D01*
X29209007Y-14098809D01*
X29209007Y-14051190D01*
X29185197Y-14003571D01*
X29161388Y-13979761D01*
X29113769Y-13955952D01*
X29018531Y-13932142D01*
X28899483Y-13932142D01*
X28804245Y-13955952D01*
X28756626Y-13979761D01*
X28732817Y-14003571D01*
X28709007Y-14051190D01*
X28923293Y-14503571D02*
X28899483Y-14455952D01*
X28875674Y-14432142D01*
X28828055Y-14408333D01*
X28804245Y-14408333D01*
X28756626Y-14432142D01*
X28732817Y-14455952D01*
X28709007Y-14503571D01*
X28709007Y-14598809D01*
X28732817Y-14646428D01*
X28756626Y-14670238D01*
X28804245Y-14694047D01*
X28828055Y-14694047D01*
X28875674Y-14670238D01*
X28899483Y-14646428D01*
X28923293Y-14598809D01*
X28923293Y-14503571D01*
X28947102Y-14455952D01*
X28970912Y-14432142D01*
X29018531Y-14408333D01*
X29113769Y-14408333D01*
X29161388Y-14432142D01*
X29185197Y-14455952D01*
X29209007Y-14503571D01*
X29209007Y-14598809D01*
X29185197Y-14646428D01*
X29161388Y-14670238D01*
X29113769Y-14694047D01*
X29018531Y-14694047D01*
X28970912Y-14670238D01*
X28947102Y-14646428D01*
X28923293Y-14598809D01*
D12*
%TO.C,R104*%
X43829852Y-38459023D02*
X43996519Y-38220928D01*
X44115567Y-38459023D02*
X44115567Y-37959023D01*
X43925090Y-37959023D01*
X43877471Y-37982833D01*
X43853662Y-38006642D01*
X43829852Y-38054261D01*
X43829852Y-38125690D01*
X43853662Y-38173309D01*
X43877471Y-38197118D01*
X43925090Y-38220928D01*
X44115567Y-38220928D01*
X43353662Y-38459023D02*
X43639376Y-38459023D01*
X43496519Y-38459023D02*
X43496519Y-37959023D01*
X43544138Y-38030452D01*
X43591757Y-38078071D01*
X43639376Y-38101880D01*
X43044138Y-37959023D02*
X42996519Y-37959023D01*
X42948900Y-37982833D01*
X42925090Y-38006642D01*
X42901281Y-38054261D01*
X42877471Y-38149499D01*
X42877471Y-38268547D01*
X42901281Y-38363785D01*
X42925090Y-38411404D01*
X42948900Y-38435213D01*
X42996519Y-38459023D01*
X43044138Y-38459023D01*
X43091757Y-38435213D01*
X43115567Y-38411404D01*
X43139376Y-38363785D01*
X43163186Y-38268547D01*
X43163186Y-38149499D01*
X43139376Y-38054261D01*
X43115567Y-38006642D01*
X43091757Y-37982833D01*
X43044138Y-37959023D01*
X42448900Y-38125690D02*
X42448900Y-38459023D01*
X42567948Y-37935213D02*
X42686995Y-38292356D01*
X42377471Y-38292356D01*
D10*
%TO.C,D54*%
X127027859Y-67258539D02*
X126527859Y-67258539D01*
X126527859Y-67377586D01*
X126551669Y-67449015D01*
X126599288Y-67496634D01*
X126646907Y-67520443D01*
X126742145Y-67544253D01*
X126813573Y-67544253D01*
X126908811Y-67520443D01*
X126956430Y-67496634D01*
X127004049Y-67449015D01*
X127027859Y-67377586D01*
X127027859Y-67258539D01*
X126527859Y-67996634D02*
X126527859Y-67758539D01*
X126765954Y-67734729D01*
X126742145Y-67758539D01*
X126718335Y-67806158D01*
X126718335Y-67925205D01*
X126742145Y-67972824D01*
X126765954Y-67996634D01*
X126813573Y-68020443D01*
X126932621Y-68020443D01*
X126980240Y-67996634D01*
X127004049Y-67972824D01*
X127027859Y-67925205D01*
X127027859Y-67806158D01*
X127004049Y-67758539D01*
X126980240Y-67734729D01*
X126694526Y-68449015D02*
X127027859Y-68449015D01*
X126504049Y-68329967D02*
X126861192Y-68210920D01*
X126861192Y-68520443D01*
%TO.C,D39*%
X155602883Y-48208523D02*
X155102883Y-48208523D01*
X155102883Y-48327570D01*
X155126693Y-48398999D01*
X155174312Y-48446618D01*
X155221931Y-48470427D01*
X155317169Y-48494237D01*
X155388597Y-48494237D01*
X155483835Y-48470427D01*
X155531454Y-48446618D01*
X155579073Y-48398999D01*
X155602883Y-48327570D01*
X155602883Y-48208523D01*
X155102883Y-48660904D02*
X155102883Y-48970427D01*
X155293359Y-48803761D01*
X155293359Y-48875189D01*
X155317169Y-48922808D01*
X155340978Y-48946618D01*
X155388597Y-48970427D01*
X155507645Y-48970427D01*
X155555264Y-48946618D01*
X155579073Y-48922808D01*
X155602883Y-48875189D01*
X155602883Y-48732332D01*
X155579073Y-48684713D01*
X155555264Y-48660904D01*
X155602883Y-49208523D02*
X155602883Y-49303761D01*
X155579073Y-49351380D01*
X155555264Y-49375189D01*
X155483835Y-49422808D01*
X155388597Y-49446618D01*
X155198121Y-49446618D01*
X155150502Y-49422808D01*
X155126693Y-49398999D01*
X155102883Y-49351380D01*
X155102883Y-49256142D01*
X155126693Y-49208523D01*
X155150502Y-49184713D01*
X155198121Y-49160904D01*
X155317169Y-49160904D01*
X155364788Y-49184713D01*
X155388597Y-49208523D01*
X155412407Y-49256142D01*
X155412407Y-49351380D01*
X155388597Y-49398999D01*
X155364788Y-49422808D01*
X155317169Y-49446618D01*
D12*
%TO.C,R101*%
X277642048Y-10156110D02*
X277403953Y-9989443D01*
X277642048Y-9870395D02*
X277142048Y-9870395D01*
X277142048Y-10060872D01*
X277165858Y-10108491D01*
X277189667Y-10132300D01*
X277237286Y-10156110D01*
X277308715Y-10156110D01*
X277356334Y-10132300D01*
X277380143Y-10108491D01*
X277403953Y-10060872D01*
X277403953Y-9870395D01*
X277642048Y-10632300D02*
X277642048Y-10346586D01*
X277642048Y-10489443D02*
X277142048Y-10489443D01*
X277213477Y-10441824D01*
X277261096Y-10394205D01*
X277284905Y-10346586D01*
X277142048Y-10941824D02*
X277142048Y-10989443D01*
X277165858Y-11037062D01*
X277189667Y-11060872D01*
X277237286Y-11084681D01*
X277332524Y-11108491D01*
X277451572Y-11108491D01*
X277546810Y-11084681D01*
X277594429Y-11060872D01*
X277618238Y-11037062D01*
X277642048Y-10989443D01*
X277642048Y-10941824D01*
X277618238Y-10894205D01*
X277594429Y-10870395D01*
X277546810Y-10846586D01*
X277451572Y-10822776D01*
X277332524Y-10822776D01*
X277237286Y-10846586D01*
X277189667Y-10870395D01*
X277165858Y-10894205D01*
X277142048Y-10941824D01*
X277642048Y-11584681D02*
X277642048Y-11298967D01*
X277642048Y-11441824D02*
X277142048Y-11441824D01*
X277213477Y-11394205D01*
X277261096Y-11346586D01*
X277284905Y-11298967D01*
D10*
%TO.C,D43*%
X231802947Y-48208523D02*
X231302947Y-48208523D01*
X231302947Y-48327570D01*
X231326757Y-48398999D01*
X231374376Y-48446618D01*
X231421995Y-48470427D01*
X231517233Y-48494237D01*
X231588661Y-48494237D01*
X231683899Y-48470427D01*
X231731518Y-48446618D01*
X231779137Y-48398999D01*
X231802947Y-48327570D01*
X231802947Y-48208523D01*
X231469614Y-48922808D02*
X231802947Y-48922808D01*
X231279137Y-48803761D02*
X231636280Y-48684713D01*
X231636280Y-48994237D01*
X231302947Y-49137094D02*
X231302947Y-49446618D01*
X231493423Y-49279951D01*
X231493423Y-49351380D01*
X231517233Y-49398999D01*
X231541042Y-49422808D01*
X231588661Y-49446618D01*
X231707709Y-49446618D01*
X231755328Y-49422808D01*
X231779137Y-49398999D01*
X231802947Y-49351380D01*
X231802947Y-49208523D01*
X231779137Y-49160904D01*
X231755328Y-49137094D01*
%TO.C,C104*%
X47997043Y-33053587D02*
X48020853Y-33077396D01*
X48092281Y-33101206D01*
X48139900Y-33101206D01*
X48211329Y-33077396D01*
X48258948Y-33029777D01*
X48282758Y-32982158D01*
X48306567Y-32886920D01*
X48306567Y-32815492D01*
X48282758Y-32720254D01*
X48258948Y-32672635D01*
X48211329Y-32625016D01*
X48139900Y-32601206D01*
X48092281Y-32601206D01*
X48020853Y-32625016D01*
X47997043Y-32648825D01*
X47520853Y-33101206D02*
X47806567Y-33101206D01*
X47663710Y-33101206D02*
X47663710Y-32601206D01*
X47711329Y-32672635D01*
X47758948Y-32720254D01*
X47806567Y-32744063D01*
X47211329Y-32601206D02*
X47163710Y-32601206D01*
X47116091Y-32625016D01*
X47092281Y-32648825D01*
X47068472Y-32696444D01*
X47044662Y-32791682D01*
X47044662Y-32910730D01*
X47068472Y-33005968D01*
X47092281Y-33053587D01*
X47116091Y-33077396D01*
X47163710Y-33101206D01*
X47211329Y-33101206D01*
X47258948Y-33077396D01*
X47282758Y-33053587D01*
X47306567Y-33005968D01*
X47330377Y-32910730D01*
X47330377Y-32791682D01*
X47306567Y-32696444D01*
X47282758Y-32648825D01*
X47258948Y-32625016D01*
X47211329Y-32601206D01*
X46616091Y-32767873D02*
X46616091Y-33101206D01*
X46735139Y-32577396D02*
X46854186Y-32934539D01*
X46544662Y-32934539D01*
%TO.C,D13*%
X240137329Y-10108491D02*
X239637329Y-10108491D01*
X239637329Y-10227538D01*
X239661139Y-10298967D01*
X239708758Y-10346586D01*
X239756377Y-10370395D01*
X239851615Y-10394205D01*
X239923043Y-10394205D01*
X240018281Y-10370395D01*
X240065900Y-10346586D01*
X240113519Y-10298967D01*
X240137329Y-10227538D01*
X240137329Y-10108491D01*
X240137329Y-10870395D02*
X240137329Y-10584681D01*
X240137329Y-10727538D02*
X239637329Y-10727538D01*
X239708758Y-10679919D01*
X239756377Y-10632300D01*
X239780186Y-10584681D01*
X239637329Y-11037062D02*
X239637329Y-11346586D01*
X239827805Y-11179919D01*
X239827805Y-11251348D01*
X239851615Y-11298967D01*
X239875424Y-11322776D01*
X239923043Y-11346586D01*
X240042091Y-11346586D01*
X240089710Y-11322776D01*
X240113519Y-11298967D01*
X240137329Y-11251348D01*
X240137329Y-11108491D01*
X240113519Y-11060872D01*
X240089710Y-11037062D01*
%TO.C,D10*%
X198465419Y-10108491D02*
X197965419Y-10108491D01*
X197965419Y-10227538D01*
X197989229Y-10298967D01*
X198036848Y-10346586D01*
X198084467Y-10370395D01*
X198179705Y-10394205D01*
X198251133Y-10394205D01*
X198346371Y-10370395D01*
X198393990Y-10346586D01*
X198441609Y-10298967D01*
X198465419Y-10227538D01*
X198465419Y-10108491D01*
X198465419Y-10870395D02*
X198465419Y-10584681D01*
X198465419Y-10727538D02*
X197965419Y-10727538D01*
X198036848Y-10679919D01*
X198084467Y-10632300D01*
X198108276Y-10584681D01*
X197965419Y-11179919D02*
X197965419Y-11227538D01*
X197989229Y-11275157D01*
X198013038Y-11298967D01*
X198060657Y-11322776D01*
X198155895Y-11346586D01*
X198274943Y-11346586D01*
X198370181Y-11322776D01*
X198417800Y-11298967D01*
X198441609Y-11275157D01*
X198465419Y-11227538D01*
X198465419Y-11179919D01*
X198441609Y-11132300D01*
X198417800Y-11108491D01*
X198370181Y-11084681D01*
X198274943Y-11060872D01*
X198155895Y-11060872D01*
X198060657Y-11084681D01*
X198013038Y-11108491D01*
X197989229Y-11132300D01*
X197965419Y-11179919D01*
%TO.C,C107*%
X29161388Y-6865476D02*
X29185197Y-6841666D01*
X29209007Y-6770238D01*
X29209007Y-6722619D01*
X29185197Y-6651190D01*
X29137578Y-6603571D01*
X29089959Y-6579761D01*
X28994721Y-6555952D01*
X28923293Y-6555952D01*
X28828055Y-6579761D01*
X28780436Y-6603571D01*
X28732817Y-6651190D01*
X28709007Y-6722619D01*
X28709007Y-6770238D01*
X28732817Y-6841666D01*
X28756626Y-6865476D01*
X29209007Y-7341666D02*
X29209007Y-7055952D01*
X29209007Y-7198809D02*
X28709007Y-7198809D01*
X28780436Y-7151190D01*
X28828055Y-7103571D01*
X28851864Y-7055952D01*
X28709007Y-7651190D02*
X28709007Y-7698809D01*
X28732817Y-7746428D01*
X28756626Y-7770238D01*
X28804245Y-7794047D01*
X28899483Y-7817857D01*
X29018531Y-7817857D01*
X29113769Y-7794047D01*
X29161388Y-7770238D01*
X29185197Y-7746428D01*
X29209007Y-7698809D01*
X29209007Y-7651190D01*
X29185197Y-7603571D01*
X29161388Y-7579761D01*
X29113769Y-7555952D01*
X29018531Y-7532142D01*
X28899483Y-7532142D01*
X28804245Y-7555952D01*
X28756626Y-7579761D01*
X28732817Y-7603571D01*
X28709007Y-7651190D01*
X28709007Y-7984523D02*
X28709007Y-8317857D01*
X29209007Y-8103571D01*
%TO.C,D19*%
X74640315Y-29158507D02*
X74140315Y-29158507D01*
X74140315Y-29277554D01*
X74164125Y-29348983D01*
X74211744Y-29396602D01*
X74259363Y-29420411D01*
X74354601Y-29444221D01*
X74426029Y-29444221D01*
X74521267Y-29420411D01*
X74568886Y-29396602D01*
X74616505Y-29348983D01*
X74640315Y-29277554D01*
X74640315Y-29158507D01*
X74640315Y-29920411D02*
X74640315Y-29634697D01*
X74640315Y-29777554D02*
X74140315Y-29777554D01*
X74211744Y-29729935D01*
X74259363Y-29682316D01*
X74283172Y-29634697D01*
X74640315Y-30158507D02*
X74640315Y-30253745D01*
X74616505Y-30301364D01*
X74592696Y-30325173D01*
X74521267Y-30372792D01*
X74426029Y-30396602D01*
X74235553Y-30396602D01*
X74187934Y-30372792D01*
X74164125Y-30348983D01*
X74140315Y-30301364D01*
X74140315Y-30206126D01*
X74164125Y-30158507D01*
X74187934Y-30134697D01*
X74235553Y-30110888D01*
X74354601Y-30110888D01*
X74402220Y-30134697D01*
X74426029Y-30158507D01*
X74449839Y-30206126D01*
X74449839Y-30301364D01*
X74426029Y-30348983D01*
X74402220Y-30372792D01*
X74354601Y-30396602D01*
%TO.C,D28*%
X246090459Y-29158507D02*
X245590459Y-29158507D01*
X245590459Y-29277554D01*
X245614269Y-29348983D01*
X245661888Y-29396602D01*
X245709507Y-29420411D01*
X245804745Y-29444221D01*
X245876173Y-29444221D01*
X245971411Y-29420411D01*
X246019030Y-29396602D01*
X246066649Y-29348983D01*
X246090459Y-29277554D01*
X246090459Y-29158507D01*
X245638078Y-29634697D02*
X245614269Y-29658507D01*
X245590459Y-29706126D01*
X245590459Y-29825173D01*
X245614269Y-29872792D01*
X245638078Y-29896602D01*
X245685697Y-29920411D01*
X245733316Y-29920411D01*
X245804745Y-29896602D01*
X246090459Y-29610888D01*
X246090459Y-29920411D01*
X245804745Y-30206126D02*
X245780935Y-30158507D01*
X245757126Y-30134697D01*
X245709507Y-30110888D01*
X245685697Y-30110888D01*
X245638078Y-30134697D01*
X245614269Y-30158507D01*
X245590459Y-30206126D01*
X245590459Y-30301364D01*
X245614269Y-30348983D01*
X245638078Y-30372792D01*
X245685697Y-30396602D01*
X245709507Y-30396602D01*
X245757126Y-30372792D01*
X245780935Y-30348983D01*
X245804745Y-30301364D01*
X245804745Y-30206126D01*
X245828554Y-30158507D01*
X245852364Y-30134697D01*
X245899983Y-30110888D01*
X245995221Y-30110888D01*
X246042840Y-30134697D01*
X246066649Y-30158507D01*
X246090459Y-30206126D01*
X246090459Y-30301364D01*
X246066649Y-30348983D01*
X246042840Y-30372792D01*
X245995221Y-30396602D01*
X245899983Y-30396602D01*
X245852364Y-30372792D01*
X245828554Y-30348983D01*
X245804745Y-30301364D01*
%TO.C,D29*%
X265140475Y-29158507D02*
X264640475Y-29158507D01*
X264640475Y-29277554D01*
X264664285Y-29348983D01*
X264711904Y-29396602D01*
X264759523Y-29420411D01*
X264854761Y-29444221D01*
X264926189Y-29444221D01*
X265021427Y-29420411D01*
X265069046Y-29396602D01*
X265116665Y-29348983D01*
X265140475Y-29277554D01*
X265140475Y-29158507D01*
X264688094Y-29634697D02*
X264664285Y-29658507D01*
X264640475Y-29706126D01*
X264640475Y-29825173D01*
X264664285Y-29872792D01*
X264688094Y-29896602D01*
X264735713Y-29920411D01*
X264783332Y-29920411D01*
X264854761Y-29896602D01*
X265140475Y-29610888D01*
X265140475Y-29920411D01*
X265140475Y-30158507D02*
X265140475Y-30253745D01*
X265116665Y-30301364D01*
X265092856Y-30325173D01*
X265021427Y-30372792D01*
X264926189Y-30396602D01*
X264735713Y-30396602D01*
X264688094Y-30372792D01*
X264664285Y-30348983D01*
X264640475Y-30301364D01*
X264640475Y-30206126D01*
X264664285Y-30158507D01*
X264688094Y-30134697D01*
X264735713Y-30110888D01*
X264854761Y-30110888D01*
X264902380Y-30134697D01*
X264926189Y-30158507D01*
X264949999Y-30206126D01*
X264949999Y-30301364D01*
X264926189Y-30348983D01*
X264902380Y-30372792D01*
X264854761Y-30396602D01*
%TO.C,D59*%
X222277939Y-67258539D02*
X221777939Y-67258539D01*
X221777939Y-67377586D01*
X221801749Y-67449015D01*
X221849368Y-67496634D01*
X221896987Y-67520443D01*
X221992225Y-67544253D01*
X222063653Y-67544253D01*
X222158891Y-67520443D01*
X222206510Y-67496634D01*
X222254129Y-67449015D01*
X222277939Y-67377586D01*
X222277939Y-67258539D01*
X221777939Y-67996634D02*
X221777939Y-67758539D01*
X222016034Y-67734729D01*
X221992225Y-67758539D01*
X221968415Y-67806158D01*
X221968415Y-67925205D01*
X221992225Y-67972824D01*
X222016034Y-67996634D01*
X222063653Y-68020443D01*
X222182701Y-68020443D01*
X222230320Y-67996634D01*
X222254129Y-67972824D01*
X222277939Y-67925205D01*
X222277939Y-67806158D01*
X222254129Y-67758539D01*
X222230320Y-67734729D01*
X222277939Y-68258539D02*
X222277939Y-68353777D01*
X222254129Y-68401396D01*
X222230320Y-68425205D01*
X222158891Y-68472824D01*
X222063653Y-68496634D01*
X221873177Y-68496634D01*
X221825558Y-68472824D01*
X221801749Y-68449015D01*
X221777939Y-68401396D01*
X221777939Y-68306158D01*
X221801749Y-68258539D01*
X221825558Y-68234729D01*
X221873177Y-68210920D01*
X221992225Y-68210920D01*
X222039844Y-68234729D01*
X222063653Y-68258539D01*
X222087463Y-68306158D01*
X222087463Y-68401396D01*
X222063653Y-68449015D01*
X222039844Y-68472824D01*
X221992225Y-68496634D01*
%TO.C,D44*%
X250852963Y-48208523D02*
X250352963Y-48208523D01*
X250352963Y-48327570D01*
X250376773Y-48398999D01*
X250424392Y-48446618D01*
X250472011Y-48470427D01*
X250567249Y-48494237D01*
X250638677Y-48494237D01*
X250733915Y-48470427D01*
X250781534Y-48446618D01*
X250829153Y-48398999D01*
X250852963Y-48327570D01*
X250852963Y-48208523D01*
X250519630Y-48922808D02*
X250852963Y-48922808D01*
X250329153Y-48803761D02*
X250686296Y-48684713D01*
X250686296Y-48994237D01*
X250519630Y-49398999D02*
X250852963Y-49398999D01*
X250329153Y-49279951D02*
X250686296Y-49160904D01*
X250686296Y-49470427D01*
%TO.C,D61*%
X260377971Y-67258539D02*
X259877971Y-67258539D01*
X259877971Y-67377586D01*
X259901781Y-67449015D01*
X259949400Y-67496634D01*
X259997019Y-67520443D01*
X260092257Y-67544253D01*
X260163685Y-67544253D01*
X260258923Y-67520443D01*
X260306542Y-67496634D01*
X260354161Y-67449015D01*
X260377971Y-67377586D01*
X260377971Y-67258539D01*
X259877971Y-67972824D02*
X259877971Y-67877586D01*
X259901781Y-67829967D01*
X259925590Y-67806158D01*
X259997019Y-67758539D01*
X260092257Y-67734729D01*
X260282733Y-67734729D01*
X260330352Y-67758539D01*
X260354161Y-67782348D01*
X260377971Y-67829967D01*
X260377971Y-67925205D01*
X260354161Y-67972824D01*
X260330352Y-67996634D01*
X260282733Y-68020443D01*
X260163685Y-68020443D01*
X260116066Y-67996634D01*
X260092257Y-67972824D01*
X260068447Y-67925205D01*
X260068447Y-67829967D01*
X260092257Y-67782348D01*
X260116066Y-67758539D01*
X260163685Y-67734729D01*
X260377971Y-68496634D02*
X260377971Y-68210920D01*
X260377971Y-68353777D02*
X259877971Y-68353777D01*
X259949400Y-68306158D01*
X259997019Y-68258539D01*
X260020828Y-68210920D01*
%TO.C,D18*%
X50827795Y-29158507D02*
X50327795Y-29158507D01*
X50327795Y-29277554D01*
X50351605Y-29348983D01*
X50399224Y-29396602D01*
X50446843Y-29420411D01*
X50542081Y-29444221D01*
X50613509Y-29444221D01*
X50708747Y-29420411D01*
X50756366Y-29396602D01*
X50803985Y-29348983D01*
X50827795Y-29277554D01*
X50827795Y-29158507D01*
X50827795Y-29920411D02*
X50827795Y-29634697D01*
X50827795Y-29777554D02*
X50327795Y-29777554D01*
X50399224Y-29729935D01*
X50446843Y-29682316D01*
X50470652Y-29634697D01*
X50542081Y-30206126D02*
X50518271Y-30158507D01*
X50494462Y-30134697D01*
X50446843Y-30110888D01*
X50423033Y-30110888D01*
X50375414Y-30134697D01*
X50351605Y-30158507D01*
X50327795Y-30206126D01*
X50327795Y-30301364D01*
X50351605Y-30348983D01*
X50375414Y-30372792D01*
X50423033Y-30396602D01*
X50446843Y-30396602D01*
X50494462Y-30372792D01*
X50518271Y-30348983D01*
X50542081Y-30301364D01*
X50542081Y-30206126D01*
X50565890Y-30158507D01*
X50589700Y-30134697D01*
X50637319Y-30110888D01*
X50732557Y-30110888D01*
X50780176Y-30134697D01*
X50803985Y-30158507D01*
X50827795Y-30206126D01*
X50827795Y-30301364D01*
X50803985Y-30348983D01*
X50780176Y-30372792D01*
X50732557Y-30396602D01*
X50637319Y-30396602D01*
X50589700Y-30372792D01*
X50565890Y-30348983D01*
X50542081Y-30301364D01*
%TO.C,D58*%
X203227923Y-67258539D02*
X202727923Y-67258539D01*
X202727923Y-67377586D01*
X202751733Y-67449015D01*
X202799352Y-67496634D01*
X202846971Y-67520443D01*
X202942209Y-67544253D01*
X203013637Y-67544253D01*
X203108875Y-67520443D01*
X203156494Y-67496634D01*
X203204113Y-67449015D01*
X203227923Y-67377586D01*
X203227923Y-67258539D01*
X202727923Y-67996634D02*
X202727923Y-67758539D01*
X202966018Y-67734729D01*
X202942209Y-67758539D01*
X202918399Y-67806158D01*
X202918399Y-67925205D01*
X202942209Y-67972824D01*
X202966018Y-67996634D01*
X203013637Y-68020443D01*
X203132685Y-68020443D01*
X203180304Y-67996634D01*
X203204113Y-67972824D01*
X203227923Y-67925205D01*
X203227923Y-67806158D01*
X203204113Y-67758539D01*
X203180304Y-67734729D01*
X202942209Y-68306158D02*
X202918399Y-68258539D01*
X202894590Y-68234729D01*
X202846971Y-68210920D01*
X202823161Y-68210920D01*
X202775542Y-68234729D01*
X202751733Y-68258539D01*
X202727923Y-68306158D01*
X202727923Y-68401396D01*
X202751733Y-68449015D01*
X202775542Y-68472824D01*
X202823161Y-68496634D01*
X202846971Y-68496634D01*
X202894590Y-68472824D01*
X202918399Y-68449015D01*
X202942209Y-68401396D01*
X202942209Y-68306158D01*
X202966018Y-68258539D01*
X202989828Y-68234729D01*
X203037447Y-68210920D01*
X203132685Y-68210920D01*
X203180304Y-68234729D01*
X203204113Y-68258539D01*
X203227923Y-68306158D01*
X203227923Y-68401396D01*
X203204113Y-68449015D01*
X203180304Y-68472824D01*
X203132685Y-68496634D01*
X203037447Y-68496634D01*
X202989828Y-68472824D01*
X202966018Y-68449015D01*
X202942209Y-68401396D01*
%TO.C,D57*%
X184177907Y-67258539D02*
X183677907Y-67258539D01*
X183677907Y-67377586D01*
X183701717Y-67449015D01*
X183749336Y-67496634D01*
X183796955Y-67520443D01*
X183892193Y-67544253D01*
X183963621Y-67544253D01*
X184058859Y-67520443D01*
X184106478Y-67496634D01*
X184154097Y-67449015D01*
X184177907Y-67377586D01*
X184177907Y-67258539D01*
X183677907Y-67996634D02*
X183677907Y-67758539D01*
X183916002Y-67734729D01*
X183892193Y-67758539D01*
X183868383Y-67806158D01*
X183868383Y-67925205D01*
X183892193Y-67972824D01*
X183916002Y-67996634D01*
X183963621Y-68020443D01*
X184082669Y-68020443D01*
X184130288Y-67996634D01*
X184154097Y-67972824D01*
X184177907Y-67925205D01*
X184177907Y-67806158D01*
X184154097Y-67758539D01*
X184130288Y-67734729D01*
X183677907Y-68187110D02*
X183677907Y-68520443D01*
X184177907Y-68306158D01*
%TO.C,D34*%
X53209047Y-48208523D02*
X52709047Y-48208523D01*
X52709047Y-48327570D01*
X52732857Y-48398999D01*
X52780476Y-48446618D01*
X52828095Y-48470427D01*
X52923333Y-48494237D01*
X52994761Y-48494237D01*
X53089999Y-48470427D01*
X53137618Y-48446618D01*
X53185237Y-48398999D01*
X53209047Y-48327570D01*
X53209047Y-48208523D01*
X52709047Y-48660904D02*
X52709047Y-48970427D01*
X52899523Y-48803761D01*
X52899523Y-48875189D01*
X52923333Y-48922808D01*
X52947142Y-48946618D01*
X52994761Y-48970427D01*
X53113809Y-48970427D01*
X53161428Y-48946618D01*
X53185237Y-48922808D01*
X53209047Y-48875189D01*
X53209047Y-48732332D01*
X53185237Y-48684713D01*
X53161428Y-48660904D01*
X52875714Y-49398999D02*
X53209047Y-49398999D01*
X52685237Y-49279951D02*
X53042380Y-49160904D01*
X53042380Y-49470427D01*
%TO.C,D37*%
X117502851Y-48208523D02*
X117002851Y-48208523D01*
X117002851Y-48327570D01*
X117026661Y-48398999D01*
X117074280Y-48446618D01*
X117121899Y-48470427D01*
X117217137Y-48494237D01*
X117288565Y-48494237D01*
X117383803Y-48470427D01*
X117431422Y-48446618D01*
X117479041Y-48398999D01*
X117502851Y-48327570D01*
X117502851Y-48208523D01*
X117002851Y-48660904D02*
X117002851Y-48970427D01*
X117193327Y-48803761D01*
X117193327Y-48875189D01*
X117217137Y-48922808D01*
X117240946Y-48946618D01*
X117288565Y-48970427D01*
X117407613Y-48970427D01*
X117455232Y-48946618D01*
X117479041Y-48922808D01*
X117502851Y-48875189D01*
X117502851Y-48732332D01*
X117479041Y-48684713D01*
X117455232Y-48660904D01*
X117002851Y-49137094D02*
X117002851Y-49470427D01*
X117502851Y-49256142D01*
%TO.C,D36*%
X98452835Y-48208523D02*
X97952835Y-48208523D01*
X97952835Y-48327570D01*
X97976645Y-48398999D01*
X98024264Y-48446618D01*
X98071883Y-48470427D01*
X98167121Y-48494237D01*
X98238549Y-48494237D01*
X98333787Y-48470427D01*
X98381406Y-48446618D01*
X98429025Y-48398999D01*
X98452835Y-48327570D01*
X98452835Y-48208523D01*
X97952835Y-48660904D02*
X97952835Y-48970427D01*
X98143311Y-48803761D01*
X98143311Y-48875189D01*
X98167121Y-48922808D01*
X98190930Y-48946618D01*
X98238549Y-48970427D01*
X98357597Y-48970427D01*
X98405216Y-48946618D01*
X98429025Y-48922808D01*
X98452835Y-48875189D01*
X98452835Y-48732332D01*
X98429025Y-48684713D01*
X98405216Y-48660904D01*
X97952835Y-49398999D02*
X97952835Y-49303761D01*
X97976645Y-49256142D01*
X98000454Y-49232332D01*
X98071883Y-49184713D01*
X98167121Y-49160904D01*
X98357597Y-49160904D01*
X98405216Y-49184713D01*
X98429025Y-49208523D01*
X98452835Y-49256142D01*
X98452835Y-49351380D01*
X98429025Y-49398999D01*
X98405216Y-49422808D01*
X98357597Y-49446618D01*
X98238549Y-49446618D01*
X98190930Y-49422808D01*
X98167121Y-49398999D01*
X98143311Y-49351380D01*
X98143311Y-49256142D01*
X98167121Y-49208523D01*
X98190930Y-49184713D01*
X98238549Y-49160904D01*
%TO.C,D38*%
X136552867Y-48208523D02*
X136052867Y-48208523D01*
X136052867Y-48327570D01*
X136076677Y-48398999D01*
X136124296Y-48446618D01*
X136171915Y-48470427D01*
X136267153Y-48494237D01*
X136338581Y-48494237D01*
X136433819Y-48470427D01*
X136481438Y-48446618D01*
X136529057Y-48398999D01*
X136552867Y-48327570D01*
X136552867Y-48208523D01*
X136052867Y-48660904D02*
X136052867Y-48970427D01*
X136243343Y-48803761D01*
X136243343Y-48875189D01*
X136267153Y-48922808D01*
X136290962Y-48946618D01*
X136338581Y-48970427D01*
X136457629Y-48970427D01*
X136505248Y-48946618D01*
X136529057Y-48922808D01*
X136552867Y-48875189D01*
X136552867Y-48732332D01*
X136529057Y-48684713D01*
X136505248Y-48660904D01*
X136267153Y-49256142D02*
X136243343Y-49208523D01*
X136219534Y-49184713D01*
X136171915Y-49160904D01*
X136148105Y-49160904D01*
X136100486Y-49184713D01*
X136076677Y-49208523D01*
X136052867Y-49256142D01*
X136052867Y-49351380D01*
X136076677Y-49398999D01*
X136100486Y-49422808D01*
X136148105Y-49446618D01*
X136171915Y-49446618D01*
X136219534Y-49422808D01*
X136243343Y-49398999D01*
X136267153Y-49351380D01*
X136267153Y-49256142D01*
X136290962Y-49208523D01*
X136314772Y-49184713D01*
X136362391Y-49160904D01*
X136457629Y-49160904D01*
X136505248Y-49184713D01*
X136529057Y-49208523D01*
X136552867Y-49256142D01*
X136552867Y-49351380D01*
X136529057Y-49398999D01*
X136505248Y-49422808D01*
X136457629Y-49446618D01*
X136362391Y-49446618D01*
X136314772Y-49422808D01*
X136290962Y-49398999D01*
X136267153Y-49351380D01*
%TO.C,D3*%
X65115307Y-10346586D02*
X64615307Y-10346586D01*
X64615307Y-10465634D01*
X64639117Y-10537062D01*
X64686736Y-10584681D01*
X64734355Y-10608491D01*
X64829593Y-10632300D01*
X64901021Y-10632300D01*
X64996259Y-10608491D01*
X65043878Y-10584681D01*
X65091497Y-10537062D01*
X65115307Y-10465634D01*
X65115307Y-10346586D01*
X64615307Y-10798967D02*
X64615307Y-11108491D01*
X64805783Y-10941824D01*
X64805783Y-11013253D01*
X64829593Y-11060872D01*
X64853402Y-11084681D01*
X64901021Y-11108491D01*
X65020069Y-11108491D01*
X65067688Y-11084681D01*
X65091497Y-11060872D01*
X65115307Y-11013253D01*
X65115307Y-10870395D01*
X65091497Y-10822776D01*
X65067688Y-10798967D01*
D13*
%TO.C,RGB1*%
X24441666Y-7741666D02*
X24675000Y-7408333D01*
X24841666Y-7741666D02*
X24841666Y-7041666D01*
X24575000Y-7041666D01*
X24508333Y-7075000D01*
X24475000Y-7108333D01*
X24441666Y-7175000D01*
X24441666Y-7275000D01*
X24475000Y-7341666D01*
X24508333Y-7375000D01*
X24575000Y-7408333D01*
X24841666Y-7408333D01*
X23775000Y-7075000D02*
X23841666Y-7041666D01*
X23941666Y-7041666D01*
X24041666Y-7075000D01*
X24108333Y-7141666D01*
X24141666Y-7208333D01*
X24175000Y-7341666D01*
X24175000Y-7441666D01*
X24141666Y-7575000D01*
X24108333Y-7641666D01*
X24041666Y-7708333D01*
X23941666Y-7741666D01*
X23875000Y-7741666D01*
X23775000Y-7708333D01*
X23741666Y-7675000D01*
X23741666Y-7441666D01*
X23875000Y-7441666D01*
X23208333Y-7375000D02*
X23108333Y-7408333D01*
X23075000Y-7441666D01*
X23041666Y-7508333D01*
X23041666Y-7608333D01*
X23075000Y-7675000D01*
X23108333Y-7708333D01*
X23175000Y-7741666D01*
X23441666Y-7741666D01*
X23441666Y-7041666D01*
X23208333Y-7041666D01*
X23141666Y-7075000D01*
X23108333Y-7108333D01*
X23075000Y-7175000D01*
X23075000Y-7241666D01*
X23108333Y-7308333D01*
X23141666Y-7341666D01*
X23208333Y-7375000D01*
X23441666Y-7375000D01*
X22375000Y-7741666D02*
X22775000Y-7741666D01*
X22575000Y-7741666D02*
X22575000Y-7041666D01*
X22641666Y-7141666D01*
X22708333Y-7208333D01*
X22775000Y-7241666D01*
D10*
%TO.C,D60*%
X241327955Y-67258539D02*
X240827955Y-67258539D01*
X240827955Y-67377586D01*
X240851765Y-67449015D01*
X240899384Y-67496634D01*
X240947003Y-67520443D01*
X241042241Y-67544253D01*
X241113669Y-67544253D01*
X241208907Y-67520443D01*
X241256526Y-67496634D01*
X241304145Y-67449015D01*
X241327955Y-67377586D01*
X241327955Y-67258539D01*
X240827955Y-67972824D02*
X240827955Y-67877586D01*
X240851765Y-67829967D01*
X240875574Y-67806158D01*
X240947003Y-67758539D01*
X241042241Y-67734729D01*
X241232717Y-67734729D01*
X241280336Y-67758539D01*
X241304145Y-67782348D01*
X241327955Y-67829967D01*
X241327955Y-67925205D01*
X241304145Y-67972824D01*
X241280336Y-67996634D01*
X241232717Y-68020443D01*
X241113669Y-68020443D01*
X241066050Y-67996634D01*
X241042241Y-67972824D01*
X241018431Y-67925205D01*
X241018431Y-67829967D01*
X241042241Y-67782348D01*
X241066050Y-67758539D01*
X241113669Y-67734729D01*
X240827955Y-68329967D02*
X240827955Y-68377586D01*
X240851765Y-68425205D01*
X240875574Y-68449015D01*
X240923193Y-68472824D01*
X241018431Y-68496634D01*
X241137479Y-68496634D01*
X241232717Y-68472824D01*
X241280336Y-68449015D01*
X241304145Y-68425205D01*
X241327955Y-68377586D01*
X241327955Y-68329967D01*
X241304145Y-68282348D01*
X241280336Y-68258539D01*
X241232717Y-68234729D01*
X241137479Y-68210920D01*
X241018431Y-68210920D01*
X240923193Y-68234729D01*
X240875574Y-68258539D01*
X240851765Y-68282348D01*
X240827955Y-68329967D01*
%TO.C,D21*%
X112740347Y-29158507D02*
X112240347Y-29158507D01*
X112240347Y-29277554D01*
X112264157Y-29348983D01*
X112311776Y-29396602D01*
X112359395Y-29420411D01*
X112454633Y-29444221D01*
X112526061Y-29444221D01*
X112621299Y-29420411D01*
X112668918Y-29396602D01*
X112716537Y-29348983D01*
X112740347Y-29277554D01*
X112740347Y-29158507D01*
X112287966Y-29634697D02*
X112264157Y-29658507D01*
X112240347Y-29706126D01*
X112240347Y-29825173D01*
X112264157Y-29872792D01*
X112287966Y-29896602D01*
X112335585Y-29920411D01*
X112383204Y-29920411D01*
X112454633Y-29896602D01*
X112740347Y-29610888D01*
X112740347Y-29920411D01*
X112740347Y-30396602D02*
X112740347Y-30110888D01*
X112740347Y-30253745D02*
X112240347Y-30253745D01*
X112311776Y-30206126D01*
X112359395Y-30158507D01*
X112383204Y-30110888D01*
%TO.C,D2*%
X46065291Y-10346586D02*
X45565291Y-10346586D01*
X45565291Y-10465634D01*
X45589101Y-10537062D01*
X45636720Y-10584681D01*
X45684339Y-10608491D01*
X45779577Y-10632300D01*
X45851005Y-10632300D01*
X45946243Y-10608491D01*
X45993862Y-10584681D01*
X46041481Y-10537062D01*
X46065291Y-10465634D01*
X46065291Y-10346586D01*
X45612910Y-10822776D02*
X45589101Y-10846586D01*
X45565291Y-10894205D01*
X45565291Y-11013253D01*
X45589101Y-11060872D01*
X45612910Y-11084681D01*
X45660529Y-11108491D01*
X45708148Y-11108491D01*
X45779577Y-11084681D01*
X46065291Y-10798967D01*
X46065291Y-11108491D01*
%TO.C,D64*%
X316337393Y-67258539D02*
X315837393Y-67258539D01*
X315837393Y-67377586D01*
X315861203Y-67449015D01*
X315908822Y-67496634D01*
X315956441Y-67520443D01*
X316051679Y-67544253D01*
X316123107Y-67544253D01*
X316218345Y-67520443D01*
X316265964Y-67496634D01*
X316313583Y-67449015D01*
X316337393Y-67377586D01*
X316337393Y-67258539D01*
X315837393Y-67972824D02*
X315837393Y-67877586D01*
X315861203Y-67829967D01*
X315885012Y-67806158D01*
X315956441Y-67758539D01*
X316051679Y-67734729D01*
X316242155Y-67734729D01*
X316289774Y-67758539D01*
X316313583Y-67782348D01*
X316337393Y-67829967D01*
X316337393Y-67925205D01*
X316313583Y-67972824D01*
X316289774Y-67996634D01*
X316242155Y-68020443D01*
X316123107Y-68020443D01*
X316075488Y-67996634D01*
X316051679Y-67972824D01*
X316027869Y-67925205D01*
X316027869Y-67829967D01*
X316051679Y-67782348D01*
X316075488Y-67758539D01*
X316123107Y-67734729D01*
X316004060Y-68449015D02*
X316337393Y-68449015D01*
X315813583Y-68329967D02*
X316170726Y-68210920D01*
X316170726Y-68520443D01*
D12*
%TO.C,R103*%
X11087637Y-40244962D02*
X11254304Y-40006867D01*
X11373352Y-40244962D02*
X11373352Y-39744962D01*
X11182875Y-39744962D01*
X11135256Y-39768772D01*
X11111447Y-39792581D01*
X11087637Y-39840200D01*
X11087637Y-39911629D01*
X11111447Y-39959248D01*
X11135256Y-39983057D01*
X11182875Y-40006867D01*
X11373352Y-40006867D01*
X10611447Y-40244962D02*
X10897161Y-40244962D01*
X10754304Y-40244962D02*
X10754304Y-39744962D01*
X10801923Y-39816391D01*
X10849542Y-39864010D01*
X10897161Y-39887819D01*
X10301923Y-39744962D02*
X10254304Y-39744962D01*
X10206685Y-39768772D01*
X10182875Y-39792581D01*
X10159066Y-39840200D01*
X10135256Y-39935438D01*
X10135256Y-40054486D01*
X10159066Y-40149724D01*
X10182875Y-40197343D01*
X10206685Y-40221152D01*
X10254304Y-40244962D01*
X10301923Y-40244962D01*
X10349542Y-40221152D01*
X10373352Y-40197343D01*
X10397161Y-40149724D01*
X10420971Y-40054486D01*
X10420971Y-39935438D01*
X10397161Y-39840200D01*
X10373352Y-39792581D01*
X10349542Y-39768772D01*
X10301923Y-39744962D01*
X9968590Y-39744962D02*
X9659066Y-39744962D01*
X9825733Y-39935438D01*
X9754304Y-39935438D01*
X9706685Y-39959248D01*
X9682875Y-39983057D01*
X9659066Y-40030676D01*
X9659066Y-40149724D01*
X9682875Y-40197343D01*
X9706685Y-40221152D01*
X9754304Y-40244962D01*
X9897161Y-40244962D01*
X9944780Y-40221152D01*
X9968590Y-40197343D01*
D10*
%TO.C,D45*%
X269902979Y-48208523D02*
X269402979Y-48208523D01*
X269402979Y-48327570D01*
X269426789Y-48398999D01*
X269474408Y-48446618D01*
X269522027Y-48470427D01*
X269617265Y-48494237D01*
X269688693Y-48494237D01*
X269783931Y-48470427D01*
X269831550Y-48446618D01*
X269879169Y-48398999D01*
X269902979Y-48327570D01*
X269902979Y-48208523D01*
X269569646Y-48922808D02*
X269902979Y-48922808D01*
X269379169Y-48803761D02*
X269736312Y-48684713D01*
X269736312Y-48994237D01*
X269402979Y-49422808D02*
X269402979Y-49184713D01*
X269641074Y-49160904D01*
X269617265Y-49184713D01*
X269593455Y-49232332D01*
X269593455Y-49351380D01*
X269617265Y-49398999D01*
X269641074Y-49422808D01*
X269688693Y-49446618D01*
X269807741Y-49446618D01*
X269855360Y-49422808D01*
X269879169Y-49398999D01*
X269902979Y-49351380D01*
X269902979Y-49232332D01*
X269879169Y-49184713D01*
X269855360Y-49160904D01*
D11*
%TO.C,SW1*%
X20467281Y-54020944D02*
X20514900Y-54163801D01*
X20514900Y-54401896D01*
X20467281Y-54497134D01*
X20419662Y-54544753D01*
X20324424Y-54592372D01*
X20229186Y-54592372D01*
X20133948Y-54544753D01*
X20086329Y-54497134D01*
X20038710Y-54401896D01*
X19991091Y-54211420D01*
X19943472Y-54116182D01*
X19895853Y-54068563D01*
X19800615Y-54020944D01*
X19705377Y-54020944D01*
X19610139Y-54068563D01*
X19562520Y-54116182D01*
X19514900Y-54211420D01*
X19514900Y-54449515D01*
X19562520Y-54592372D01*
X19514900Y-54925706D02*
X20514900Y-55163801D01*
X19800615Y-55354277D01*
X20514900Y-55544753D01*
X19514900Y-55782849D01*
X20610139Y-55925706D02*
X20610139Y-56687610D01*
X20514900Y-56925706D02*
X19514900Y-56925706D01*
X19514900Y-57306658D01*
X19562520Y-57401896D01*
X19610139Y-57449515D01*
X19705377Y-57497134D01*
X19848234Y-57497134D01*
X19943472Y-57449515D01*
X19991091Y-57401896D01*
X20038710Y-57306658D01*
X20038710Y-56925706D01*
X19514900Y-57925706D02*
X20324424Y-57925706D01*
X20419662Y-57973325D01*
X20467281Y-58020944D01*
X20514900Y-58116182D01*
X20514900Y-58306658D01*
X20467281Y-58401896D01*
X20419662Y-58449515D01*
X20324424Y-58497134D01*
X19514900Y-58497134D01*
X20467281Y-58925706D02*
X20514900Y-59068563D01*
X20514900Y-59306658D01*
X20467281Y-59401896D01*
X20419662Y-59449515D01*
X20324424Y-59497134D01*
X20229186Y-59497134D01*
X20133948Y-59449515D01*
X20086329Y-59401896D01*
X20038710Y-59306658D01*
X19991091Y-59116182D01*
X19943472Y-59020944D01*
X19895853Y-58973325D01*
X19800615Y-58925706D01*
X19705377Y-58925706D01*
X19610139Y-58973325D01*
X19562520Y-59020944D01*
X19514900Y-59116182D01*
X19514900Y-59354277D01*
X19562520Y-59497134D01*
X20514900Y-59925706D02*
X19514900Y-59925706D01*
X19991091Y-59925706D02*
X19991091Y-60497134D01*
X20514900Y-60497134D02*
X19514900Y-60497134D01*
X27967281Y-55949515D02*
X28014900Y-56092372D01*
X28014900Y-56330468D01*
X27967281Y-56425706D01*
X27919662Y-56473325D01*
X27824424Y-56520944D01*
X27729186Y-56520944D01*
X27633948Y-56473325D01*
X27586329Y-56425706D01*
X27538710Y-56330468D01*
X27491091Y-56139991D01*
X27443472Y-56044753D01*
X27395853Y-55997134D01*
X27300615Y-55949515D01*
X27205377Y-55949515D01*
X27110139Y-55997134D01*
X27062520Y-56044753D01*
X27014900Y-56139991D01*
X27014900Y-56378087D01*
X27062520Y-56520944D01*
X27014900Y-56854277D02*
X28014900Y-57092372D01*
X27300615Y-57282849D01*
X28014900Y-57473325D01*
X27014900Y-57711420D01*
X28014900Y-58616182D02*
X28014900Y-58044753D01*
X28014900Y-58330468D02*
X27014900Y-58330468D01*
X27157758Y-58235229D01*
X27252996Y-58139991D01*
X27300615Y-58044753D01*
D10*
%TO.C,D46*%
X273474857Y-48208523D02*
X272974857Y-48208523D01*
X272974857Y-48327570D01*
X272998667Y-48398999D01*
X273046286Y-48446618D01*
X273093905Y-48470427D01*
X273189143Y-48494237D01*
X273260571Y-48494237D01*
X273355809Y-48470427D01*
X273403428Y-48446618D01*
X273451047Y-48398999D01*
X273474857Y-48327570D01*
X273474857Y-48208523D01*
X273141524Y-48922808D02*
X273474857Y-48922808D01*
X272951047Y-48803761D02*
X273308190Y-48684713D01*
X273308190Y-48994237D01*
X272974857Y-49398999D02*
X272974857Y-49303761D01*
X272998667Y-49256142D01*
X273022476Y-49232332D01*
X273093905Y-49184713D01*
X273189143Y-49160904D01*
X273379619Y-49160904D01*
X273427238Y-49184713D01*
X273451047Y-49208523D01*
X273474857Y-49256142D01*
X273474857Y-49351380D01*
X273451047Y-49398999D01*
X273427238Y-49422808D01*
X273379619Y-49446618D01*
X273260571Y-49446618D01*
X273212952Y-49422808D01*
X273189143Y-49398999D01*
X273165333Y-49351380D01*
X273165333Y-49256142D01*
X273189143Y-49208523D01*
X273212952Y-49184713D01*
X273260571Y-49160904D01*
%TO.C,D55*%
X146077875Y-67258539D02*
X145577875Y-67258539D01*
X145577875Y-67377586D01*
X145601685Y-67449015D01*
X145649304Y-67496634D01*
X145696923Y-67520443D01*
X145792161Y-67544253D01*
X145863589Y-67544253D01*
X145958827Y-67520443D01*
X146006446Y-67496634D01*
X146054065Y-67449015D01*
X146077875Y-67377586D01*
X146077875Y-67258539D01*
X145577875Y-67996634D02*
X145577875Y-67758539D01*
X145815970Y-67734729D01*
X145792161Y-67758539D01*
X145768351Y-67806158D01*
X145768351Y-67925205D01*
X145792161Y-67972824D01*
X145815970Y-67996634D01*
X145863589Y-68020443D01*
X145982637Y-68020443D01*
X146030256Y-67996634D01*
X146054065Y-67972824D01*
X146077875Y-67925205D01*
X146077875Y-67806158D01*
X146054065Y-67758539D01*
X146030256Y-67734729D01*
X145577875Y-68472824D02*
X145577875Y-68234729D01*
X145815970Y-68210920D01*
X145792161Y-68234729D01*
X145768351Y-68282348D01*
X145768351Y-68401396D01*
X145792161Y-68449015D01*
X145815970Y-68472824D01*
X145863589Y-68496634D01*
X145982637Y-68496634D01*
X146030256Y-68472824D01*
X146054065Y-68449015D01*
X146077875Y-68401396D01*
X146077875Y-68282348D01*
X146054065Y-68234729D01*
X146030256Y-68210920D01*
%TO.C,D1*%
X17490267Y-10346586D02*
X16990267Y-10346586D01*
X16990267Y-10465634D01*
X17014077Y-10537062D01*
X17061696Y-10584681D01*
X17109315Y-10608491D01*
X17204553Y-10632300D01*
X17275981Y-10632300D01*
X17371219Y-10608491D01*
X17418838Y-10584681D01*
X17466457Y-10537062D01*
X17490267Y-10465634D01*
X17490267Y-10346586D01*
X17490267Y-11108491D02*
X17490267Y-10822776D01*
X17490267Y-10965634D02*
X16990267Y-10965634D01*
X17061696Y-10918014D01*
X17109315Y-10870395D01*
X17133124Y-10822776D01*
%TO.C,D77*%
X274665483Y-86308555D02*
X274165483Y-86308555D01*
X274165483Y-86427602D01*
X274189293Y-86499031D01*
X274236912Y-86546650D01*
X274284531Y-86570459D01*
X274379769Y-86594269D01*
X274451197Y-86594269D01*
X274546435Y-86570459D01*
X274594054Y-86546650D01*
X274641673Y-86499031D01*
X274665483Y-86427602D01*
X274665483Y-86308555D01*
X274165483Y-86760936D02*
X274165483Y-87094269D01*
X274665483Y-86879983D01*
X274165483Y-87237126D02*
X274165483Y-87570459D01*
X274665483Y-87356174D01*
%TO.C,D17*%
X17490267Y-29158507D02*
X16990267Y-29158507D01*
X16990267Y-29277554D01*
X17014077Y-29348983D01*
X17061696Y-29396602D01*
X17109315Y-29420411D01*
X17204553Y-29444221D01*
X17275981Y-29444221D01*
X17371219Y-29420411D01*
X17418838Y-29396602D01*
X17466457Y-29348983D01*
X17490267Y-29277554D01*
X17490267Y-29158507D01*
X17490267Y-29920411D02*
X17490267Y-29634697D01*
X17490267Y-29777554D02*
X16990267Y-29777554D01*
X17061696Y-29729935D01*
X17109315Y-29682316D01*
X17133124Y-29634697D01*
X16990267Y-30087078D02*
X16990267Y-30420411D01*
X17490267Y-30206126D01*
D14*
%TO.C,X1*%
X31459232Y-26826423D02*
X31325898Y-27026423D01*
X31325898Y-26826423D02*
X31459232Y-27026423D01*
X31278279Y-26826423D02*
X31163994Y-26826423D01*
X31221136Y-27026423D02*
X31221136Y-26826423D01*
X31106851Y-26969280D02*
X31011613Y-26969280D01*
X31125898Y-27026423D02*
X31059232Y-26826423D01*
X30992565Y-27026423D01*
X30830660Y-27026423D02*
X30925898Y-27026423D01*
X30925898Y-26826423D01*
X30811613Y-27045470D02*
X30659232Y-27045470D01*
X30506851Y-26835947D02*
X30525898Y-26826423D01*
X30554470Y-26826423D01*
X30583041Y-26835947D01*
X30602089Y-26854994D01*
X30611613Y-26874042D01*
X30621136Y-26912137D01*
X30621136Y-26940708D01*
X30611613Y-26978804D01*
X30602089Y-26997851D01*
X30583041Y-27016899D01*
X30554470Y-27026423D01*
X30535422Y-27026423D01*
X30506851Y-27016899D01*
X30497327Y-27007375D01*
X30497327Y-26940708D01*
X30535422Y-26940708D01*
X30411613Y-27026423D02*
X30411613Y-26826423D01*
X30297327Y-27026423D01*
X30297327Y-26826423D01*
X30202089Y-27026423D02*
X30202089Y-26826423D01*
X30154470Y-26826423D01*
X30125898Y-26835947D01*
X30106851Y-26854994D01*
X30097327Y-26874042D01*
X30087803Y-26912137D01*
X30087803Y-26940708D01*
X30097327Y-26978804D01*
X30106851Y-26997851D01*
X30125898Y-27016899D01*
X30154470Y-27026423D01*
X30202089Y-27026423D01*
D15*
X31154470Y-24757375D02*
X30754470Y-25357375D01*
X30754470Y-24757375D02*
X31154470Y-25357375D01*
X30211613Y-25357375D02*
X30554470Y-25357375D01*
X30383041Y-25357375D02*
X30383041Y-24757375D01*
X30440184Y-24843089D01*
X30497327Y-24900232D01*
X30554470Y-24928804D01*
D10*
%TO.C,D27*%
X227040443Y-29158507D02*
X226540443Y-29158507D01*
X226540443Y-29277554D01*
X226564253Y-29348983D01*
X226611872Y-29396602D01*
X226659491Y-29420411D01*
X226754729Y-29444221D01*
X226826157Y-29444221D01*
X226921395Y-29420411D01*
X226969014Y-29396602D01*
X227016633Y-29348983D01*
X227040443Y-29277554D01*
X227040443Y-29158507D01*
X226588062Y-29634697D02*
X226564253Y-29658507D01*
X226540443Y-29706126D01*
X226540443Y-29825173D01*
X226564253Y-29872792D01*
X226588062Y-29896602D01*
X226635681Y-29920411D01*
X226683300Y-29920411D01*
X226754729Y-29896602D01*
X227040443Y-29610888D01*
X227040443Y-29920411D01*
X226540443Y-30087078D02*
X226540443Y-30420411D01*
X227040443Y-30206126D01*
D11*
%TO.C,D7*%
X140389181Y-9515634D02*
X141789181Y-9515634D01*
X140389181Y-9515634D02*
X140389181Y-11915634D01*
X141789181Y-11915634D02*
X141789181Y-9515634D01*
X141789181Y-11915634D02*
X140389181Y-11915634D01*
%TO.C,D53*%
X108451653Y-69065682D02*
X107051653Y-69065682D01*
X107051653Y-66665682D02*
X108451653Y-66665682D01*
X108451653Y-69065682D02*
X108451653Y-66665682D01*
X107051653Y-66665682D02*
X107051653Y-69065682D01*
D13*
%TO.C,J3*%
X272430309Y-19954663D02*
X273137416Y-19454663D01*
X273137416Y-20454663D02*
X272430309Y-19954663D01*
X273137416Y-15454663D02*
X268887416Y-15454663D01*
X268887416Y-21454663D02*
X268887416Y-15454663D01*
X273137416Y-21454663D02*
X273137416Y-15454663D01*
X273137416Y-21454663D02*
X268887416Y-21454663D01*
D11*
%TO.C,D6*%
X122739165Y-11915634D02*
X122739165Y-9515634D01*
X122739165Y-11915634D02*
X121339165Y-11915634D01*
X121339165Y-9515634D02*
X122739165Y-9515634D01*
X121339165Y-9515634D02*
X121339165Y-11915634D01*
%TO.C,D20*%
X94164141Y-30965650D02*
X92764141Y-30965650D01*
X94164141Y-30965650D02*
X94164141Y-28565650D01*
X92764141Y-28565650D02*
X94164141Y-28565650D01*
X92764141Y-28565650D02*
X92764141Y-30965650D01*
%TO.C,D16*%
X316811203Y-11915634D02*
X315411203Y-11915634D01*
X315411203Y-9515634D02*
X315411203Y-11915634D01*
X315411203Y-9515634D02*
X316811203Y-9515634D01*
X316811203Y-11915634D02*
X316811203Y-9515634D01*
%TO.C,D26*%
X208464237Y-30965650D02*
X208464237Y-28565650D01*
X207064237Y-28565650D02*
X208464237Y-28565650D01*
X207064237Y-28565650D02*
X207064237Y-30965650D01*
X208464237Y-30965650D02*
X207064237Y-30965650D01*
%TO.C,D42*%
X213226741Y-50015666D02*
X213226741Y-47615666D01*
X211826741Y-47615666D02*
X211826741Y-50015666D01*
X211826741Y-47615666D02*
X213226741Y-47615666D01*
X213226741Y-50015666D02*
X211826741Y-50015666D01*
%TO.C,D78*%
X292789309Y-85715698D02*
X294189309Y-85715698D01*
X294189309Y-88115698D02*
X292789309Y-88115698D01*
X292789309Y-85715698D02*
X292789309Y-88115698D01*
X294189309Y-88115698D02*
X294189309Y-85715698D01*
D13*
%TO.C,R102*%
X275654606Y-11715634D02*
X275654606Y-9715634D01*
X274414606Y-9715634D02*
X274414606Y-11715634D01*
X275654606Y-9715634D02*
X274414606Y-9715634D01*
X274414606Y-11715634D02*
X275654606Y-11715634D01*
D11*
%TO.C,D75*%
X220161123Y-85715698D02*
X220161123Y-88115698D01*
X221561123Y-88115698D02*
X220161123Y-88115698D01*
X220161123Y-85715698D02*
X221561123Y-85715698D01*
X221561123Y-88115698D02*
X221561123Y-85715698D01*
%TO.C,D15*%
X311839325Y-9515634D02*
X311839325Y-11915634D01*
X313239325Y-11915634D02*
X313239325Y-9515634D01*
X311839325Y-9515634D02*
X313239325Y-9515634D01*
X313239325Y-11915634D02*
X311839325Y-11915634D01*
%TO.C,D31*%
X256089277Y-11915634D02*
X254689277Y-11915634D01*
X254689277Y-9515634D02*
X256089277Y-9515634D01*
X256089277Y-11915634D02*
X256089277Y-9515634D01*
X254689277Y-9515634D02*
X254689277Y-11915634D01*
%TO.C,D76*%
X277311171Y-85715698D02*
X277311171Y-88115698D01*
X278711171Y-88115698D02*
X278711171Y-85715698D01*
X278711171Y-88115698D02*
X277311171Y-88115698D01*
X277311171Y-85715698D02*
X278711171Y-85715698D01*
%TO.C,D72*%
X166582953Y-85715698D02*
X166582953Y-88115698D01*
X166582953Y-85715698D02*
X167982953Y-85715698D01*
X167982953Y-88115698D02*
X167982953Y-85715698D01*
X167982953Y-88115698D02*
X166582953Y-88115698D01*
%TO.C,D66*%
X49901605Y-85715698D02*
X49901605Y-88115698D01*
X51301605Y-88115698D02*
X51301605Y-85715698D01*
X51301605Y-88115698D02*
X49901605Y-88115698D01*
X49901605Y-85715698D02*
X51301605Y-85715698D01*
%TO.C,D68*%
X96545393Y-88115698D02*
X96545393Y-85715698D01*
X96545393Y-88115698D02*
X95145393Y-88115698D01*
X95145393Y-85715698D02*
X96545393Y-85715698D01*
X95145393Y-85715698D02*
X95145393Y-88115698D01*
%TO.C,D41*%
X192776725Y-47615666D02*
X192776725Y-50015666D01*
X194176725Y-50015666D02*
X192776725Y-50015666D01*
X194176725Y-50015666D02*
X194176725Y-47615666D01*
X192776725Y-47615666D02*
X194176725Y-47615666D01*
%TO.C,D65*%
X16564077Y-85715698D02*
X17964077Y-85715698D01*
X16564077Y-85715698D02*
X16564077Y-88115698D01*
X17964077Y-88115698D02*
X16564077Y-88115698D01*
X17964077Y-88115698D02*
X17964077Y-85715698D01*
D13*
%TO.C,F1*%
X272628667Y-4357817D02*
X272628667Y-6357817D01*
X272628667Y-6357817D02*
X273868667Y-6357817D01*
X273868667Y-4357817D02*
X272628667Y-4357817D01*
X273868667Y-6357817D02*
X273868667Y-4357817D01*
D11*
%TO.C,D11*%
X216589245Y-9515634D02*
X216589245Y-11915634D01*
X216589245Y-9515634D02*
X217989245Y-9515634D01*
X217989245Y-11915634D02*
X217989245Y-9515634D01*
X217989245Y-11915634D02*
X216589245Y-11915634D01*
%TO.C,D49*%
X16564077Y-66665682D02*
X16564077Y-69065682D01*
X16564077Y-66665682D02*
X17964077Y-66665682D01*
X17964077Y-69065682D02*
X16564077Y-69065682D01*
X17964077Y-69065682D02*
X17964077Y-66665682D01*
%TO.C,D9*%
X179889213Y-11915634D02*
X179889213Y-9515634D01*
X178489213Y-9515634D02*
X179889213Y-9515634D01*
X179889213Y-11915634D02*
X178489213Y-11915634D01*
X178489213Y-9515634D02*
X178489213Y-11915634D01*
D13*
%TO.C,C101*%
X20623748Y-40209398D02*
X20623748Y-42209398D01*
X21863748Y-40209398D02*
X20623748Y-40209398D01*
X21863748Y-42209398D02*
X21863748Y-40209398D01*
X20623748Y-42209398D02*
X21863748Y-42209398D01*
D11*
%TO.C,D5*%
X102289149Y-9515634D02*
X103689149Y-9515634D01*
X102289149Y-9515634D02*
X102289149Y-11915634D01*
X103689149Y-11915634D02*
X102289149Y-11915634D01*
X103689149Y-11915634D02*
X103689149Y-9515634D01*
%TO.C,D47*%
X301333065Y-50015666D02*
X301333065Y-47615666D01*
X299933065Y-47615666D02*
X301333065Y-47615666D01*
X301333065Y-50015666D02*
X299933065Y-50015666D01*
X299933065Y-47615666D02*
X299933065Y-50015666D01*
%TO.C,U1*%
X26768756Y-41446894D02*
X35768756Y-41446894D01*
X25768756Y-31446894D02*
X25768756Y-40446894D01*
X35768756Y-41446894D02*
X35768756Y-31446894D01*
X35768756Y-31446894D02*
X25768756Y-31446894D01*
X25768756Y-40446894D02*
X26768756Y-41446894D01*
%TO.C,D67*%
X79876629Y-88115698D02*
X78476629Y-88115698D01*
X78476629Y-85715698D02*
X79876629Y-85715698D01*
X78476629Y-85715698D02*
X78476629Y-88115698D01*
X79876629Y-88115698D02*
X79876629Y-85715698D01*
D13*
%TO.C,J2*%
X6718114Y-38391581D02*
X13068114Y-38391581D01*
X6718114Y-33311581D02*
X6718114Y-38391581D01*
X14338114Y-37121581D02*
X14338114Y-33311581D01*
X14338114Y-33311581D02*
X6718114Y-33311581D01*
X13068114Y-38391581D02*
X14338114Y-37121581D01*
D11*
%TO.C,D50*%
X68951621Y-66665682D02*
X68951621Y-69065682D01*
X70351621Y-69065682D02*
X70351621Y-66665682D01*
X70351621Y-69065682D02*
X68951621Y-69065682D01*
X68951621Y-66665682D02*
X70351621Y-66665682D01*
%TO.C,D48*%
X315411203Y-47615666D02*
X316811203Y-47615666D01*
X316811203Y-50015666D02*
X316811203Y-47615666D01*
X315411203Y-47615666D02*
X315411203Y-50015666D01*
X316811203Y-50015666D02*
X315411203Y-50015666D01*
%TO.C,D14*%
X259661155Y-11915634D02*
X258261155Y-11915634D01*
X258261155Y-9515634D02*
X259661155Y-9515634D01*
X259661155Y-11915634D02*
X259661155Y-9515634D01*
X258261155Y-9515634D02*
X258261155Y-11915634D01*
%TO.C,J1*%
X279875000Y16075000D02*
X272575000Y16075000D01*
X279875000Y8925000D02*
X279875000Y10825000D01*
X272575000Y16075000D02*
X272575000Y13725000D01*
X272575000Y10825000D02*
X272575000Y8925000D01*
X279875000Y13725000D02*
X279875000Y16075000D01*
%TO.C,D4*%
X84639133Y-11915634D02*
X83239133Y-11915634D01*
X83239133Y-9515634D02*
X84639133Y-9515634D01*
X84639133Y-11915634D02*
X84639133Y-9515634D01*
X83239133Y-9515634D02*
X83239133Y-11915634D01*
%TO.C,D62*%
X287045553Y-69065682D02*
X287045553Y-66665682D01*
X285645553Y-66665682D02*
X285645553Y-69065682D01*
X287045553Y-69065682D02*
X285645553Y-69065682D01*
X285645553Y-66665682D02*
X287045553Y-66665682D01*
%TO.C,D79*%
X313239325Y-88115698D02*
X313239325Y-85715698D01*
X311839325Y-85715698D02*
X311839325Y-88115698D01*
X313239325Y-88115698D02*
X311839325Y-88115698D01*
X311839325Y-85715698D02*
X313239325Y-85715698D01*
%TO.C,D24*%
X168964205Y-28565650D02*
X170364205Y-28565650D01*
X170364205Y-30965650D02*
X168964205Y-30965650D01*
X168964205Y-28565650D02*
X168964205Y-30965650D01*
X170364205Y-30965650D02*
X170364205Y-28565650D01*
D13*
%TO.C,R105*%
X16644077Y-4953130D02*
X16644077Y-6953130D01*
X16644077Y-6953130D02*
X17884077Y-6953130D01*
X17884077Y-4953130D02*
X16644077Y-4953130D01*
X17884077Y-6953130D02*
X17884077Y-4953130D01*
%TO.C,C106*%
X16076557Y-41234085D02*
X18076557Y-41234085D01*
X16076557Y-39994085D02*
X16076557Y-41234085D01*
X18076557Y-41234085D02*
X18076557Y-39994085D01*
X18076557Y-39994085D02*
X16076557Y-39994085D01*
D11*
%TO.C,D80*%
X316811203Y-88115698D02*
X315411203Y-88115698D01*
X316811203Y-88115698D02*
X316811203Y-85715698D01*
X315411203Y-85715698D02*
X316811203Y-85715698D01*
X315411203Y-85715698D02*
X315411203Y-88115698D01*
%TO.C,D25*%
X188014221Y-28565650D02*
X188014221Y-30965650D01*
X188014221Y-28565650D02*
X189414221Y-28565650D01*
X189414221Y-30965650D02*
X189414221Y-28565650D01*
X189414221Y-30965650D02*
X188014221Y-30965650D01*
%TO.C,D33*%
X17964077Y-50015666D02*
X17964077Y-47615666D01*
X17964077Y-50015666D02*
X16564077Y-50015666D01*
X16564077Y-47615666D02*
X17964077Y-47615666D01*
X16564077Y-47615666D02*
X16564077Y-50015666D01*
%TO.C,D35*%
X78476629Y-47615666D02*
X79876629Y-47615666D01*
X78476629Y-47615666D02*
X78476629Y-50015666D01*
X79876629Y-50015666D02*
X79876629Y-47615666D01*
X79876629Y-50015666D02*
X78476629Y-50015666D01*
%TO.C,D52*%
X88001637Y-66665682D02*
X88001637Y-69065682D01*
X88001637Y-66665682D02*
X89401637Y-66665682D01*
X89401637Y-69065682D02*
X89401637Y-66665682D01*
X89401637Y-69065682D02*
X88001637Y-69065682D01*
%TO.C,D40*%
X173726709Y-47615666D02*
X173726709Y-50015666D01*
X173726709Y-47615666D02*
X175126709Y-47615666D01*
X175126709Y-50015666D02*
X175126709Y-47615666D01*
X175126709Y-50015666D02*
X173726709Y-50015666D01*
%TO.C,D32*%
X315411203Y-28565650D02*
X315411203Y-30965650D01*
X316811203Y-30965650D02*
X315411203Y-30965650D01*
X316811203Y-30965650D02*
X316811203Y-28565650D01*
X315411203Y-28565650D02*
X316811203Y-28565650D01*
%TO.C,D23*%
X149914189Y-28565650D02*
X151314189Y-28565650D01*
X151314189Y-30965650D02*
X149914189Y-30965650D01*
X149914189Y-28565650D02*
X149914189Y-30965650D01*
X151314189Y-30965650D02*
X151314189Y-28565650D01*
D13*
%TO.C,C102*%
X27221565Y-48757841D02*
X27221565Y-46757841D01*
X25981565Y-46757841D02*
X25981565Y-48757841D01*
X25981565Y-48757841D02*
X27221565Y-48757841D01*
X27221565Y-46757841D02*
X25981565Y-46757841D01*
D11*
%TO.C,D30*%
X283264301Y-28565650D02*
X284664301Y-28565650D01*
X284664301Y-30965650D02*
X284664301Y-28565650D01*
X284664301Y-30965650D02*
X283264301Y-30965650D01*
X283264301Y-28565650D02*
X283264301Y-30965650D01*
D13*
%TO.C,U2*%
X275920545Y-4457817D02*
X275270545Y-5107817D01*
X278370545Y-6257817D02*
X278370545Y-4457817D01*
X275270545Y-6257817D02*
X278370545Y-6257817D01*
X275920545Y-4457817D02*
X278370545Y-4457817D01*
X275270545Y-6257817D02*
X275270545Y-5107817D01*
%TO.C,C105*%
X33720634Y-12825000D02*
X33720634Y-14825000D01*
X34960634Y-12825000D02*
X33720634Y-12825000D01*
X33720634Y-14825000D02*
X34960634Y-14825000D01*
X34960634Y-14825000D02*
X34960634Y-12825000D01*
D11*
%TO.C,D56*%
X164201701Y-66665682D02*
X164201701Y-69065682D01*
X165601701Y-69065682D02*
X164201701Y-69065682D01*
X164201701Y-66665682D02*
X165601701Y-66665682D01*
X165601701Y-69065682D02*
X165601701Y-66665682D01*
%TO.C,D51*%
X73923499Y-69065682D02*
X73923499Y-66665682D01*
X72523499Y-66665682D02*
X73923499Y-66665682D01*
X72523499Y-66665682D02*
X72523499Y-69065682D01*
X73923499Y-69065682D02*
X72523499Y-69065682D01*
%TO.C,D22*%
X130864173Y-28565650D02*
X130864173Y-30965650D01*
X130864173Y-28565650D02*
X132264173Y-28565650D01*
X132264173Y-30965650D02*
X130864173Y-30965650D01*
X132264173Y-30965650D02*
X132264173Y-28565650D01*
%TO.C,D8*%
X159439197Y-9515634D02*
X160839197Y-9515634D01*
X159439197Y-9515634D02*
X159439197Y-11915634D01*
X160839197Y-11915634D02*
X159439197Y-11915634D01*
X160839197Y-11915634D02*
X160839197Y-9515634D01*
%TO.C,D12*%
X235639261Y-9515634D02*
X237039261Y-9515634D01*
X237039261Y-11915634D02*
X235639261Y-11915634D01*
X237039261Y-11915634D02*
X237039261Y-9515634D01*
X235639261Y-9515634D02*
X235639261Y-11915634D01*
D13*
%TO.C,C103*%
X46437520Y-40043459D02*
X48437520Y-40043459D01*
X48437520Y-40043459D02*
X48437520Y-38803459D01*
X46437520Y-38803459D02*
X46437520Y-40043459D01*
X48437520Y-38803459D02*
X46437520Y-38803459D01*
D11*
%TO.C,D63*%
X311839325Y-66665682D02*
X313239325Y-66665682D01*
X313239325Y-69065682D02*
X313239325Y-66665682D01*
X313239325Y-69065682D02*
X311839325Y-69065682D01*
X311839325Y-66665682D02*
X311839325Y-69065682D01*
D16*
%TO.C,RGB2*%
X25425000Y-15425000D02*
X25425000Y-12225000D01*
X21825000Y-15425000D02*
X25425000Y-15425000D01*
X25425000Y-12225000D02*
X22425000Y-12225000D01*
X21825000Y-12825000D02*
X21825000Y-15425000D01*
X22425000Y-12225000D02*
X21825000Y-12825000D01*
D13*
%TO.C,C108*%
X29602817Y-14825000D02*
X29602817Y-12825000D01*
X28362817Y-14825000D02*
X29602817Y-14825000D01*
X29602817Y-12825000D02*
X28362817Y-12825000D01*
X28362817Y-12825000D02*
X28362817Y-14825000D01*
%TO.C,R104*%
X42270329Y-37612833D02*
X42270329Y-38852833D01*
X44270329Y-37612833D02*
X42270329Y-37612833D01*
X42270329Y-38852833D02*
X44270329Y-38852833D01*
X44270329Y-38852833D02*
X44270329Y-37612833D01*
D11*
%TO.C,D54*%
X127501669Y-69065682D02*
X126101669Y-69065682D01*
X127501669Y-69065682D02*
X127501669Y-66665682D01*
X126101669Y-66665682D02*
X126101669Y-69065682D01*
X126101669Y-66665682D02*
X127501669Y-66665682D01*
%TO.C,D39*%
X156076693Y-50015666D02*
X156076693Y-47615666D01*
X154676693Y-47615666D02*
X156076693Y-47615666D01*
X156076693Y-50015666D02*
X154676693Y-50015666D01*
X154676693Y-47615666D02*
X154676693Y-50015666D01*
D13*
%TO.C,R101*%
X276795858Y-11715634D02*
X278035858Y-11715634D01*
X278035858Y-9715634D02*
X276795858Y-9715634D01*
X278035858Y-11715634D02*
X278035858Y-9715634D01*
X276795858Y-9715634D02*
X276795858Y-11715634D01*
D11*
%TO.C,D43*%
X230876757Y-47615666D02*
X232276757Y-47615666D01*
X232276757Y-50015666D02*
X230876757Y-50015666D01*
X230876757Y-47615666D02*
X230876757Y-50015666D01*
X232276757Y-50015666D02*
X232276757Y-47615666D01*
D13*
%TO.C,C104*%
X46437520Y-32255016D02*
X46437520Y-33495016D01*
X48437520Y-32255016D02*
X46437520Y-32255016D01*
X48437520Y-33495016D02*
X48437520Y-32255016D01*
X46437520Y-33495016D02*
X48437520Y-33495016D01*
D11*
%TO.C,D13*%
X239211139Y-9515634D02*
X239211139Y-11915634D01*
X239211139Y-9515634D02*
X240611139Y-9515634D01*
X240611139Y-11915634D02*
X240611139Y-9515634D01*
X240611139Y-11915634D02*
X239211139Y-11915634D01*
%TO.C,D10*%
X198939229Y-11915634D02*
X198939229Y-9515634D01*
X197539229Y-9515634D02*
X198939229Y-9515634D01*
X197539229Y-9515634D02*
X197539229Y-11915634D01*
X198939229Y-11915634D02*
X197539229Y-11915634D01*
D13*
%TO.C,C107*%
X28362817Y-6425000D02*
X28362817Y-8425000D01*
X29602817Y-8425000D02*
X29602817Y-6425000D01*
X29602817Y-6425000D02*
X28362817Y-6425000D01*
X28362817Y-8425000D02*
X29602817Y-8425000D01*
D11*
%TO.C,D19*%
X75114125Y-30965650D02*
X73714125Y-30965650D01*
X73714125Y-28565650D02*
X75114125Y-28565650D01*
X75114125Y-30965650D02*
X75114125Y-28565650D01*
X73714125Y-28565650D02*
X73714125Y-30965650D01*
%TO.C,D28*%
X245164269Y-28565650D02*
X245164269Y-30965650D01*
X245164269Y-28565650D02*
X246564269Y-28565650D01*
X246564269Y-30965650D02*
X245164269Y-30965650D01*
X246564269Y-30965650D02*
X246564269Y-28565650D01*
%TO.C,D29*%
X264214285Y-28565650D02*
X265614285Y-28565650D01*
X265614285Y-30965650D02*
X264214285Y-30965650D01*
X265614285Y-30965650D02*
X265614285Y-28565650D01*
X264214285Y-28565650D02*
X264214285Y-30965650D01*
%TO.C,D59*%
X222751749Y-69065682D02*
X221351749Y-69065682D01*
X221351749Y-66665682D02*
X222751749Y-66665682D01*
X221351749Y-66665682D02*
X221351749Y-69065682D01*
X222751749Y-69065682D02*
X222751749Y-66665682D01*
%TO.C,D44*%
X249926773Y-47615666D02*
X251326773Y-47615666D01*
X251326773Y-50015666D02*
X251326773Y-47615666D01*
X249926773Y-47615666D02*
X249926773Y-50015666D01*
X251326773Y-50015666D02*
X249926773Y-50015666D01*
%TO.C,D61*%
X260851781Y-69065682D02*
X260851781Y-66665682D01*
X259451781Y-66665682D02*
X259451781Y-69065682D01*
X260851781Y-69065682D02*
X259451781Y-69065682D01*
X259451781Y-66665682D02*
X260851781Y-66665682D01*
%TO.C,D18*%
X51301605Y-30965650D02*
X49901605Y-30965650D01*
X51301605Y-30965650D02*
X51301605Y-28565650D01*
X49901605Y-28565650D02*
X49901605Y-30965650D01*
X49901605Y-28565650D02*
X51301605Y-28565650D01*
%TO.C,D58*%
X202301733Y-66665682D02*
X203701733Y-66665682D01*
X202301733Y-66665682D02*
X202301733Y-69065682D01*
X203701733Y-69065682D02*
X203701733Y-66665682D01*
X203701733Y-69065682D02*
X202301733Y-69065682D01*
%TO.C,D57*%
X184651717Y-69065682D02*
X183251717Y-69065682D01*
X184651717Y-69065682D02*
X184651717Y-66665682D01*
X183251717Y-66665682D02*
X183251717Y-69065682D01*
X183251717Y-66665682D02*
X184651717Y-66665682D01*
%TO.C,D34*%
X52282857Y-47615666D02*
X53682857Y-47615666D01*
X52282857Y-47615666D02*
X52282857Y-50015666D01*
X53682857Y-50015666D02*
X53682857Y-47615666D01*
X53682857Y-50015666D02*
X52282857Y-50015666D01*
%TO.C,D37*%
X117976661Y-50015666D02*
X116576661Y-50015666D01*
X116576661Y-47615666D02*
X116576661Y-50015666D01*
X117976661Y-50015666D02*
X117976661Y-47615666D01*
X116576661Y-47615666D02*
X117976661Y-47615666D01*
%TO.C,D36*%
X97526645Y-47615666D02*
X98926645Y-47615666D01*
X97526645Y-47615666D02*
X97526645Y-50015666D01*
X98926645Y-50015666D02*
X97526645Y-50015666D01*
X98926645Y-50015666D02*
X98926645Y-47615666D01*
%TO.C,D38*%
X135626677Y-47615666D02*
X135626677Y-50015666D01*
X137026677Y-50015666D02*
X137026677Y-47615666D01*
X135626677Y-47615666D02*
X137026677Y-47615666D01*
X137026677Y-50015666D02*
X135626677Y-50015666D01*
%TO.C,D3*%
X65589117Y-11915634D02*
X65589117Y-9515634D01*
X65589117Y-11915634D02*
X64189117Y-11915634D01*
X64189117Y-9515634D02*
X65589117Y-9515634D01*
X64189117Y-9515634D02*
X64189117Y-11915634D01*
D16*
%TO.C,RGB1*%
X25425000Y-5825000D02*
X22425000Y-5825000D01*
X21825000Y-9025000D02*
X25425000Y-9025000D01*
X22425000Y-5825000D02*
X21825000Y-6425000D01*
X21825000Y-6425000D02*
X21825000Y-9025000D01*
X25425000Y-9025000D02*
X25425000Y-5825000D01*
D11*
%TO.C,D60*%
X240401765Y-66665682D02*
X241801765Y-66665682D01*
X240401765Y-66665682D02*
X240401765Y-69065682D01*
X241801765Y-69065682D02*
X241801765Y-66665682D01*
X241801765Y-69065682D02*
X240401765Y-69065682D01*
%TO.C,D21*%
X111814157Y-28565650D02*
X113214157Y-28565650D01*
X113214157Y-30965650D02*
X111814157Y-30965650D01*
X111814157Y-28565650D02*
X111814157Y-30965650D01*
X113214157Y-30965650D02*
X113214157Y-28565650D01*
%TO.C,D2*%
X45139101Y-9515634D02*
X45139101Y-11915634D01*
X46539101Y-11915634D02*
X46539101Y-9515634D01*
X46539101Y-11915634D02*
X45139101Y-11915634D01*
X45139101Y-9515634D02*
X46539101Y-9515634D01*
%TO.C,D64*%
X315411203Y-66665682D02*
X316811203Y-66665682D01*
X316811203Y-69065682D02*
X316811203Y-66665682D01*
X316811203Y-69065682D02*
X315411203Y-69065682D01*
X315411203Y-66665682D02*
X315411203Y-69065682D01*
D13*
%TO.C,R103*%
X9528114Y-40638772D02*
X11528114Y-40638772D01*
X9528114Y-39398772D02*
X9528114Y-40638772D01*
X11528114Y-40638772D02*
X11528114Y-39398772D01*
X11528114Y-39398772D02*
X9528114Y-39398772D01*
D11*
%TO.C,D45*%
X268976789Y-47615666D02*
X268976789Y-50015666D01*
X270376789Y-50015666D02*
X270376789Y-47615666D01*
X268976789Y-47615666D02*
X270376789Y-47615666D01*
X270376789Y-50015666D02*
X268976789Y-50015666D01*
D13*
%TO.C,SW1*%
X26412520Y-58482849D02*
X25012520Y-59882849D01*
X21212520Y-56082849D02*
X22612520Y-54682849D01*
X21712520Y-58982849D02*
X21712520Y-60482849D01*
X21712520Y-60482849D02*
X22212520Y-60482849D01*
X22212520Y-60482849D02*
X22212520Y-59482849D01*
X25912520Y-60482849D02*
X25412520Y-60482849D01*
X25412520Y-54082849D02*
X25412520Y-55082849D01*
X21212520Y-58482849D02*
X21212520Y-56082849D01*
X25912520Y-54582849D02*
X25412520Y-54582849D01*
X25912520Y-55582849D02*
X25912520Y-54082849D01*
X21712520Y-59982849D02*
X22212520Y-59982849D01*
X21712520Y-55582849D02*
X21712520Y-54082849D01*
X25912520Y-59982849D02*
X25412520Y-59982849D01*
X25412520Y-60482849D02*
X25412520Y-59482849D01*
X25012520Y-59882849D02*
X22612520Y-59882849D01*
X21812520Y-56282849D02*
X21812520Y-58282849D01*
X25012520Y-54682849D02*
X26412520Y-56082849D01*
X25812520Y-56282849D02*
X24812520Y-55282849D01*
X24812520Y-55282849D02*
X22812520Y-55282849D01*
X21712520Y-54082849D02*
X22212520Y-54082849D01*
X22212520Y-54082849D02*
X22212520Y-55082849D01*
X22812520Y-59282849D02*
X24812520Y-59282849D01*
X21712520Y-54582849D02*
X22212520Y-54582849D01*
X24812520Y-59282849D02*
X25812520Y-58282849D01*
X26412520Y-56082849D02*
X26412520Y-58482849D01*
X21812520Y-58282849D02*
X22812520Y-59282849D01*
X22812520Y-55282849D02*
X21812520Y-56282849D01*
X22612520Y-54682849D02*
X25012520Y-54682849D01*
X25812520Y-58282849D02*
X25812520Y-56282849D01*
X25912520Y-54082849D02*
X25412520Y-54082849D01*
X22612520Y-59882849D02*
X21212520Y-58482849D01*
X25912520Y-58982849D02*
X25912520Y-60482849D01*
X24812520Y-57282849D02*
G75*
G03*
X24812520Y-57282849I-1000000J0D01*
G01*
D11*
%TO.C,D46*%
X273948667Y-50015666D02*
X272548667Y-50015666D01*
X272548667Y-47615666D02*
X272548667Y-50015666D01*
X273948667Y-50015666D02*
X273948667Y-47615666D01*
X272548667Y-47615666D02*
X273948667Y-47615666D01*
%TO.C,D55*%
X145151685Y-66665682D02*
X146551685Y-66665682D01*
X146551685Y-69065682D02*
X146551685Y-66665682D01*
X145151685Y-66665682D02*
X145151685Y-69065682D01*
X146551685Y-69065682D02*
X145151685Y-69065682D01*
%TO.C,D1*%
X16564077Y-9515634D02*
X16564077Y-11915634D01*
X16564077Y-9515634D02*
X17964077Y-9515634D01*
X17964077Y-11915634D02*
X17964077Y-9515634D01*
X17964077Y-11915634D02*
X16564077Y-11915634D01*
%TO.C,D77*%
X273739293Y-85715698D02*
X273739293Y-88115698D01*
X273739293Y-85715698D02*
X275139293Y-85715698D01*
X275139293Y-88115698D02*
X275139293Y-85715698D01*
X275139293Y-88115698D02*
X273739293Y-88115698D01*
%TO.C,D17*%
X16564077Y-28565650D02*
X16564077Y-30965650D01*
X17964077Y-30965650D02*
X16564077Y-30965650D01*
X17964077Y-30965650D02*
X17964077Y-28565650D01*
X16564077Y-28565650D02*
X17964077Y-28565650D01*
D13*
%TO.C,X1*%
X29018756Y-25935947D02*
X29018756Y-24335947D01*
X29018756Y-24335947D02*
X32518756Y-24335947D01*
X32018756Y-25935947D02*
X32518756Y-25435947D01*
X32518756Y-25435947D02*
X32518756Y-24335947D01*
X32018756Y-25935947D02*
X29018756Y-25935947D01*
D11*
%TO.C,D27*%
X227514253Y-30965650D02*
X227514253Y-28565650D01*
X226114253Y-28565650D02*
X227514253Y-28565650D01*
X226114253Y-28565650D02*
X226114253Y-30965650D01*
X227514253Y-30965650D02*
X226114253Y-30965650D01*
%TD*%
M02*
