M48
; DRILL file {KiCad (5.99.0-12740-g895f4ca989)} date Sat Oct 23 17:36:30 2021
; FORMAT={-:-/ absolute / inch / decimal}
; #@! TF.CreationDate,2021-10-23T17:36:30+02:00
; #@! TF.GenerationSoftware,Kicad,Pcbnew,(5.99.0-12740-g895f4ca989)
; #@! TF.FileFunction,Plated,1,2,PTH
FMAT,2
INCH
; #@! TA.AperFunction,Plated,PTH,ViaDrill
T1C0.0157
; #@! TA.AperFunction,Plated,PTH,ComponentDrill
T2C0.0276
; #@! TA.AperFunction,Plated,PTH,ComponentDrill
T3C0.0335
; #@! TA.AperFunction,Plated,PTH,ComponentDrill
T4C0.0590
%
G90
G05
T1
X0.0938Y-1.2188
X0.1875Y-0.1172
X0.375Y-1.6406
X0.4922Y-2.0625
X0.5834Y-1.2191
X0.6311Y-1.3937
X0.7042Y-1.4052
X0.7192Y-1.6459
X0.7365Y-1.0365
X0.7709Y-1.9691
X0.7877Y-1.5305
X0.8906Y-1.1484
X0.8962Y-1.3001
X0.9067Y-1.3646
X0.9067Y-1.4349
X0.9067Y-1.4684
X0.9068Y-1.3297
X0.9145Y-1.4044
X0.977Y-1.8334
X1.0004Y-1.9271
X1.0074Y-1.2191
X1.0473Y-0.2162
X1.0473Y-0.6146
X1.0473Y-1.4584
X1.0473Y-1.5521
X1.0539Y-1.7696
X1.0634Y-1.2643
X1.0881Y-0.5738
X1.0942Y-1.2709
X1.0942Y-1.599
X1.0942Y-1.7396
X1.1411Y-1.1537
X1.1411Y-1.2709
X1.1879Y-0.3334
X1.2188Y-0.8438
X1.3286Y-1.599
X1.3754Y-1.2943
X1.3989Y-0.4974
X1.4037Y-1.9691
X1.4063Y-1.1016
X1.4531Y-0.8203
X1.4557Y-1.6593
X1.4878Y-1.2191
X1.5375Y-1.1791
X1.5864Y-1.2648
X1.7973Y-1.4892
X1.8207Y-1.2474
X1.8442Y-1.5052
X1.9848Y-1.2943
X1.9848Y-1.5521
X1.9922Y-0.7969
X2.0156Y-0.7734
X2.0387Y-0.4691
X2.0391Y-0.75
X2.0625Y-0.7266
X2.0629Y-3.4691
X2.1324Y-2.7191
X2.2972Y-1.9691
X2.6625Y-2.1126
X3.4125Y-2.0932
X4.1625Y-2.0892
X4.9125Y-2.0697
X5.6625Y-2.0423
X6.4125Y-2.0229
X6.975Y-1.4798
X7.725Y-1.4604
X8.475Y-1.4369
X9.225Y-1.4329
X9.975Y-1.4095
X10.0708Y-0.3099
X10.119Y-0.4634
X10.2534Y-0.4691
X10.5231Y-1.2191
X10.725Y-1.39
X10.7569Y-0.0886
X10.812Y-0.1333
X10.8277Y-0.7758
X10.8396Y-0.7364
X10.861Y-0.1267
X10.875Y-0.7031
X10.8842Y-0.3136
X10.8907Y-0.0574
X10.8907Y-0.0574
X10.9358Y-0.1267
X10.9773Y-0.6425
X10.9922Y-0.1406
X10.9945Y-0.0504
X11.3784Y-0.4691
X11.7125Y-1.2698
X11.8989Y-1.2709
X11.9063Y-1.875
X12.85Y-1.261
T3
X0.3145Y-1.3615
X0.3145Y-1.4615
X0.4145Y-1.3615
X0.4145Y-1.4615
X0.5145Y-1.3615
X0.5145Y-1.4615
T4
X0.225Y-0.275
X0.225Y-1.025
X0.225Y-1.775
X0.225Y-2.525
X0.225Y-3.275
X0.475Y-0.175
X0.475Y-0.925
X0.475Y-1.675
X0.475Y-2.425
X0.475Y-3.175
X1.35Y-0.275
X1.4437Y-1.775
X1.4437Y-2.525
X1.4437Y-3.275
X1.5375Y-1.025
X1.5375Y-3.275
X1.6Y-0.175
X1.6312Y-1.775
X1.6937Y-1.675
X1.6937Y-2.425
X1.6937Y-3.175
X1.7875Y-0.925
X1.7875Y-3.175
X1.8187Y-2.525
X1.8812Y-1.675
X2.0688Y-2.425
X2.1Y-0.275
X2.2875Y-2.525
X2.35Y-0.175
X2.3813Y-3.275
X2.475Y-1.025
X2.5375Y-2.425
X2.6313Y-3.175
X2.6625Y-1.775
X2.6625Y-3.275
X2.725Y-0.925
X2.85Y-0.275
X2.9125Y-1.675
X2.9125Y-3.175
X3.0375Y-2.525
X3.1Y-0.175
X3.225Y-1.025
X3.2875Y-2.425
X3.3188Y-3.275
X3.4125Y-1.775
X3.475Y-0.925
X3.5688Y-3.175
X3.6Y-0.275
X3.6625Y-1.675
X3.7875Y-2.525
X3.85Y-0.175
X3.975Y-1.025
X4.0375Y-2.425
X4.1625Y-1.775
X4.225Y-0.925
X4.35Y-0.275
X4.4125Y-1.675
X4.5375Y-2.525
X4.6Y-0.175
X4.725Y-1.025
X4.7875Y-2.425
X4.9125Y-1.775
X4.975Y-0.925
X5.1Y-0.275
X5.1625Y-1.675
X5.2875Y-2.525
X5.35Y-0.175
X5.475Y-1.025
X5.5375Y-2.425
X5.6625Y-1.775
X5.725Y-0.925
X5.85Y-0.275
X5.85Y-3.275
X5.9125Y-1.675
X6.0375Y-2.525
X6.1Y-0.175
X6.1Y-3.175
X6.1312Y-3.275
X6.225Y-1.025
X6.2875Y-2.425
X6.3812Y-3.175
X6.4125Y-1.775
X6.475Y-0.925
X6.6Y-0.275
X6.6625Y-1.675
X6.7875Y-2.525
X6.85Y-0.175
X6.975Y-1.025
X7.0375Y-2.425
X7.1625Y-1.775
X7.225Y-0.925
X7.35Y-0.275
X7.4125Y-1.675
X7.5375Y-2.525
X7.6Y-0.175
X7.725Y-1.025
X7.7875Y-2.425
X7.9125Y-1.775
X7.975Y-0.925
X8.1Y-0.275
X8.1625Y-1.675
X8.2875Y-2.525
X8.35Y-0.175
X8.475Y-1.025
X8.5375Y-2.425
X8.6625Y-1.775
X8.725Y-0.925
X8.85Y-0.275
X8.85Y-3.275
X8.9125Y-1.675
X8.9437Y-3.275
X9.0375Y-2.525
X9.0375Y-3.275
X9.1Y-0.175
X9.1Y-3.175
X9.1937Y-3.175
X9.225Y-1.025
X9.2875Y-2.425
X9.2875Y-3.175
X9.4125Y-1.775
X9.475Y-0.925
X9.6Y-0.275
X9.6Y-3.275
X9.6625Y-1.675
X9.7875Y-2.525
X9.85Y-0.175
X9.85Y-3.175
X9.8812Y-3.275
X9.975Y-1.025
X10.0375Y-2.425
X10.1312Y-3.175
X10.1625Y-1.775
X10.1625Y-3.275
X10.225Y-0.925
X10.35Y-0.275
X10.35Y-3.275
X10.4125Y-1.675
X10.4125Y-3.175
X10.6Y-0.175
X10.6Y-3.175
X10.725Y-1.025
X10.8187Y-2.525
X10.9125Y-1.775
X10.975Y-0.925
X11.0687Y-2.425
X11.1Y-0.275
X11.1Y-3.275
X11.1625Y-1.675
X11.35Y-0.175
X11.35Y-3.175
X11.3812Y-1.775
X11.475Y-0.275
X11.6312Y-1.675
X11.6625Y-1.025
X11.725Y-0.175
X11.7562Y-1.4
X11.85Y-0.275
X11.85Y-2.525
X11.85Y-3.275
X11.9125Y-0.925
X12.0062Y-1.3
X12.1Y-0.175
X12.1Y-2.425
X12.1Y-3.175
X12.6Y-0.275
X12.6Y-1.025
X12.6Y-1.775
X12.6Y-2.525
X12.6Y-3.275
X12.85Y-0.175
X12.85Y-0.925
X12.85Y-1.675
X12.85Y-2.425
X12.85Y-3.175
T2
G00X10.7313Y0.501
M15
G01X10.7313Y0.4656
M16
G05
G00X10.7313Y0.312
M15
G01X10.7313Y0.2766
M16
G05
G00X11.0187Y0.501
M15
G01X11.0187Y0.4656
M16
G05
G00X11.0187Y0.312
M15
G01X11.0187Y0.2766
M16
G05
T0
M30
