%TF.GenerationSoftware,KiCad,Pcbnew,(5.99.0-12740-g895f4ca989)*%
%TF.CreationDate,2021-10-23T17:36:28+02:00*%
%TF.ProjectId,mamooth,6d616d6f-6f74-4682-9e6b-696361645f70,rev?*%
%TF.SameCoordinates,Original*%
%TF.FileFunction,Legend,Bot*%
%TF.FilePolarity,Positive*%
%FSLAX46Y46*%
G04 Gerber Fmt 4.6, Leading zero omitted, Abs format (unit mm)*
G04 Created by KiCad (PCBNEW (5.99.0-12740-g895f4ca989)) date 2021-10-23 17:36:28*
%MOMM*%
%LPD*%
G01*
G04 APERTURE LIST*
%ADD10C,0.150000*%
%ADD11C,0.120000*%
G04 APERTURE END LIST*
D10*
%TO.C,J2*%
X6110494Y-34875390D02*
X5110494Y-34875390D01*
X6062875Y-35303961D02*
X6110494Y-35446819D01*
X6110494Y-35684914D01*
X6062875Y-35780152D01*
X6015256Y-35827771D01*
X5920018Y-35875390D01*
X5824780Y-35875390D01*
X5729542Y-35827771D01*
X5681923Y-35780152D01*
X5634304Y-35684914D01*
X5586685Y-35494438D01*
X5539066Y-35399200D01*
X5491447Y-35351581D01*
X5396209Y-35303961D01*
X5300971Y-35303961D01*
X5205733Y-35351581D01*
X5158114Y-35399200D01*
X5110494Y-35494438D01*
X5110494Y-35732533D01*
X5158114Y-35875390D01*
X6110494Y-36303961D02*
X5110494Y-36303961D01*
X5110494Y-36684914D01*
X5158114Y-36780152D01*
X5205733Y-36827771D01*
X5300971Y-36875390D01*
X5443828Y-36875390D01*
X5539066Y-36827771D01*
X5586685Y-36780152D01*
X5634304Y-36684914D01*
X5634304Y-36303961D01*
X16060494Y-37407295D02*
X16060494Y-36835866D01*
X16060494Y-37121581D02*
X15060494Y-37121581D01*
X15203352Y-37026342D01*
X15298590Y-36931104D01*
X15346209Y-36835866D01*
%TO.C,D7*%
X139989181Y-13215634D02*
X142189181Y-13215634D01*
X139989181Y-12915634D02*
X142189181Y-12915634D01*
X139989181Y-8515634D02*
X139989181Y-12915634D01*
X142189181Y-12915634D02*
X142189181Y-8515634D01*
X142189181Y-13215634D02*
X142189181Y-12915634D01*
X142189181Y-13015634D02*
X139989181Y-13015634D01*
X142189181Y-13215634D02*
X139989181Y-13215634D01*
X142189181Y-12915634D02*
X142189181Y-13015634D01*
X139989181Y-13215634D02*
X139989181Y-12715634D01*
X139989181Y-13115634D02*
X142189181Y-13115634D01*
X142189181Y-13115634D02*
X142189181Y-13215634D01*
X139989181Y-13015634D02*
X139989181Y-13115634D01*
X142189181Y-8515634D02*
X139989181Y-8515634D01*
X139989181Y-12715634D02*
X139989181Y-13215634D01*
%TO.C,D53*%
X106651653Y-70365682D02*
X106651653Y-69865682D01*
X106651653Y-69865682D02*
X106651653Y-70365682D01*
X108851653Y-70165682D02*
X106651653Y-70165682D01*
X106651653Y-70265682D02*
X108851653Y-70265682D01*
X106651653Y-70065682D02*
X108851653Y-70065682D01*
X106651653Y-70365682D02*
X108851653Y-70365682D01*
X106651653Y-70165682D02*
X106651653Y-70265682D01*
X108851653Y-70065682D02*
X108851653Y-70165682D01*
X108851653Y-70365682D02*
X106651653Y-70365682D01*
X108851653Y-70365682D02*
X108851653Y-70065682D01*
X108851653Y-70065682D02*
X108851653Y-65665682D01*
X106651653Y-65665682D02*
X106651653Y-70065682D01*
X108851653Y-70265682D02*
X108851653Y-70365682D01*
X108851653Y-65665682D02*
X106651653Y-65665682D01*
D11*
%TO.C,J3*%
X270747416Y-15344663D02*
X273247416Y-15344663D01*
X273247416Y-20514663D02*
X274237416Y-20514663D01*
X273247416Y-21564663D02*
X273247416Y-20514663D01*
X270747416Y-21564663D02*
X273247416Y-21564663D01*
X268777416Y-20394663D02*
X268777416Y-16514663D01*
X273247416Y-15344663D02*
X273247416Y-16394663D01*
D10*
%TO.C,D6*%
X123139165Y-13115634D02*
X123139165Y-13215634D01*
X120939165Y-13115634D02*
X123139165Y-13115634D01*
X120939165Y-8515634D02*
X120939165Y-12915634D01*
X120939165Y-13215634D02*
X123139165Y-13215634D01*
X123139165Y-12915634D02*
X123139165Y-13015634D01*
X120939165Y-12915634D02*
X123139165Y-12915634D01*
X120939165Y-13015634D02*
X120939165Y-13115634D01*
X123139165Y-13215634D02*
X123139165Y-12915634D01*
X123139165Y-13015634D02*
X120939165Y-13015634D01*
X123139165Y-13215634D02*
X120939165Y-13215634D01*
X123139165Y-12915634D02*
X123139165Y-8515634D01*
X120939165Y-12715634D02*
X120939165Y-13215634D01*
X120939165Y-13215634D02*
X120939165Y-12715634D01*
X123139165Y-8515634D02*
X120939165Y-8515634D01*
%TO.C,D20*%
X92364141Y-31965650D02*
X94564141Y-31965650D01*
X94564141Y-27565650D02*
X92364141Y-27565650D01*
X92364141Y-32265650D02*
X92364141Y-31765650D01*
X94564141Y-31965650D02*
X94564141Y-32065650D01*
X94564141Y-32165650D02*
X94564141Y-32265650D01*
X92364141Y-32165650D02*
X94564141Y-32165650D01*
X92364141Y-32265650D02*
X94564141Y-32265650D01*
X92364141Y-31765650D02*
X92364141Y-32265650D01*
X94564141Y-32065650D02*
X92364141Y-32065650D01*
X94564141Y-31965650D02*
X94564141Y-27565650D01*
X92364141Y-27565650D02*
X92364141Y-31965650D01*
X94564141Y-32265650D02*
X94564141Y-31965650D01*
X94564141Y-32265650D02*
X92364141Y-32265650D01*
X92364141Y-32065650D02*
X92364141Y-32165650D01*
%TO.C,D16*%
X317211203Y-13215634D02*
X315011203Y-13215634D01*
X315011203Y-12715634D02*
X315011203Y-13215634D01*
X317211203Y-12915634D02*
X317211203Y-8515634D01*
X317211203Y-12915634D02*
X317211203Y-13015634D01*
X317211203Y-8515634D02*
X315011203Y-8515634D01*
X315011203Y-13215634D02*
X317211203Y-13215634D01*
X317211203Y-13215634D02*
X317211203Y-12915634D01*
X317211203Y-13015634D02*
X315011203Y-13015634D01*
X315011203Y-12915634D02*
X317211203Y-12915634D01*
X315011203Y-13015634D02*
X315011203Y-13115634D01*
X317211203Y-13115634D02*
X317211203Y-13215634D01*
X315011203Y-13115634D02*
X317211203Y-13115634D01*
X315011203Y-13215634D02*
X315011203Y-12715634D01*
X315011203Y-8515634D02*
X315011203Y-12915634D01*
%TO.C,D26*%
X208864237Y-32265650D02*
X208864237Y-31965650D01*
X208864237Y-31965650D02*
X208864237Y-27565650D01*
X206664237Y-31965650D02*
X208864237Y-31965650D01*
X208864237Y-32265650D02*
X206664237Y-32265650D01*
X208864237Y-32165650D02*
X208864237Y-32265650D01*
X208864237Y-27565650D02*
X206664237Y-27565650D01*
X206664237Y-32265650D02*
X206664237Y-31765650D01*
X208864237Y-31965650D02*
X208864237Y-32065650D01*
X206664237Y-27565650D02*
X206664237Y-31965650D01*
X208864237Y-32065650D02*
X206664237Y-32065650D01*
X206664237Y-32065650D02*
X206664237Y-32165650D01*
X206664237Y-31765650D02*
X206664237Y-32265650D01*
X206664237Y-32265650D02*
X208864237Y-32265650D01*
X206664237Y-32165650D02*
X208864237Y-32165650D01*
%TO.C,D42*%
X211426741Y-50815666D02*
X211426741Y-51315666D01*
X213626741Y-51215666D02*
X213626741Y-51315666D01*
X211426741Y-51215666D02*
X213626741Y-51215666D01*
X211426741Y-46615666D02*
X211426741Y-51015666D01*
X211426741Y-51315666D02*
X213626741Y-51315666D01*
X211426741Y-51315666D02*
X211426741Y-50815666D01*
X213626741Y-51115666D02*
X211426741Y-51115666D01*
X213626741Y-51315666D02*
X211426741Y-51315666D01*
X211426741Y-51115666D02*
X211426741Y-51215666D01*
X213626741Y-51315666D02*
X213626741Y-51015666D01*
X213626741Y-46615666D02*
X211426741Y-46615666D01*
X213626741Y-51015666D02*
X213626741Y-46615666D01*
X213626741Y-51015666D02*
X213626741Y-51115666D01*
X211426741Y-51015666D02*
X213626741Y-51015666D01*
%TO.C,D78*%
X292389309Y-89115698D02*
X294589309Y-89115698D01*
X294589309Y-89115698D02*
X294589309Y-89215698D01*
X292389309Y-88915698D02*
X292389309Y-89415698D01*
X294589309Y-89315698D02*
X294589309Y-89415698D01*
X292389309Y-84715698D02*
X292389309Y-89115698D01*
X292389309Y-89415698D02*
X292389309Y-88915698D01*
X294589309Y-89115698D02*
X294589309Y-84715698D01*
X292389309Y-89315698D02*
X294589309Y-89315698D01*
X292389309Y-89215698D02*
X292389309Y-89315698D01*
X294589309Y-89415698D02*
X292389309Y-89415698D01*
X294589309Y-84715698D02*
X292389309Y-84715698D01*
X292389309Y-89415698D02*
X294589309Y-89415698D01*
X294589309Y-89415698D02*
X294589309Y-89115698D01*
X294589309Y-89215698D02*
X292389309Y-89215698D01*
D11*
%TO.C,R102*%
X274154606Y-10115634D02*
X274154606Y-11315634D01*
X275914606Y-11315634D02*
X275914606Y-10115634D01*
D10*
%TO.C,D75*%
X219761123Y-88915698D02*
X219761123Y-89415698D01*
X221961123Y-89115698D02*
X221961123Y-89215698D01*
X221961123Y-89315698D02*
X221961123Y-89415698D01*
X221961123Y-89215698D02*
X219761123Y-89215698D01*
X221961123Y-89415698D02*
X219761123Y-89415698D01*
X221961123Y-84715698D02*
X219761123Y-84715698D01*
X219761123Y-89315698D02*
X221961123Y-89315698D01*
X221961123Y-89415698D02*
X221961123Y-89115698D01*
X221961123Y-89115698D02*
X221961123Y-84715698D01*
X219761123Y-89215698D02*
X219761123Y-89315698D01*
X219761123Y-84715698D02*
X219761123Y-89115698D01*
X219761123Y-89415698D02*
X219761123Y-88915698D01*
X219761123Y-89415698D02*
X221961123Y-89415698D01*
X219761123Y-89115698D02*
X221961123Y-89115698D01*
%TO.C,D15*%
X313639325Y-13215634D02*
X311439325Y-13215634D01*
X311439325Y-8515634D02*
X311439325Y-12915634D01*
X311439325Y-13115634D02*
X313639325Y-13115634D01*
X311439325Y-13215634D02*
X311439325Y-12715634D01*
X313639325Y-12915634D02*
X313639325Y-13015634D01*
X311439325Y-13015634D02*
X311439325Y-13115634D01*
X311439325Y-13215634D02*
X313639325Y-13215634D01*
X311439325Y-12715634D02*
X311439325Y-13215634D01*
X311439325Y-12915634D02*
X313639325Y-12915634D01*
X313639325Y-8515634D02*
X311439325Y-8515634D01*
X313639325Y-13115634D02*
X313639325Y-13215634D01*
X313639325Y-13215634D02*
X313639325Y-12915634D01*
X313639325Y-12915634D02*
X313639325Y-8515634D01*
X313639325Y-13015634D02*
X311439325Y-13015634D01*
%TO.C,D31*%
X254289277Y-12915634D02*
X256489277Y-12915634D01*
X254289277Y-13015634D02*
X254289277Y-13115634D01*
X254289277Y-12715634D02*
X254289277Y-13215634D01*
X256489277Y-12915634D02*
X256489277Y-8515634D01*
X256489277Y-12915634D02*
X256489277Y-13015634D01*
X254289277Y-8515634D02*
X254289277Y-12915634D01*
X256489277Y-8515634D02*
X254289277Y-8515634D01*
X256489277Y-13115634D02*
X256489277Y-13215634D01*
X256489277Y-13215634D02*
X254289277Y-13215634D01*
X256489277Y-13015634D02*
X254289277Y-13015634D01*
X254289277Y-13215634D02*
X256489277Y-13215634D01*
X254289277Y-13215634D02*
X254289277Y-12715634D01*
X256489277Y-13215634D02*
X256489277Y-12915634D01*
X254289277Y-13115634D02*
X256489277Y-13115634D01*
%TO.C,D76*%
X276911171Y-89215698D02*
X276911171Y-89315698D01*
X279111171Y-84715698D02*
X276911171Y-84715698D01*
X279111171Y-89415698D02*
X276911171Y-89415698D01*
X279111171Y-89115698D02*
X279111171Y-84715698D01*
X276911171Y-88915698D02*
X276911171Y-89415698D01*
X279111171Y-89115698D02*
X279111171Y-89215698D01*
X276911171Y-89115698D02*
X279111171Y-89115698D01*
X276911171Y-89315698D02*
X279111171Y-89315698D01*
X276911171Y-89415698D02*
X276911171Y-88915698D01*
X276911171Y-84715698D02*
X276911171Y-89115698D01*
X276911171Y-89415698D02*
X279111171Y-89415698D01*
X279111171Y-89315698D02*
X279111171Y-89415698D01*
X279111171Y-89415698D02*
X279111171Y-89115698D01*
X279111171Y-89215698D02*
X276911171Y-89215698D01*
%TO.C,D72*%
X166182953Y-88915698D02*
X166182953Y-89415698D01*
X166182953Y-89415698D02*
X168382953Y-89415698D01*
X166182953Y-84715698D02*
X166182953Y-89115698D01*
X168382953Y-89115698D02*
X168382953Y-89215698D01*
X168382953Y-89315698D02*
X168382953Y-89415698D01*
X168382953Y-89415698D02*
X166182953Y-89415698D01*
X166182953Y-89115698D02*
X168382953Y-89115698D01*
X166182953Y-89415698D02*
X166182953Y-88915698D01*
X168382953Y-89415698D02*
X168382953Y-89115698D01*
X168382953Y-89215698D02*
X166182953Y-89215698D01*
X168382953Y-84715698D02*
X166182953Y-84715698D01*
X168382953Y-89115698D02*
X168382953Y-84715698D01*
X166182953Y-89215698D02*
X166182953Y-89315698D01*
X166182953Y-89315698D02*
X168382953Y-89315698D01*
%TO.C,D66*%
X49501605Y-89415698D02*
X49501605Y-88915698D01*
X51701605Y-89115698D02*
X51701605Y-89215698D01*
X51701605Y-89315698D02*
X51701605Y-89415698D01*
X51701605Y-89115698D02*
X51701605Y-84715698D01*
X51701605Y-89415698D02*
X49501605Y-89415698D01*
X51701605Y-84715698D02*
X49501605Y-84715698D01*
X51701605Y-89415698D02*
X51701605Y-89115698D01*
X49501605Y-89315698D02*
X51701605Y-89315698D01*
X49501605Y-89215698D02*
X49501605Y-89315698D01*
X51701605Y-89215698D02*
X49501605Y-89215698D01*
X49501605Y-89115698D02*
X51701605Y-89115698D01*
X49501605Y-88915698D02*
X49501605Y-89415698D01*
X49501605Y-89415698D02*
X51701605Y-89415698D01*
X49501605Y-84715698D02*
X49501605Y-89115698D01*
%TO.C,D68*%
X94745393Y-89315698D02*
X96945393Y-89315698D01*
X96945393Y-89415698D02*
X94745393Y-89415698D01*
X94745393Y-88915698D02*
X94745393Y-89415698D01*
X96945393Y-89115698D02*
X96945393Y-89215698D01*
X96945393Y-89215698D02*
X94745393Y-89215698D01*
X96945393Y-89415698D02*
X96945393Y-89115698D01*
X94745393Y-89415698D02*
X94745393Y-88915698D01*
X94745393Y-89415698D02*
X96945393Y-89415698D01*
X94745393Y-84715698D02*
X94745393Y-89115698D01*
X96945393Y-89115698D02*
X96945393Y-84715698D01*
X96945393Y-84715698D02*
X94745393Y-84715698D01*
X94745393Y-89215698D02*
X94745393Y-89315698D01*
X96945393Y-89315698D02*
X96945393Y-89415698D01*
X94745393Y-89115698D02*
X96945393Y-89115698D01*
%TO.C,D41*%
X192376725Y-46615666D02*
X192376725Y-51015666D01*
X192376725Y-51215666D02*
X194576725Y-51215666D01*
X192376725Y-51315666D02*
X194576725Y-51315666D01*
X194576725Y-51015666D02*
X194576725Y-51115666D01*
X194576725Y-46615666D02*
X192376725Y-46615666D01*
X192376725Y-51315666D02*
X192376725Y-50815666D01*
X194576725Y-51015666D02*
X194576725Y-46615666D01*
X192376725Y-51015666D02*
X194576725Y-51015666D01*
X192376725Y-50815666D02*
X192376725Y-51315666D01*
X192376725Y-51115666D02*
X192376725Y-51215666D01*
X194576725Y-51315666D02*
X194576725Y-51015666D01*
X194576725Y-51315666D02*
X192376725Y-51315666D01*
X194576725Y-51215666D02*
X194576725Y-51315666D01*
X194576725Y-51115666D02*
X192376725Y-51115666D01*
%TO.C,D65*%
X16164077Y-89215698D02*
X16164077Y-89315698D01*
X16164077Y-89315698D02*
X18364077Y-89315698D01*
X18364077Y-89115698D02*
X18364077Y-84715698D01*
X18364077Y-84715698D02*
X16164077Y-84715698D01*
X16164077Y-88915698D02*
X16164077Y-89415698D01*
X16164077Y-89415698D02*
X18364077Y-89415698D01*
X16164077Y-84715698D02*
X16164077Y-89115698D01*
X18364077Y-89115698D02*
X18364077Y-89215698D01*
X18364077Y-89415698D02*
X16164077Y-89415698D01*
X18364077Y-89315698D02*
X18364077Y-89415698D01*
X16164077Y-89115698D02*
X18364077Y-89115698D01*
X18364077Y-89415698D02*
X18364077Y-89115698D01*
X18364077Y-89215698D02*
X16164077Y-89215698D01*
X16164077Y-89415698D02*
X16164077Y-88915698D01*
D11*
%TO.C,F1*%
X274128667Y-5957817D02*
X274128667Y-4757817D01*
X272368667Y-4757817D02*
X272368667Y-5957817D01*
D10*
%TO.C,D11*%
X216189245Y-13015634D02*
X216189245Y-13115634D01*
X218389245Y-13215634D02*
X216189245Y-13215634D01*
X218389245Y-13015634D02*
X216189245Y-13015634D01*
X216189245Y-8515634D02*
X216189245Y-12915634D01*
X218389245Y-13115634D02*
X218389245Y-13215634D01*
X216189245Y-12915634D02*
X218389245Y-12915634D01*
X218389245Y-8515634D02*
X216189245Y-8515634D01*
X216189245Y-13215634D02*
X218389245Y-13215634D01*
X218389245Y-12915634D02*
X218389245Y-13015634D01*
X218389245Y-13215634D02*
X218389245Y-12915634D01*
X216189245Y-13215634D02*
X216189245Y-12715634D01*
X216189245Y-13115634D02*
X218389245Y-13115634D01*
X216189245Y-12715634D02*
X216189245Y-13215634D01*
X218389245Y-12915634D02*
X218389245Y-8515634D01*
%TO.C,D49*%
X16164077Y-69865682D02*
X16164077Y-70365682D01*
X16164077Y-70265682D02*
X18364077Y-70265682D01*
X18364077Y-70265682D02*
X18364077Y-70365682D01*
X16164077Y-70165682D02*
X16164077Y-70265682D01*
X16164077Y-65665682D02*
X16164077Y-70065682D01*
X18364077Y-65665682D02*
X16164077Y-65665682D01*
X18364077Y-70165682D02*
X16164077Y-70165682D01*
X18364077Y-70365682D02*
X18364077Y-70065682D01*
X18364077Y-70065682D02*
X18364077Y-65665682D01*
X16164077Y-70365682D02*
X18364077Y-70365682D01*
X16164077Y-70365682D02*
X16164077Y-69865682D01*
X18364077Y-70065682D02*
X18364077Y-70165682D01*
X18364077Y-70365682D02*
X16164077Y-70365682D01*
X16164077Y-70065682D02*
X18364077Y-70065682D01*
%TO.C,D9*%
X180289213Y-8515634D02*
X178089213Y-8515634D01*
X180289213Y-13215634D02*
X178089213Y-13215634D01*
X178089213Y-13115634D02*
X180289213Y-13115634D01*
X178089213Y-8515634D02*
X178089213Y-12915634D01*
X180289213Y-13115634D02*
X180289213Y-13215634D01*
X178089213Y-13215634D02*
X178089213Y-12715634D01*
X178089213Y-12915634D02*
X180289213Y-12915634D01*
X180289213Y-13015634D02*
X178089213Y-13015634D01*
X180289213Y-13215634D02*
X180289213Y-12915634D01*
X178089213Y-13015634D02*
X178089213Y-13115634D01*
X180289213Y-12915634D02*
X180289213Y-13015634D01*
X178089213Y-13215634D02*
X180289213Y-13215634D01*
X180289213Y-12915634D02*
X180289213Y-8515634D01*
X178089213Y-12715634D02*
X178089213Y-13215634D01*
D11*
%TO.C,C101*%
X22093748Y-40709398D02*
X22093748Y-41709398D01*
X20393748Y-41709398D02*
X20393748Y-40709398D01*
D10*
%TO.C,D5*%
X101889149Y-13215634D02*
X104089149Y-13215634D01*
X104089149Y-12915634D02*
X104089149Y-13015634D01*
X104089149Y-13015634D02*
X101889149Y-13015634D01*
X104089149Y-13215634D02*
X104089149Y-12915634D01*
X101889149Y-13015634D02*
X101889149Y-13115634D01*
X104089149Y-13115634D02*
X104089149Y-13215634D01*
X101889149Y-13215634D02*
X101889149Y-12715634D01*
X101889149Y-12715634D02*
X101889149Y-13215634D01*
X104089149Y-8515634D02*
X101889149Y-8515634D01*
X101889149Y-8515634D02*
X101889149Y-12915634D01*
X104089149Y-13215634D02*
X101889149Y-13215634D01*
X101889149Y-12915634D02*
X104089149Y-12915634D01*
X104089149Y-12915634D02*
X104089149Y-8515634D01*
X101889149Y-13115634D02*
X104089149Y-13115634D01*
%TO.C,D47*%
X301733065Y-51215666D02*
X301733065Y-51315666D01*
X299533065Y-51015666D02*
X301733065Y-51015666D01*
X299533065Y-51315666D02*
X301733065Y-51315666D01*
X299533065Y-51215666D02*
X301733065Y-51215666D01*
X301733065Y-46615666D02*
X299533065Y-46615666D01*
X301733065Y-51115666D02*
X299533065Y-51115666D01*
X301733065Y-51315666D02*
X299533065Y-51315666D01*
X299533065Y-51115666D02*
X299533065Y-51215666D01*
X299533065Y-46615666D02*
X299533065Y-51015666D01*
X301733065Y-51015666D02*
X301733065Y-46615666D01*
X299533065Y-50815666D02*
X299533065Y-51315666D01*
X299533065Y-51315666D02*
X299533065Y-50815666D01*
X301733065Y-51315666D02*
X301733065Y-51015666D01*
X301733065Y-51015666D02*
X301733065Y-51115666D01*
%TO.C,U1*%
X24799756Y-42288894D02*
X24926756Y-42288894D01*
X25593756Y-41621894D02*
X26268756Y-41621894D01*
X25593756Y-41621894D02*
X25593756Y-41046894D01*
X35943756Y-41621894D02*
X35943756Y-40946894D01*
X35943756Y-31271894D02*
X35268756Y-31271894D01*
X25593756Y-31271894D02*
X25593756Y-31946894D01*
X25593756Y-31271894D02*
X26268756Y-31271894D01*
X35943756Y-41621894D02*
X35268756Y-41621894D01*
X35943756Y-31271894D02*
X35943756Y-31946894D01*
X25180756Y-42288894D02*
G75*
G03*
X25180756Y-42288894I-254000J0D01*
G01*
X25450390Y-42288894D02*
G75*
G03*
X25450390Y-42288894I-523634J0D01*
G01*
X25210737Y-42288894D02*
G75*
G03*
X25210737Y-42288894I-283981J0D01*
G01*
X25053756Y-42288894D02*
G75*
G03*
X25053756Y-42288894I-127000J0D01*
G01*
X25328365Y-42288894D02*
G75*
G03*
X25328365Y-42288894I-401609J0D01*
G01*
%TO.C,D67*%
X78076629Y-88915698D02*
X78076629Y-89415698D01*
X78076629Y-89415698D02*
X80276629Y-89415698D01*
X78076629Y-89215698D02*
X78076629Y-89315698D01*
X78076629Y-84715698D02*
X78076629Y-89115698D01*
X80276629Y-84715698D02*
X78076629Y-84715698D01*
X80276629Y-89415698D02*
X78076629Y-89415698D01*
X80276629Y-89315698D02*
X80276629Y-89415698D01*
X80276629Y-89415698D02*
X80276629Y-89115698D01*
X78076629Y-89415698D02*
X78076629Y-88915698D01*
X78076629Y-89115698D02*
X80276629Y-89115698D01*
X80276629Y-89115698D02*
X80276629Y-84715698D01*
X80276629Y-89215698D02*
X78076629Y-89215698D01*
X78076629Y-89315698D02*
X80276629Y-89315698D01*
X80276629Y-89115698D02*
X80276629Y-89215698D01*
D11*
%TO.C,J2*%
X6658114Y-38451581D02*
X6658114Y-33251581D01*
X13068114Y-38451581D02*
X14398114Y-38451581D01*
X14398114Y-33251581D02*
X6658114Y-33251581D01*
X14398114Y-35851581D02*
X14398114Y-33251581D01*
X11798114Y-38451581D02*
X6658114Y-38451581D01*
X11798114Y-35851581D02*
X14398114Y-35851581D01*
X14398114Y-38451581D02*
X14398114Y-37121581D01*
X11798114Y-38451581D02*
X11798114Y-35851581D01*
D10*
%TO.C,D50*%
X68551621Y-69865682D02*
X68551621Y-70365682D01*
X70751621Y-65665682D02*
X68551621Y-65665682D01*
X68551621Y-70365682D02*
X68551621Y-69865682D01*
X70751621Y-70165682D02*
X68551621Y-70165682D01*
X70751621Y-70065682D02*
X70751621Y-70165682D01*
X68551621Y-70065682D02*
X70751621Y-70065682D01*
X68551621Y-65665682D02*
X68551621Y-70065682D01*
X68551621Y-70265682D02*
X70751621Y-70265682D01*
X70751621Y-70365682D02*
X68551621Y-70365682D01*
X68551621Y-70165682D02*
X68551621Y-70265682D01*
X68551621Y-70365682D02*
X70751621Y-70365682D01*
X70751621Y-70365682D02*
X70751621Y-70065682D01*
X70751621Y-70065682D02*
X70751621Y-65665682D01*
X70751621Y-70265682D02*
X70751621Y-70365682D01*
%TO.C,D48*%
X315011203Y-50815666D02*
X315011203Y-51315666D01*
X317211203Y-51315666D02*
X317211203Y-51015666D01*
X315011203Y-51115666D02*
X315011203Y-51215666D01*
X317211203Y-51215666D02*
X317211203Y-51315666D01*
X315011203Y-51215666D02*
X317211203Y-51215666D01*
X315011203Y-51015666D02*
X317211203Y-51015666D01*
X317211203Y-51315666D02*
X315011203Y-51315666D01*
X315011203Y-51315666D02*
X317211203Y-51315666D01*
X315011203Y-46615666D02*
X315011203Y-51015666D01*
X317211203Y-46615666D02*
X315011203Y-46615666D01*
X317211203Y-51015666D02*
X317211203Y-46615666D01*
X315011203Y-51315666D02*
X315011203Y-50815666D01*
X317211203Y-51115666D02*
X315011203Y-51115666D01*
X317211203Y-51015666D02*
X317211203Y-51115666D01*
%TO.C,D14*%
X257861155Y-12915634D02*
X260061155Y-12915634D01*
X260061155Y-8515634D02*
X257861155Y-8515634D01*
X257861155Y-8515634D02*
X257861155Y-12915634D01*
X260061155Y-12915634D02*
X260061155Y-8515634D01*
X257861155Y-13015634D02*
X257861155Y-13115634D01*
X260061155Y-13215634D02*
X260061155Y-12915634D01*
X260061155Y-13015634D02*
X257861155Y-13015634D01*
X257861155Y-12715634D02*
X257861155Y-13215634D01*
X260061155Y-13115634D02*
X260061155Y-13215634D01*
X260061155Y-13215634D02*
X257861155Y-13215634D01*
X257861155Y-13115634D02*
X260061155Y-13115634D01*
X260061155Y-12915634D02*
X260061155Y-13015634D01*
X257861155Y-13215634D02*
X257861155Y-12715634D01*
X257861155Y-13215634D02*
X260061155Y-13215634D01*
%TO.C,D4*%
X85039133Y-12915634D02*
X85039133Y-13015634D01*
X82839133Y-12715634D02*
X82839133Y-13215634D01*
X82839133Y-8515634D02*
X82839133Y-12915634D01*
X85039133Y-13015634D02*
X82839133Y-13015634D01*
X82839133Y-13215634D02*
X85039133Y-13215634D01*
X82839133Y-13115634D02*
X85039133Y-13115634D01*
X82839133Y-13215634D02*
X82839133Y-12715634D01*
X82839133Y-13015634D02*
X82839133Y-13115634D01*
X85039133Y-13115634D02*
X85039133Y-13215634D01*
X85039133Y-8515634D02*
X82839133Y-8515634D01*
X82839133Y-12915634D02*
X85039133Y-12915634D01*
X85039133Y-13215634D02*
X82839133Y-13215634D01*
X85039133Y-12915634D02*
X85039133Y-8515634D01*
X85039133Y-13215634D02*
X85039133Y-12915634D01*
%TO.C,D62*%
X287445553Y-70265682D02*
X287445553Y-70365682D01*
X287445553Y-65665682D02*
X285245553Y-65665682D01*
X285245553Y-69865682D02*
X285245553Y-70365682D01*
X285245553Y-70265682D02*
X287445553Y-70265682D01*
X285245553Y-65665682D02*
X285245553Y-70065682D01*
X285245553Y-70365682D02*
X287445553Y-70365682D01*
X287445553Y-70065682D02*
X287445553Y-70165682D01*
X287445553Y-70365682D02*
X287445553Y-70065682D01*
X287445553Y-70365682D02*
X285245553Y-70365682D01*
X287445553Y-70065682D02*
X287445553Y-65665682D01*
X285245553Y-70365682D02*
X285245553Y-69865682D01*
X285245553Y-70165682D02*
X285245553Y-70265682D01*
X285245553Y-70065682D02*
X287445553Y-70065682D01*
X287445553Y-70165682D02*
X285245553Y-70165682D01*
%TO.C,D79*%
X311439325Y-89115698D02*
X313639325Y-89115698D01*
X311439325Y-89315698D02*
X313639325Y-89315698D01*
X313639325Y-89115698D02*
X313639325Y-89215698D01*
X313639325Y-89415698D02*
X311439325Y-89415698D01*
X313639325Y-89315698D02*
X313639325Y-89415698D01*
X311439325Y-89415698D02*
X313639325Y-89415698D01*
X313639325Y-89115698D02*
X313639325Y-84715698D01*
X311439325Y-88915698D02*
X311439325Y-89415698D01*
X313639325Y-89415698D02*
X313639325Y-89115698D01*
X313639325Y-89215698D02*
X311439325Y-89215698D01*
X311439325Y-89415698D02*
X311439325Y-88915698D01*
X313639325Y-84715698D02*
X311439325Y-84715698D01*
X311439325Y-89215698D02*
X311439325Y-89315698D01*
X311439325Y-84715698D02*
X311439325Y-89115698D01*
%TO.C,D24*%
X170764205Y-31965650D02*
X170764205Y-32065650D01*
X168564205Y-32265650D02*
X168564205Y-31765650D01*
X168564205Y-32265650D02*
X170764205Y-32265650D01*
X170764205Y-32265650D02*
X168564205Y-32265650D01*
X170764205Y-32165650D02*
X170764205Y-32265650D01*
X170764205Y-32065650D02*
X168564205Y-32065650D01*
X168564205Y-27565650D02*
X168564205Y-31965650D01*
X168564205Y-32165650D02*
X170764205Y-32165650D01*
X168564205Y-32065650D02*
X168564205Y-32165650D01*
X170764205Y-31965650D02*
X170764205Y-27565650D01*
X170764205Y-27565650D02*
X168564205Y-27565650D01*
X168564205Y-31965650D02*
X170764205Y-31965650D01*
X168564205Y-31765650D02*
X168564205Y-32265650D01*
X170764205Y-32265650D02*
X170764205Y-31965650D01*
D11*
%TO.C,R105*%
X18144077Y-6553130D02*
X18144077Y-5353130D01*
X16384077Y-5353130D02*
X16384077Y-6553130D01*
%TO.C,C106*%
X17576557Y-41464085D02*
X16576557Y-41464085D01*
X16576557Y-39764085D02*
X17576557Y-39764085D01*
D10*
%TO.C,D80*%
X317211203Y-89415698D02*
X315011203Y-89415698D01*
X317211203Y-89115698D02*
X317211203Y-89215698D01*
X315011203Y-89415698D02*
X317211203Y-89415698D01*
X315011203Y-89215698D02*
X315011203Y-89315698D01*
X317211203Y-89315698D02*
X317211203Y-89415698D01*
X315011203Y-89315698D02*
X317211203Y-89315698D01*
X317211203Y-89215698D02*
X315011203Y-89215698D01*
X317211203Y-89415698D02*
X317211203Y-89115698D01*
X315011203Y-89115698D02*
X317211203Y-89115698D01*
X315011203Y-89415698D02*
X315011203Y-88915698D01*
X317211203Y-89115698D02*
X317211203Y-84715698D01*
X315011203Y-84715698D02*
X315011203Y-89115698D01*
X317211203Y-84715698D02*
X315011203Y-84715698D01*
X315011203Y-88915698D02*
X315011203Y-89415698D01*
%TO.C,D25*%
X187614221Y-31765650D02*
X187614221Y-32265650D01*
X187614221Y-32265650D02*
X187614221Y-31765650D01*
X189814221Y-32165650D02*
X189814221Y-32265650D01*
X189814221Y-32265650D02*
X187614221Y-32265650D01*
X187614221Y-32065650D02*
X187614221Y-32165650D01*
X189814221Y-31965650D02*
X189814221Y-32065650D01*
X189814221Y-32065650D02*
X187614221Y-32065650D01*
X187614221Y-31965650D02*
X189814221Y-31965650D01*
X189814221Y-27565650D02*
X187614221Y-27565650D01*
X189814221Y-31965650D02*
X189814221Y-27565650D01*
X187614221Y-32165650D02*
X189814221Y-32165650D01*
X187614221Y-27565650D02*
X187614221Y-31965650D01*
X189814221Y-32265650D02*
X189814221Y-31965650D01*
X187614221Y-32265650D02*
X189814221Y-32265650D01*
%TO.C,D33*%
X16164077Y-51315666D02*
X18364077Y-51315666D01*
X16164077Y-51015666D02*
X18364077Y-51015666D01*
X18364077Y-51015666D02*
X18364077Y-46615666D01*
X18364077Y-51115666D02*
X16164077Y-51115666D01*
X16164077Y-51115666D02*
X16164077Y-51215666D01*
X16164077Y-51315666D02*
X16164077Y-50815666D01*
X16164077Y-46615666D02*
X16164077Y-51015666D01*
X18364077Y-51315666D02*
X18364077Y-51015666D01*
X18364077Y-51315666D02*
X16164077Y-51315666D01*
X16164077Y-51215666D02*
X18364077Y-51215666D01*
X18364077Y-51215666D02*
X18364077Y-51315666D01*
X18364077Y-46615666D02*
X16164077Y-46615666D01*
X16164077Y-50815666D02*
X16164077Y-51315666D01*
X18364077Y-51015666D02*
X18364077Y-51115666D01*
%TO.C,D35*%
X78076629Y-51115666D02*
X78076629Y-51215666D01*
X80276629Y-46615666D02*
X78076629Y-46615666D01*
X80276629Y-51015666D02*
X80276629Y-46615666D01*
X78076629Y-51215666D02*
X80276629Y-51215666D01*
X80276629Y-51015666D02*
X80276629Y-51115666D01*
X80276629Y-51315666D02*
X80276629Y-51015666D01*
X78076629Y-50815666D02*
X78076629Y-51315666D01*
X78076629Y-51015666D02*
X80276629Y-51015666D01*
X80276629Y-51215666D02*
X80276629Y-51315666D01*
X78076629Y-46615666D02*
X78076629Y-51015666D01*
X80276629Y-51115666D02*
X78076629Y-51115666D01*
X78076629Y-51315666D02*
X80276629Y-51315666D01*
X78076629Y-51315666D02*
X78076629Y-50815666D01*
X80276629Y-51315666D02*
X78076629Y-51315666D01*
%TO.C,D52*%
X87601637Y-70165682D02*
X87601637Y-70265682D01*
X89801637Y-70365682D02*
X89801637Y-70065682D01*
X89801637Y-70265682D02*
X89801637Y-70365682D01*
X89801637Y-70065682D02*
X89801637Y-65665682D01*
X89801637Y-70065682D02*
X89801637Y-70165682D01*
X87601637Y-65665682D02*
X87601637Y-70065682D01*
X87601637Y-69865682D02*
X87601637Y-70365682D01*
X87601637Y-70365682D02*
X87601637Y-69865682D01*
X87601637Y-70365682D02*
X89801637Y-70365682D01*
X89801637Y-65665682D02*
X87601637Y-65665682D01*
X87601637Y-70065682D02*
X89801637Y-70065682D01*
X87601637Y-70265682D02*
X89801637Y-70265682D01*
X89801637Y-70365682D02*
X87601637Y-70365682D01*
X89801637Y-70165682D02*
X87601637Y-70165682D01*
%TO.C,D40*%
X173326709Y-51215666D02*
X175526709Y-51215666D01*
X175526709Y-51015666D02*
X175526709Y-51115666D01*
X175526709Y-51215666D02*
X175526709Y-51315666D01*
X175526709Y-46615666D02*
X173326709Y-46615666D01*
X173326709Y-51315666D02*
X175526709Y-51315666D01*
X173326709Y-51315666D02*
X173326709Y-50815666D01*
X173326709Y-51015666D02*
X175526709Y-51015666D01*
X173326709Y-50815666D02*
X173326709Y-51315666D01*
X173326709Y-51115666D02*
X173326709Y-51215666D01*
X175526709Y-51315666D02*
X175526709Y-51015666D01*
X175526709Y-51115666D02*
X173326709Y-51115666D01*
X175526709Y-51315666D02*
X173326709Y-51315666D01*
X173326709Y-46615666D02*
X173326709Y-51015666D01*
X175526709Y-51015666D02*
X175526709Y-46615666D01*
%TO.C,D32*%
X315011203Y-32065650D02*
X315011203Y-32165650D01*
X317211203Y-32065650D02*
X315011203Y-32065650D01*
X317211203Y-31965650D02*
X317211203Y-27565650D01*
X317211203Y-27565650D02*
X315011203Y-27565650D01*
X315011203Y-32165650D02*
X317211203Y-32165650D01*
X315011203Y-32265650D02*
X315011203Y-31765650D01*
X315011203Y-31765650D02*
X315011203Y-32265650D01*
X317211203Y-32265650D02*
X317211203Y-31965650D01*
X315011203Y-32265650D02*
X317211203Y-32265650D01*
X317211203Y-32165650D02*
X317211203Y-32265650D01*
X315011203Y-31965650D02*
X317211203Y-31965650D01*
X317211203Y-32265650D02*
X315011203Y-32265650D01*
X317211203Y-31965650D02*
X317211203Y-32065650D01*
X315011203Y-27565650D02*
X315011203Y-31965650D01*
%TO.C,D23*%
X149514189Y-32165650D02*
X151714189Y-32165650D01*
X151714189Y-27565650D02*
X149514189Y-27565650D01*
X149514189Y-32265650D02*
X151714189Y-32265650D01*
X151714189Y-32165650D02*
X151714189Y-32265650D01*
X149514189Y-32065650D02*
X149514189Y-32165650D01*
X151714189Y-31965650D02*
X151714189Y-32065650D01*
X151714189Y-32265650D02*
X151714189Y-31965650D01*
X151714189Y-31965650D02*
X151714189Y-27565650D01*
X151714189Y-32065650D02*
X149514189Y-32065650D01*
X149514189Y-31965650D02*
X151714189Y-31965650D01*
X149514189Y-27565650D02*
X149514189Y-31965650D01*
X149514189Y-31765650D02*
X149514189Y-32265650D01*
X149514189Y-32265650D02*
X149514189Y-31765650D01*
X151714189Y-32265650D02*
X149514189Y-32265650D01*
D11*
%TO.C,C102*%
X27451565Y-47257841D02*
X27451565Y-48257841D01*
X25751565Y-48257841D02*
X25751565Y-47257841D01*
D10*
%TO.C,D30*%
X282864301Y-31765650D02*
X282864301Y-32265650D01*
X285064301Y-31965650D02*
X285064301Y-27565650D01*
X285064301Y-27565650D02*
X282864301Y-27565650D01*
X285064301Y-32265650D02*
X282864301Y-32265650D01*
X285064301Y-32265650D02*
X285064301Y-31965650D01*
X282864301Y-27565650D02*
X282864301Y-31965650D01*
X285064301Y-32165650D02*
X285064301Y-32265650D01*
X282864301Y-32165650D02*
X285064301Y-32165650D01*
X282864301Y-32065650D02*
X282864301Y-32165650D01*
X282864301Y-32265650D02*
X282864301Y-31765650D01*
X285064301Y-31965650D02*
X285064301Y-32065650D01*
X285064301Y-32065650D02*
X282864301Y-32065650D01*
X282864301Y-31965650D02*
X285064301Y-31965650D01*
X282864301Y-32265650D02*
X285064301Y-32265650D01*
D11*
%TO.C,U2*%
X275210545Y-6257817D02*
X275210545Y-3807817D01*
X278430545Y-4457817D02*
X278430545Y-6257817D01*
%TO.C,C105*%
X33490634Y-14325000D02*
X33490634Y-13325000D01*
X35190634Y-13325000D02*
X35190634Y-14325000D01*
D10*
%TO.C,D56*%
X166001701Y-70265682D02*
X166001701Y-70365682D01*
X166001701Y-70365682D02*
X166001701Y-70065682D01*
X163801701Y-70265682D02*
X166001701Y-70265682D01*
X163801701Y-69865682D02*
X163801701Y-70365682D01*
X166001701Y-65665682D02*
X163801701Y-65665682D01*
X163801701Y-70365682D02*
X163801701Y-69865682D01*
X163801701Y-70165682D02*
X163801701Y-70265682D01*
X166001701Y-70065682D02*
X166001701Y-65665682D01*
X166001701Y-70365682D02*
X163801701Y-70365682D01*
X166001701Y-70065682D02*
X166001701Y-70165682D01*
X166001701Y-70165682D02*
X163801701Y-70165682D01*
X163801701Y-70065682D02*
X166001701Y-70065682D01*
X163801701Y-70365682D02*
X166001701Y-70365682D01*
X163801701Y-65665682D02*
X163801701Y-70065682D01*
%TO.C,D51*%
X74323499Y-70065682D02*
X74323499Y-70165682D01*
X72123499Y-70365682D02*
X74323499Y-70365682D01*
X74323499Y-70265682D02*
X74323499Y-70365682D01*
X74323499Y-70065682D02*
X74323499Y-65665682D01*
X74323499Y-70165682D02*
X72123499Y-70165682D01*
X72123499Y-69865682D02*
X72123499Y-70365682D01*
X72123499Y-65665682D02*
X72123499Y-70065682D01*
X72123499Y-70365682D02*
X72123499Y-69865682D01*
X74323499Y-70365682D02*
X74323499Y-70065682D01*
X74323499Y-70365682D02*
X72123499Y-70365682D01*
X72123499Y-70165682D02*
X72123499Y-70265682D01*
X74323499Y-65665682D02*
X72123499Y-65665682D01*
X72123499Y-70065682D02*
X74323499Y-70065682D01*
X72123499Y-70265682D02*
X74323499Y-70265682D01*
%TO.C,D22*%
X132664173Y-32265650D02*
X132664173Y-31965650D01*
X130464173Y-32265650D02*
X132664173Y-32265650D01*
X130464173Y-32165650D02*
X132664173Y-32165650D01*
X130464173Y-32065650D02*
X130464173Y-32165650D01*
X132664173Y-27565650D02*
X130464173Y-27565650D01*
X132664173Y-31965650D02*
X132664173Y-32065650D01*
X132664173Y-32065650D02*
X130464173Y-32065650D01*
X130464173Y-31765650D02*
X130464173Y-32265650D01*
X130464173Y-32265650D02*
X130464173Y-31765650D01*
X132664173Y-32165650D02*
X132664173Y-32265650D01*
X132664173Y-32265650D02*
X130464173Y-32265650D01*
X132664173Y-31965650D02*
X132664173Y-27565650D01*
X130464173Y-27565650D02*
X130464173Y-31965650D01*
X130464173Y-31965650D02*
X132664173Y-31965650D01*
%TO.C,D8*%
X159039197Y-13215634D02*
X159039197Y-12715634D01*
X161239197Y-13215634D02*
X159039197Y-13215634D01*
X159039197Y-13015634D02*
X159039197Y-13115634D01*
X159039197Y-12715634D02*
X159039197Y-13215634D01*
X161239197Y-8515634D02*
X159039197Y-8515634D01*
X161239197Y-12915634D02*
X161239197Y-13015634D01*
X161239197Y-13015634D02*
X159039197Y-13015634D01*
X161239197Y-13215634D02*
X161239197Y-12915634D01*
X159039197Y-12915634D02*
X161239197Y-12915634D01*
X159039197Y-13215634D02*
X161239197Y-13215634D01*
X161239197Y-13115634D02*
X161239197Y-13215634D01*
X159039197Y-13115634D02*
X161239197Y-13115634D01*
X161239197Y-12915634D02*
X161239197Y-8515634D01*
X159039197Y-8515634D02*
X159039197Y-12915634D01*
%TO.C,D12*%
X237439261Y-13215634D02*
X237439261Y-12915634D01*
X235239261Y-8515634D02*
X235239261Y-12915634D01*
X237439261Y-12915634D02*
X237439261Y-8515634D01*
X235239261Y-13015634D02*
X235239261Y-13115634D01*
X237439261Y-13015634D02*
X235239261Y-13015634D01*
X235239261Y-13215634D02*
X237439261Y-13215634D01*
X237439261Y-13115634D02*
X237439261Y-13215634D01*
X235239261Y-13215634D02*
X235239261Y-12715634D01*
X235239261Y-13115634D02*
X237439261Y-13115634D01*
X237439261Y-8515634D02*
X235239261Y-8515634D01*
X235239261Y-12715634D02*
X235239261Y-13215634D01*
X237439261Y-12915634D02*
X237439261Y-13015634D01*
X235239261Y-12915634D02*
X237439261Y-12915634D01*
X237439261Y-13215634D02*
X235239261Y-13215634D01*
D11*
%TO.C,C103*%
X46937520Y-38573459D02*
X47937520Y-38573459D01*
X47937520Y-40273459D02*
X46937520Y-40273459D01*
D10*
%TO.C,D63*%
X311439325Y-70265682D02*
X313639325Y-70265682D01*
X311439325Y-65665682D02*
X311439325Y-70065682D01*
X313639325Y-70365682D02*
X311439325Y-70365682D01*
X313639325Y-70165682D02*
X311439325Y-70165682D01*
X311439325Y-70365682D02*
X311439325Y-69865682D01*
X313639325Y-70065682D02*
X313639325Y-65665682D01*
X313639325Y-70065682D02*
X313639325Y-70165682D01*
X311439325Y-70365682D02*
X313639325Y-70365682D01*
X311439325Y-69865682D02*
X311439325Y-70365682D01*
X311439325Y-70065682D02*
X313639325Y-70065682D01*
X313639325Y-65665682D02*
X311439325Y-65665682D01*
X313639325Y-70365682D02*
X313639325Y-70065682D01*
X311439325Y-70165682D02*
X311439325Y-70265682D01*
X313639325Y-70265682D02*
X313639325Y-70365682D01*
D11*
%TO.C,RGB2*%
X19725000Y-12325000D02*
X19725000Y-12825000D01*
X21625000Y-12325000D02*
X19725000Y-12325000D01*
%TO.C,C108*%
X29832817Y-13325000D02*
X29832817Y-14325000D01*
X28132817Y-14325000D02*
X28132817Y-13325000D01*
%TO.C,R104*%
X42670329Y-39112833D02*
X43870329Y-39112833D01*
X43870329Y-37352833D02*
X42670329Y-37352833D01*
D10*
%TO.C,D54*%
X127901669Y-70365682D02*
X125701669Y-70365682D01*
X127901669Y-65665682D02*
X125701669Y-65665682D01*
X125701669Y-70065682D02*
X127901669Y-70065682D01*
X125701669Y-70365682D02*
X127901669Y-70365682D01*
X125701669Y-70265682D02*
X127901669Y-70265682D01*
X125701669Y-69865682D02*
X125701669Y-70365682D01*
X125701669Y-70365682D02*
X125701669Y-69865682D01*
X125701669Y-65665682D02*
X125701669Y-70065682D01*
X125701669Y-70165682D02*
X125701669Y-70265682D01*
X127901669Y-70365682D02*
X127901669Y-70065682D01*
X127901669Y-70065682D02*
X127901669Y-65665682D01*
X127901669Y-70265682D02*
X127901669Y-70365682D01*
X127901669Y-70065682D02*
X127901669Y-70165682D01*
X127901669Y-70165682D02*
X125701669Y-70165682D01*
%TO.C,D39*%
X154276693Y-46615666D02*
X154276693Y-51015666D01*
X154276693Y-51315666D02*
X154276693Y-50815666D01*
X156476693Y-51015666D02*
X156476693Y-51115666D01*
X156476693Y-51315666D02*
X154276693Y-51315666D01*
X154276693Y-51115666D02*
X154276693Y-51215666D01*
X156476693Y-51315666D02*
X156476693Y-51015666D01*
X156476693Y-51015666D02*
X156476693Y-46615666D01*
X156476693Y-51115666D02*
X154276693Y-51115666D01*
X154276693Y-50815666D02*
X154276693Y-51315666D01*
X154276693Y-51015666D02*
X156476693Y-51015666D01*
X154276693Y-51315666D02*
X156476693Y-51315666D01*
X156476693Y-46615666D02*
X154276693Y-46615666D01*
X156476693Y-51215666D02*
X156476693Y-51315666D01*
X154276693Y-51215666D02*
X156476693Y-51215666D01*
D11*
%TO.C,R101*%
X276535858Y-10115634D02*
X276535858Y-11315634D01*
X278295858Y-11315634D02*
X278295858Y-10115634D01*
D10*
%TO.C,D43*%
X232676757Y-51215666D02*
X232676757Y-51315666D01*
X232676757Y-51115666D02*
X230476757Y-51115666D01*
X232676757Y-46615666D02*
X230476757Y-46615666D01*
X230476757Y-51215666D02*
X232676757Y-51215666D01*
X232676757Y-51315666D02*
X232676757Y-51015666D01*
X230476757Y-51315666D02*
X232676757Y-51315666D01*
X230476757Y-51115666D02*
X230476757Y-51215666D01*
X230476757Y-50815666D02*
X230476757Y-51315666D01*
X230476757Y-46615666D02*
X230476757Y-51015666D01*
X230476757Y-51315666D02*
X230476757Y-50815666D01*
X232676757Y-51315666D02*
X230476757Y-51315666D01*
X230476757Y-51015666D02*
X232676757Y-51015666D01*
X232676757Y-51015666D02*
X232676757Y-46615666D01*
X232676757Y-51015666D02*
X232676757Y-51115666D01*
D11*
%TO.C,C104*%
X47937520Y-33725016D02*
X46937520Y-33725016D01*
X46937520Y-32025016D02*
X47937520Y-32025016D01*
D10*
%TO.C,D13*%
X238811139Y-13015634D02*
X238811139Y-13115634D01*
X241011139Y-12915634D02*
X241011139Y-8515634D01*
X241011139Y-12915634D02*
X241011139Y-13015634D01*
X238811139Y-8515634D02*
X238811139Y-12915634D01*
X241011139Y-8515634D02*
X238811139Y-8515634D01*
X241011139Y-13015634D02*
X238811139Y-13015634D01*
X238811139Y-13115634D02*
X241011139Y-13115634D01*
X238811139Y-12915634D02*
X241011139Y-12915634D01*
X241011139Y-13215634D02*
X241011139Y-12915634D01*
X241011139Y-13115634D02*
X241011139Y-13215634D01*
X238811139Y-13215634D02*
X241011139Y-13215634D01*
X238811139Y-12715634D02*
X238811139Y-13215634D01*
X241011139Y-13215634D02*
X238811139Y-13215634D01*
X238811139Y-13215634D02*
X238811139Y-12715634D01*
%TO.C,D10*%
X197139229Y-13215634D02*
X199339229Y-13215634D01*
X199339229Y-13015634D02*
X197139229Y-13015634D01*
X197139229Y-13015634D02*
X197139229Y-13115634D01*
X197139229Y-13215634D02*
X197139229Y-12715634D01*
X199339229Y-13215634D02*
X199339229Y-12915634D01*
X197139229Y-12715634D02*
X197139229Y-13215634D01*
X197139229Y-13115634D02*
X199339229Y-13115634D01*
X199339229Y-13115634D02*
X199339229Y-13215634D01*
X199339229Y-8515634D02*
X197139229Y-8515634D01*
X199339229Y-12915634D02*
X199339229Y-13015634D01*
X197139229Y-8515634D02*
X197139229Y-12915634D01*
X197139229Y-12915634D02*
X199339229Y-12915634D01*
X199339229Y-13215634D02*
X197139229Y-13215634D01*
X199339229Y-12915634D02*
X199339229Y-8515634D01*
D11*
%TO.C,C107*%
X28132817Y-7925000D02*
X28132817Y-6925000D01*
X29832817Y-6925000D02*
X29832817Y-7925000D01*
D10*
%TO.C,D19*%
X73314125Y-32265650D02*
X75514125Y-32265650D01*
X73314125Y-31765650D02*
X73314125Y-32265650D01*
X75514125Y-27565650D02*
X73314125Y-27565650D01*
X73314125Y-32165650D02*
X75514125Y-32165650D01*
X75514125Y-32165650D02*
X75514125Y-32265650D01*
X75514125Y-31965650D02*
X75514125Y-27565650D01*
X75514125Y-32265650D02*
X75514125Y-31965650D01*
X75514125Y-31965650D02*
X75514125Y-32065650D01*
X73314125Y-27565650D02*
X73314125Y-31965650D01*
X73314125Y-31965650D02*
X75514125Y-31965650D01*
X75514125Y-32265650D02*
X73314125Y-32265650D01*
X73314125Y-32065650D02*
X73314125Y-32165650D01*
X75514125Y-32065650D02*
X73314125Y-32065650D01*
X73314125Y-32265650D02*
X73314125Y-31765650D01*
%TO.C,D28*%
X246964269Y-32065650D02*
X244764269Y-32065650D01*
X246964269Y-32265650D02*
X246964269Y-31965650D01*
X246964269Y-31965650D02*
X246964269Y-27565650D01*
X246964269Y-32265650D02*
X244764269Y-32265650D01*
X244764269Y-32165650D02*
X246964269Y-32165650D01*
X244764269Y-27565650D02*
X244764269Y-31965650D01*
X244764269Y-32265650D02*
X246964269Y-32265650D01*
X246964269Y-31965650D02*
X246964269Y-32065650D01*
X246964269Y-32165650D02*
X246964269Y-32265650D01*
X244764269Y-32265650D02*
X244764269Y-31765650D01*
X246964269Y-27565650D02*
X244764269Y-27565650D01*
X244764269Y-32065650D02*
X244764269Y-32165650D01*
X244764269Y-31765650D02*
X244764269Y-32265650D01*
X244764269Y-31965650D02*
X246964269Y-31965650D01*
%TO.C,D29*%
X263814285Y-32265650D02*
X263814285Y-31765650D01*
X263814285Y-32165650D02*
X266014285Y-32165650D01*
X263814285Y-32265650D02*
X266014285Y-32265650D01*
X266014285Y-32265650D02*
X266014285Y-31965650D01*
X266014285Y-31965650D02*
X266014285Y-27565650D01*
X266014285Y-27565650D02*
X263814285Y-27565650D01*
X263814285Y-31965650D02*
X266014285Y-31965650D01*
X266014285Y-32265650D02*
X263814285Y-32265650D01*
X266014285Y-32165650D02*
X266014285Y-32265650D01*
X263814285Y-27565650D02*
X263814285Y-31965650D01*
X263814285Y-31765650D02*
X263814285Y-32265650D01*
X266014285Y-32065650D02*
X263814285Y-32065650D01*
X263814285Y-32065650D02*
X263814285Y-32165650D01*
X266014285Y-31965650D02*
X266014285Y-32065650D01*
%TO.C,D59*%
X220951749Y-70365682D02*
X223151749Y-70365682D01*
X220951749Y-70365682D02*
X220951749Y-69865682D01*
X223151749Y-70165682D02*
X220951749Y-70165682D01*
X220951749Y-70265682D02*
X223151749Y-70265682D01*
X223151749Y-70365682D02*
X220951749Y-70365682D01*
X220951749Y-70065682D02*
X223151749Y-70065682D01*
X223151749Y-70365682D02*
X223151749Y-70065682D01*
X220951749Y-69865682D02*
X220951749Y-70365682D01*
X223151749Y-70065682D02*
X223151749Y-65665682D01*
X220951749Y-70165682D02*
X220951749Y-70265682D01*
X223151749Y-70265682D02*
X223151749Y-70365682D01*
X223151749Y-65665682D02*
X220951749Y-65665682D01*
X220951749Y-65665682D02*
X220951749Y-70065682D01*
X223151749Y-70065682D02*
X223151749Y-70165682D01*
%TO.C,D44*%
X251726773Y-51015666D02*
X251726773Y-51115666D01*
X249526773Y-51215666D02*
X251726773Y-51215666D01*
X251726773Y-51115666D02*
X249526773Y-51115666D01*
X249526773Y-51315666D02*
X251726773Y-51315666D01*
X251726773Y-51315666D02*
X251726773Y-51015666D01*
X249526773Y-51015666D02*
X251726773Y-51015666D01*
X251726773Y-46615666D02*
X249526773Y-46615666D01*
X251726773Y-51215666D02*
X251726773Y-51315666D01*
X249526773Y-51115666D02*
X249526773Y-51215666D01*
X249526773Y-46615666D02*
X249526773Y-51015666D01*
X249526773Y-50815666D02*
X249526773Y-51315666D01*
X249526773Y-51315666D02*
X249526773Y-50815666D01*
X251726773Y-51315666D02*
X249526773Y-51315666D01*
X251726773Y-51015666D02*
X251726773Y-46615666D01*
%TO.C,D61*%
X259051781Y-65665682D02*
X259051781Y-70065682D01*
X259051781Y-70065682D02*
X261251781Y-70065682D01*
X259051781Y-70365682D02*
X259051781Y-69865682D01*
X261251781Y-70065682D02*
X261251781Y-70165682D01*
X261251781Y-70365682D02*
X259051781Y-70365682D01*
X259051781Y-70165682D02*
X259051781Y-70265682D01*
X261251781Y-70065682D02*
X261251781Y-65665682D01*
X261251781Y-65665682D02*
X259051781Y-65665682D01*
X259051781Y-70265682D02*
X261251781Y-70265682D01*
X259051781Y-70365682D02*
X261251781Y-70365682D01*
X259051781Y-69865682D02*
X259051781Y-70365682D01*
X261251781Y-70165682D02*
X259051781Y-70165682D01*
X261251781Y-70365682D02*
X261251781Y-70065682D01*
X261251781Y-70265682D02*
X261251781Y-70365682D01*
%TO.C,D18*%
X51701605Y-32165650D02*
X51701605Y-32265650D01*
X49501605Y-27565650D02*
X49501605Y-31965650D01*
X51701605Y-32265650D02*
X51701605Y-31965650D01*
X51701605Y-27565650D02*
X49501605Y-27565650D01*
X49501605Y-32165650D02*
X51701605Y-32165650D01*
X51701605Y-31965650D02*
X51701605Y-32065650D01*
X49501605Y-32065650D02*
X49501605Y-32165650D01*
X49501605Y-31765650D02*
X49501605Y-32265650D01*
X51701605Y-32265650D02*
X49501605Y-32265650D01*
X49501605Y-31965650D02*
X51701605Y-31965650D01*
X51701605Y-32065650D02*
X49501605Y-32065650D01*
X49501605Y-32265650D02*
X51701605Y-32265650D01*
X49501605Y-32265650D02*
X49501605Y-31765650D01*
X51701605Y-31965650D02*
X51701605Y-27565650D01*
%TO.C,D58*%
X204101733Y-70365682D02*
X204101733Y-70065682D01*
X201901733Y-65665682D02*
X201901733Y-70065682D01*
X204101733Y-70065682D02*
X204101733Y-65665682D01*
X204101733Y-70165682D02*
X201901733Y-70165682D01*
X201901733Y-69865682D02*
X201901733Y-70365682D01*
X204101733Y-70265682D02*
X204101733Y-70365682D01*
X201901733Y-70165682D02*
X201901733Y-70265682D01*
X201901733Y-70065682D02*
X204101733Y-70065682D01*
X204101733Y-70065682D02*
X204101733Y-70165682D01*
X204101733Y-70365682D02*
X201901733Y-70365682D01*
X204101733Y-65665682D02*
X201901733Y-65665682D01*
X201901733Y-70365682D02*
X204101733Y-70365682D01*
X201901733Y-70265682D02*
X204101733Y-70265682D01*
X201901733Y-70365682D02*
X201901733Y-69865682D01*
%TO.C,D57*%
X182851717Y-70365682D02*
X185051717Y-70365682D01*
X182851717Y-65665682D02*
X182851717Y-70065682D01*
X185051717Y-70065682D02*
X185051717Y-70165682D01*
X185051717Y-70265682D02*
X185051717Y-70365682D01*
X182851717Y-70165682D02*
X182851717Y-70265682D01*
X185051717Y-65665682D02*
X182851717Y-65665682D01*
X182851717Y-69865682D02*
X182851717Y-70365682D01*
X182851717Y-70365682D02*
X182851717Y-69865682D01*
X185051717Y-70365682D02*
X185051717Y-70065682D01*
X185051717Y-70365682D02*
X182851717Y-70365682D01*
X182851717Y-70265682D02*
X185051717Y-70265682D01*
X185051717Y-70165682D02*
X182851717Y-70165682D01*
X185051717Y-70065682D02*
X185051717Y-65665682D01*
X182851717Y-70065682D02*
X185051717Y-70065682D01*
%TO.C,D34*%
X51882857Y-51315666D02*
X51882857Y-50815666D01*
X51882857Y-46615666D02*
X51882857Y-51015666D01*
X51882857Y-51215666D02*
X54082857Y-51215666D01*
X54082857Y-51015666D02*
X54082857Y-46615666D01*
X51882857Y-50815666D02*
X51882857Y-51315666D01*
X54082857Y-51315666D02*
X54082857Y-51015666D01*
X51882857Y-51115666D02*
X51882857Y-51215666D01*
X51882857Y-51015666D02*
X54082857Y-51015666D01*
X54082857Y-46615666D02*
X51882857Y-46615666D01*
X51882857Y-51315666D02*
X54082857Y-51315666D01*
X54082857Y-51015666D02*
X54082857Y-51115666D01*
X54082857Y-51115666D02*
X51882857Y-51115666D01*
X54082857Y-51315666D02*
X51882857Y-51315666D01*
X54082857Y-51215666D02*
X54082857Y-51315666D01*
%TO.C,D37*%
X116176661Y-50815666D02*
X116176661Y-51315666D01*
X118376661Y-51115666D02*
X116176661Y-51115666D01*
X116176661Y-51215666D02*
X118376661Y-51215666D01*
X116176661Y-51315666D02*
X116176661Y-50815666D01*
X118376661Y-51215666D02*
X118376661Y-51315666D01*
X118376661Y-46615666D02*
X116176661Y-46615666D01*
X116176661Y-51315666D02*
X118376661Y-51315666D01*
X118376661Y-51015666D02*
X118376661Y-46615666D01*
X118376661Y-51315666D02*
X116176661Y-51315666D01*
X116176661Y-51015666D02*
X118376661Y-51015666D01*
X116176661Y-46615666D02*
X116176661Y-51015666D01*
X118376661Y-51315666D02*
X118376661Y-51015666D01*
X118376661Y-51015666D02*
X118376661Y-51115666D01*
X116176661Y-51115666D02*
X116176661Y-51215666D01*
%TO.C,D36*%
X97126645Y-51015666D02*
X99326645Y-51015666D01*
X99326645Y-51215666D02*
X99326645Y-51315666D01*
X99326645Y-46615666D02*
X97126645Y-46615666D01*
X99326645Y-51115666D02*
X97126645Y-51115666D01*
X97126645Y-50815666D02*
X97126645Y-51315666D01*
X99326645Y-51015666D02*
X99326645Y-46615666D01*
X97126645Y-51115666D02*
X97126645Y-51215666D01*
X97126645Y-51315666D02*
X97126645Y-50815666D01*
X99326645Y-51315666D02*
X99326645Y-51015666D01*
X99326645Y-51315666D02*
X97126645Y-51315666D01*
X97126645Y-51315666D02*
X99326645Y-51315666D01*
X99326645Y-51015666D02*
X99326645Y-51115666D01*
X97126645Y-51215666D02*
X99326645Y-51215666D01*
X97126645Y-46615666D02*
X97126645Y-51015666D01*
%TO.C,D38*%
X135226677Y-51215666D02*
X137426677Y-51215666D01*
X135226677Y-51315666D02*
X135226677Y-50815666D01*
X137426677Y-51215666D02*
X137426677Y-51315666D01*
X137426677Y-51115666D02*
X135226677Y-51115666D01*
X135226677Y-50815666D02*
X135226677Y-51315666D01*
X137426677Y-51315666D02*
X137426677Y-51015666D01*
X137426677Y-51015666D02*
X137426677Y-46615666D01*
X135226677Y-46615666D02*
X135226677Y-51015666D01*
X135226677Y-51115666D02*
X135226677Y-51215666D01*
X137426677Y-51315666D02*
X135226677Y-51315666D01*
X137426677Y-46615666D02*
X135226677Y-46615666D01*
X135226677Y-51015666D02*
X137426677Y-51015666D01*
X137426677Y-51015666D02*
X137426677Y-51115666D01*
X135226677Y-51315666D02*
X137426677Y-51315666D01*
%TO.C,D3*%
X65989117Y-12915634D02*
X65989117Y-8515634D01*
X63789117Y-13215634D02*
X63789117Y-12715634D01*
X63789117Y-12915634D02*
X65989117Y-12915634D01*
X65989117Y-8515634D02*
X63789117Y-8515634D01*
X63789117Y-8515634D02*
X63789117Y-12915634D01*
X63789117Y-12715634D02*
X63789117Y-13215634D01*
X65989117Y-12915634D02*
X65989117Y-13015634D01*
X65989117Y-13215634D02*
X63789117Y-13215634D01*
X63789117Y-13215634D02*
X65989117Y-13215634D01*
X63789117Y-13115634D02*
X65989117Y-13115634D01*
X63789117Y-13015634D02*
X63789117Y-13115634D01*
X65989117Y-13215634D02*
X65989117Y-12915634D01*
X65989117Y-13015634D02*
X63789117Y-13015634D01*
X65989117Y-13115634D02*
X65989117Y-13215634D01*
D11*
%TO.C,RGB1*%
X21625000Y-5925000D02*
X19725000Y-5925000D01*
X19725000Y-5925000D02*
X19725000Y-6425000D01*
D10*
%TO.C,D60*%
X242201765Y-70165682D02*
X240001765Y-70165682D01*
X240001765Y-69865682D02*
X240001765Y-70365682D01*
X242201765Y-70065682D02*
X242201765Y-70165682D01*
X240001765Y-70365682D02*
X240001765Y-69865682D01*
X242201765Y-70365682D02*
X242201765Y-70065682D01*
X240001765Y-70265682D02*
X242201765Y-70265682D01*
X242201765Y-70065682D02*
X242201765Y-65665682D01*
X240001765Y-65665682D02*
X240001765Y-70065682D01*
X242201765Y-65665682D02*
X240001765Y-65665682D01*
X242201765Y-70265682D02*
X242201765Y-70365682D01*
X240001765Y-70165682D02*
X240001765Y-70265682D01*
X242201765Y-70365682D02*
X240001765Y-70365682D01*
X240001765Y-70365682D02*
X242201765Y-70365682D01*
X240001765Y-70065682D02*
X242201765Y-70065682D01*
%TO.C,D21*%
X111414157Y-32065650D02*
X111414157Y-32165650D01*
X113614157Y-32265650D02*
X111414157Y-32265650D01*
X111414157Y-27565650D02*
X111414157Y-31965650D01*
X111414157Y-32165650D02*
X113614157Y-32165650D01*
X111414157Y-32265650D02*
X111414157Y-31765650D01*
X113614157Y-27565650D02*
X111414157Y-27565650D01*
X113614157Y-32165650D02*
X113614157Y-32265650D01*
X113614157Y-31965650D02*
X113614157Y-32065650D01*
X111414157Y-31965650D02*
X113614157Y-31965650D01*
X113614157Y-32265650D02*
X113614157Y-31965650D01*
X113614157Y-31965650D02*
X113614157Y-27565650D01*
X111414157Y-32265650D02*
X113614157Y-32265650D01*
X111414157Y-31765650D02*
X111414157Y-32265650D01*
X113614157Y-32065650D02*
X111414157Y-32065650D01*
%TO.C,D2*%
X46939101Y-12915634D02*
X46939101Y-13015634D01*
X44739101Y-8515634D02*
X44739101Y-12915634D01*
X44739101Y-13015634D02*
X44739101Y-13115634D01*
X46939101Y-13115634D02*
X46939101Y-13215634D01*
X46939101Y-12915634D02*
X46939101Y-8515634D01*
X44739101Y-12915634D02*
X46939101Y-12915634D01*
X46939101Y-13215634D02*
X44739101Y-13215634D01*
X44739101Y-13215634D02*
X46939101Y-13215634D01*
X44739101Y-12715634D02*
X44739101Y-13215634D01*
X46939101Y-8515634D02*
X44739101Y-8515634D01*
X44739101Y-13215634D02*
X44739101Y-12715634D01*
X44739101Y-13115634D02*
X46939101Y-13115634D01*
X46939101Y-13215634D02*
X46939101Y-12915634D01*
X46939101Y-13015634D02*
X44739101Y-13015634D01*
%TO.C,D64*%
X317211203Y-70065682D02*
X317211203Y-70165682D01*
X315011203Y-70165682D02*
X315011203Y-70265682D01*
X315011203Y-70365682D02*
X317211203Y-70365682D01*
X315011203Y-70065682D02*
X317211203Y-70065682D01*
X317211203Y-65665682D02*
X315011203Y-65665682D01*
X317211203Y-70265682D02*
X317211203Y-70365682D01*
X317211203Y-70365682D02*
X315011203Y-70365682D01*
X315011203Y-70365682D02*
X315011203Y-69865682D01*
X315011203Y-65665682D02*
X315011203Y-70065682D01*
X317211203Y-70165682D02*
X315011203Y-70165682D01*
X315011203Y-69865682D02*
X315011203Y-70365682D01*
X315011203Y-70265682D02*
X317211203Y-70265682D01*
X317211203Y-70065682D02*
X317211203Y-65665682D01*
X317211203Y-70365682D02*
X317211203Y-70065682D01*
D11*
%TO.C,R103*%
X11128114Y-39138772D02*
X9928114Y-39138772D01*
X9928114Y-40898772D02*
X11128114Y-40898772D01*
D10*
%TO.C,D45*%
X268576789Y-51215666D02*
X270776789Y-51215666D01*
X270776789Y-51015666D02*
X270776789Y-46615666D01*
X268576789Y-51315666D02*
X270776789Y-51315666D01*
X268576789Y-51115666D02*
X268576789Y-51215666D01*
X268576789Y-46615666D02*
X268576789Y-51015666D01*
X270776789Y-51015666D02*
X270776789Y-51115666D01*
X270776789Y-51315666D02*
X270776789Y-51015666D01*
X270776789Y-51215666D02*
X270776789Y-51315666D01*
X268576789Y-51015666D02*
X270776789Y-51015666D01*
X270776789Y-51115666D02*
X268576789Y-51115666D01*
X268576789Y-50815666D02*
X268576789Y-51315666D01*
X268576789Y-51315666D02*
X268576789Y-50815666D01*
X270776789Y-51315666D02*
X268576789Y-51315666D01*
X270776789Y-46615666D02*
X268576789Y-46615666D01*
D11*
%TO.C,SW1*%
X21062520Y-58532849D02*
X21062520Y-56032849D01*
X26112520Y-58982849D02*
X26562520Y-58532849D01*
X26562520Y-58532849D02*
X26562520Y-56032849D01*
X21512520Y-55582849D02*
X21062520Y-56032849D01*
X24812520Y-60032849D02*
X22812520Y-60032849D01*
X24812520Y-54532849D02*
X22812520Y-54532849D01*
X21512520Y-58982849D02*
X21062520Y-58532849D01*
X26112520Y-55582849D02*
X26562520Y-56032849D01*
D10*
%TO.C,D46*%
X272148667Y-51315666D02*
X274348667Y-51315666D01*
X272148667Y-51215666D02*
X274348667Y-51215666D01*
X274348667Y-46615666D02*
X272148667Y-46615666D01*
X272148667Y-51315666D02*
X272148667Y-50815666D01*
X272148667Y-51015666D02*
X274348667Y-51015666D01*
X272148667Y-51115666D02*
X272148667Y-51215666D01*
X274348667Y-51315666D02*
X274348667Y-51015666D01*
X274348667Y-51315666D02*
X272148667Y-51315666D01*
X272148667Y-46615666D02*
X272148667Y-51015666D01*
X274348667Y-51015666D02*
X274348667Y-46615666D01*
X274348667Y-51115666D02*
X272148667Y-51115666D01*
X272148667Y-50815666D02*
X272148667Y-51315666D01*
X274348667Y-51215666D02*
X274348667Y-51315666D01*
X274348667Y-51015666D02*
X274348667Y-51115666D01*
%TO.C,D55*%
X144751685Y-70265682D02*
X146951685Y-70265682D01*
X144751685Y-70365682D02*
X144751685Y-69865682D01*
X144751685Y-69865682D02*
X144751685Y-70365682D01*
X146951685Y-70165682D02*
X144751685Y-70165682D01*
X146951685Y-70365682D02*
X146951685Y-70065682D01*
X146951685Y-70065682D02*
X146951685Y-65665682D01*
X146951685Y-70265682D02*
X146951685Y-70365682D01*
X144751685Y-70065682D02*
X146951685Y-70065682D01*
X146951685Y-65665682D02*
X144751685Y-65665682D01*
X146951685Y-70365682D02*
X144751685Y-70365682D01*
X144751685Y-70165682D02*
X144751685Y-70265682D01*
X146951685Y-70065682D02*
X146951685Y-70165682D01*
X144751685Y-65665682D02*
X144751685Y-70065682D01*
X144751685Y-70365682D02*
X146951685Y-70365682D01*
%TO.C,D1*%
X18364077Y-13215634D02*
X16164077Y-13215634D01*
X18364077Y-8515634D02*
X16164077Y-8515634D01*
X16164077Y-12915634D02*
X18364077Y-12915634D01*
X16164077Y-13015634D02*
X16164077Y-13115634D01*
X18364077Y-12915634D02*
X18364077Y-8515634D01*
X16164077Y-13215634D02*
X18364077Y-13215634D01*
X18364077Y-12915634D02*
X18364077Y-13015634D01*
X18364077Y-13015634D02*
X16164077Y-13015634D01*
X16164077Y-8515634D02*
X16164077Y-12915634D01*
X18364077Y-13215634D02*
X18364077Y-12915634D01*
X16164077Y-13115634D02*
X18364077Y-13115634D01*
X18364077Y-13115634D02*
X18364077Y-13215634D01*
X16164077Y-12715634D02*
X16164077Y-13215634D01*
X16164077Y-13215634D02*
X16164077Y-12715634D01*
%TO.C,D77*%
X273339293Y-89315698D02*
X275539293Y-89315698D01*
X275539293Y-84715698D02*
X273339293Y-84715698D01*
X273339293Y-89115698D02*
X275539293Y-89115698D01*
X275539293Y-89215698D02*
X273339293Y-89215698D01*
X273339293Y-84715698D02*
X273339293Y-89115698D01*
X275539293Y-89415698D02*
X275539293Y-89115698D01*
X275539293Y-89315698D02*
X275539293Y-89415698D01*
X275539293Y-89415698D02*
X273339293Y-89415698D01*
X275539293Y-89115698D02*
X275539293Y-84715698D01*
X275539293Y-89115698D02*
X275539293Y-89215698D01*
X273339293Y-89415698D02*
X275539293Y-89415698D01*
X273339293Y-88915698D02*
X273339293Y-89415698D01*
X273339293Y-89415698D02*
X273339293Y-88915698D01*
X273339293Y-89215698D02*
X273339293Y-89315698D01*
%TO.C,D17*%
X18364077Y-32265650D02*
X18364077Y-31965650D01*
X18364077Y-32265650D02*
X16164077Y-32265650D01*
X16164077Y-32265650D02*
X16164077Y-31765650D01*
X16164077Y-32265650D02*
X18364077Y-32265650D01*
X16164077Y-31965650D02*
X18364077Y-31965650D01*
X16164077Y-32165650D02*
X18364077Y-32165650D01*
X16164077Y-32065650D02*
X16164077Y-32165650D01*
X18364077Y-32165650D02*
X18364077Y-32265650D01*
X18364077Y-27565650D02*
X16164077Y-27565650D01*
X18364077Y-31965650D02*
X18364077Y-32065650D01*
X16164077Y-31765650D02*
X16164077Y-32265650D01*
X16164077Y-27565650D02*
X16164077Y-31965650D01*
X18364077Y-32065650D02*
X16164077Y-32065650D01*
X18364077Y-31965650D02*
X18364077Y-27565650D01*
D11*
%TO.C,X1*%
X32418756Y-25935947D02*
X32418756Y-26335947D01*
X29118756Y-25935947D02*
X29118756Y-26335947D01*
X32418756Y-25935947D02*
X32418756Y-23935947D01*
X29118756Y-23935947D02*
X29268756Y-23935947D01*
X32618756Y-23935947D02*
X32618756Y-25935947D01*
X32418756Y-26335947D02*
X32268756Y-26335947D01*
X32418756Y-23935947D02*
X32268756Y-23935947D01*
X29118756Y-26335947D02*
X29268756Y-26335947D01*
X32618756Y-25935947D02*
X32618756Y-26335947D01*
X29118756Y-23935947D02*
X29118756Y-25935947D01*
D10*
%TO.C,D27*%
X225714253Y-32265650D02*
X225714253Y-31765650D01*
X225714253Y-31965650D02*
X227914253Y-31965650D01*
X227914253Y-32265650D02*
X227914253Y-31965650D01*
X227914253Y-31965650D02*
X227914253Y-32065650D01*
X225714253Y-32265650D02*
X227914253Y-32265650D01*
X225714253Y-32065650D02*
X225714253Y-32165650D01*
X225714253Y-31765650D02*
X225714253Y-32265650D01*
X227914253Y-27565650D02*
X225714253Y-27565650D01*
X225714253Y-32165650D02*
X227914253Y-32165650D01*
X225714253Y-27565650D02*
X225714253Y-31965650D01*
X227914253Y-32065650D02*
X225714253Y-32065650D01*
X227914253Y-32265650D02*
X225714253Y-32265650D01*
X227914253Y-32165650D02*
X227914253Y-32265650D01*
X227914253Y-31965650D02*
X227914253Y-27565650D01*
%TD*%
M02*
