%TF.GenerationSoftware,KiCad,Pcbnew,(5.99.0-12740-g895f4ca989)*%
%TF.CreationDate,2021-10-23T17:36:28+02:00*%
%TF.ProjectId,mamooth,6d616d6f-6f74-4682-9e6b-696361645f70,rev?*%
%TF.SameCoordinates,Original*%
%TF.FileFunction,Soldermask,Bot*%
%TF.FilePolarity,Negative*%
%FSLAX46Y46*%
G04 Gerber Fmt 4.6, Leading zero omitted, Abs format (unit mm)*
G04 Created by KiCad (PCBNEW (5.99.0-12740-g895f4ca989)) date 2021-10-23 17:36:28*
%MOMM*%
%LPD*%
G01*
G04 APERTURE LIST*
G04 Aperture macros list*
%AMRoundRect*
0 Rectangle with rounded corners*
0 $1 Rounding radius*
0 $2 $3 $4 $5 $6 $7 $8 $9 X,Y pos of 4 corners*
0 Add a 4 corners polygon primitive as box body*
4,1,4,$2,$3,$4,$5,$6,$7,$8,$9,$2,$3,0*
0 Add four circle primitives for the rounded corners*
1,1,$1+$1,$2,$3*
1,1,$1+$1,$4,$5*
1,1,$1+$1,$6,$7*
1,1,$1+$1,$8,$9*
0 Add four rect primitives between the rounded corners*
20,1,$1+$1,$2,$3,$4,$5,0*
20,1,$1+$1,$4,$5,$6,$7,0*
20,1,$1+$1,$6,$7,$8,$9,0*
20,1,$1+$1,$8,$9,$2,$3,0*%
G04 Aperture macros list end*
%ADD10C,3.987800*%
%ADD11C,1.701800*%
%ADD12C,2.286000*%
%ADD13C,3.048000*%
%ADD14R,1.400000X1.400000*%
%ADD15RoundRect,0.150000X0.775000X-0.150000X0.775000X0.150000X-0.775000X0.150000X-0.775000X-0.150000X0*%
%ADD16RoundRect,0.332800X0.567200X-0.467200X0.567200X0.467200X-0.567200X0.467200X-0.567200X-0.467200X0*%
%ADD17R,1.300000X1.200000*%
%ADD18R,1.250000X1.200000*%
%ADD19R,1.500000X0.550000*%
%ADD20R,0.550000X1.500000*%
%ADD21R,1.700000X1.700000*%
%ADD22O,1.700000X1.700000*%
%ADD23R,0.500000X1.500000*%
%ADD24O,1.500000X2.600000*%
%ADD25R,1.200000X1.250000*%
%ADD26R,0.600000X1.200000*%
%ADD27R,1.800000X0.820000*%
%ADD28R,1.200000X1.300000*%
%ADD29R,1.000000X1.700000*%
%ADD30R,0.400000X2.000000*%
G04 APERTURE END LIST*
D10*
%TO.C,K45*%
X261937500Y-47625000D03*
D11*
X267017500Y-47625000D03*
X256857500Y-47625000D03*
D12*
X264477500Y-42545000D03*
X258127500Y-45085000D03*
%TD*%
D10*
%TO.C,K63*%
X304800000Y-66675000D03*
D11*
X309880000Y-66675000D03*
X299720000Y-66675000D03*
D12*
X307340000Y-61595000D03*
X300990000Y-64135000D03*
%TD*%
D10*
%TO.C,K22*%
X123825000Y-28575000D03*
D11*
X118745000Y-28575000D03*
X128905000Y-28575000D03*
D12*
X126365000Y-23495000D03*
X120015000Y-26035000D03*
%TD*%
D11*
%TO.C,K76*%
X242570000Y-85725000D03*
X252730000Y-85725000D03*
D10*
X247650000Y-85725000D03*
D12*
X250190000Y-80645000D03*
X243840000Y-83185000D03*
%TD*%
D10*
%TO.C,K24*%
X161925000Y-28575000D03*
D11*
X156845000Y-28575000D03*
X167005000Y-28575000D03*
D12*
X164465000Y-23495000D03*
X158115000Y-26035000D03*
%TD*%
D10*
%TO.C,K46*%
X280987500Y-47625000D03*
D11*
X275907500Y-47625000D03*
X286067500Y-47625000D03*
D12*
X283527500Y-42545000D03*
X277177500Y-45085000D03*
%TD*%
D11*
%TO.C,K67*%
X69373750Y-85725000D03*
X59213750Y-85725000D03*
D10*
X64293750Y-85725000D03*
D12*
X66833750Y-80645000D03*
X60483750Y-83185000D03*
%TD*%
D11*
%TO.C,K19*%
X61595000Y-28575000D03*
X71755000Y-28575000D03*
D10*
X66675000Y-28575000D03*
D12*
X69215000Y-23495000D03*
X62865000Y-26035000D03*
%TD*%
D11*
%TO.C,K46-1*%
X305117500Y-28575000D03*
X294957500Y-28575000D03*
D10*
X300037500Y-28575000D03*
D12*
X302577500Y-23495000D03*
X296227500Y-26035000D03*
%TD*%
D11*
%TO.C,K4*%
X81280000Y-9525000D03*
D10*
X76200000Y-9525000D03*
D11*
X71120000Y-9525000D03*
D12*
X78740000Y-4445000D03*
X72390000Y-6985000D03*
%TD*%
D11*
%TO.C,K32*%
X328930000Y-28575000D03*
X318770000Y-28575000D03*
D10*
X323850000Y-28575000D03*
D12*
X326390000Y-23495000D03*
X320040000Y-26035000D03*
%TD*%
D11*
%TO.C,K62*%
X273526250Y-66675000D03*
D10*
X278606250Y-66675000D03*
D11*
X283686250Y-66675000D03*
D12*
X281146250Y-61595000D03*
X274796250Y-64135000D03*
%TD*%
D11*
%TO.C,K44*%
X247967500Y-47625000D03*
D10*
X242887500Y-47625000D03*
D11*
X237807500Y-47625000D03*
D12*
X245427500Y-42545000D03*
X239077500Y-45085000D03*
%TD*%
D11*
%TO.C,K75-2*%
X228282696Y-85725072D03*
X238442696Y-85725072D03*
D10*
X233362696Y-85725072D03*
D12*
X235902696Y-80645072D03*
X229552696Y-83185072D03*
%TD*%
D11*
%TO.C,K13*%
X242570000Y-9525000D03*
D10*
X247650000Y-9525000D03*
D11*
X252730000Y-9525000D03*
D12*
X250190000Y-4445000D03*
X243840000Y-6985000D03*
%TD*%
D11*
%TO.C,K35*%
X66357500Y-47625000D03*
D10*
X71437500Y-47625000D03*
D11*
X76517500Y-47625000D03*
D12*
X73977500Y-42545000D03*
X67627500Y-45085000D03*
%TD*%
D11*
%TO.C,K36*%
X95567500Y-47625000D03*
D10*
X90487500Y-47625000D03*
D11*
X85407500Y-47625000D03*
D12*
X93027500Y-42545000D03*
X86677500Y-45085000D03*
%TD*%
D10*
%TO.C,K31*%
X285750000Y-9525000D03*
D11*
X280670000Y-9525000D03*
X290830000Y-9525000D03*
D12*
X288290000Y-4445000D03*
X281940000Y-6985000D03*
%TD*%
D10*
%TO.C,K58*%
X195262500Y-66675000D03*
D11*
X200342500Y-66675000D03*
X190182500Y-66675000D03*
D12*
X197802500Y-61595000D03*
X191452500Y-64135000D03*
%TD*%
D10*
%TO.C,K72*%
X109505750Y-77470000D03*
X159543750Y-85725000D03*
D11*
X164623750Y-85725000D03*
D10*
X209581750Y-77470000D03*
D13*
X109505750Y-92710000D03*
X209581750Y-92710000D03*
D11*
X154463750Y-85725000D03*
D12*
X162083750Y-80645000D03*
X155733750Y-83185000D03*
%TD*%
D11*
%TO.C,K2*%
X33020000Y-9525000D03*
X43180000Y-9525000D03*
D10*
X38100000Y-9525000D03*
D12*
X40640000Y-4445000D03*
X34290000Y-6985000D03*
%TD*%
D10*
%TO.C,K72-1*%
X95218378Y-77470072D03*
D13*
X95218378Y-92710072D03*
X209581878Y-92710072D03*
D11*
X147320128Y-85725072D03*
D10*
X152400128Y-85725072D03*
D11*
X157480128Y-85725072D03*
D10*
X209581878Y-77470072D03*
D12*
X154940128Y-80645072D03*
X148590128Y-83185072D03*
%TD*%
D11*
%TO.C,K21*%
X99695000Y-28575000D03*
D10*
X104775000Y-28575000D03*
D11*
X109855000Y-28575000D03*
D12*
X107315000Y-23495000D03*
X100965000Y-26035000D03*
%TD*%
D11*
%TO.C,K68*%
X83026250Y-85725000D03*
D10*
X88106250Y-85725000D03*
D11*
X93186250Y-85725000D03*
D12*
X90646250Y-80645000D03*
X84296250Y-83185000D03*
%TD*%
D11*
%TO.C,K51*%
X66992500Y-66675000D03*
X56832500Y-66675000D03*
D10*
X61912500Y-66675000D03*
D12*
X64452500Y-61595000D03*
X58102500Y-64135000D03*
%TD*%
D11*
%TO.C,K27*%
X224155000Y-28575000D03*
X213995000Y-28575000D03*
D10*
X219075000Y-28575000D03*
D12*
X221615000Y-23495000D03*
X215265000Y-26035000D03*
%TD*%
D11*
%TO.C,K25*%
X186055000Y-28575000D03*
D10*
X180975000Y-28575000D03*
D11*
X175895000Y-28575000D03*
D12*
X183515000Y-23495000D03*
X177165000Y-26035000D03*
%TD*%
D11*
%TO.C,K75-1*%
X236061250Y-85725000D03*
D10*
X230981250Y-85725000D03*
D11*
X225901250Y-85725000D03*
D12*
X233521250Y-80645000D03*
X227171250Y-83185000D03*
%TD*%
D10*
%TO.C,K66*%
X40481250Y-85725000D03*
D11*
X45561250Y-85725000D03*
X35401250Y-85725000D03*
D12*
X43021250Y-80645000D03*
X36671250Y-83185000D03*
%TD*%
D11*
%TO.C,K76-1*%
X249713750Y-85725000D03*
D10*
X254793750Y-85725000D03*
D11*
X259873750Y-85725000D03*
D12*
X257333750Y-80645000D03*
X250983750Y-83185000D03*
%TD*%
D11*
%TO.C,K43*%
X218757500Y-47625000D03*
D10*
X223837500Y-47625000D03*
D11*
X228917500Y-47625000D03*
D12*
X226377500Y-42545000D03*
X220027500Y-45085000D03*
%TD*%
D10*
%TO.C,K11*%
X209550000Y-9525000D03*
D11*
X204470000Y-9525000D03*
X214630000Y-9525000D03*
D12*
X212090000Y-4445000D03*
X205740000Y-6985000D03*
%TD*%
D11*
%TO.C,K56*%
X152082500Y-66675000D03*
X162242500Y-66675000D03*
D10*
X157162500Y-66675000D03*
D12*
X159702500Y-61595000D03*
X153352500Y-64135000D03*
%TD*%
D11*
%TO.C,K15-1*%
X299720000Y-9525000D03*
X309880000Y-9525000D03*
D10*
X304800000Y-9525000D03*
D12*
X307340000Y-4445000D03*
X300990000Y-6985000D03*
%TD*%
D11*
%TO.C,K57*%
X171132500Y-66675000D03*
D10*
X176212500Y-66675000D03*
D11*
X181292500Y-66675000D03*
D12*
X178752500Y-61595000D03*
X172402500Y-64135000D03*
%TD*%
D10*
%TO.C,K59*%
X214312500Y-66675000D03*
D11*
X219392500Y-66675000D03*
X209232500Y-66675000D03*
D12*
X216852500Y-61595000D03*
X210502500Y-64135000D03*
%TD*%
D11*
%TO.C,K49*%
X4445000Y-66675000D03*
X14605000Y-66675000D03*
D10*
X9525000Y-66675000D03*
D12*
X12065000Y-61595000D03*
X5715000Y-64135000D03*
%TD*%
D11*
%TO.C,K15*%
X290195000Y-9525000D03*
D13*
X307213000Y-2540000D03*
D11*
X300355000Y-9525000D03*
D10*
X283337000Y-17780000D03*
D13*
X283337000Y-2540000D03*
D10*
X295275000Y-9525000D03*
X307213000Y-17780000D03*
D12*
X297815000Y-4445000D03*
X291465000Y-6985000D03*
%TD*%
D10*
%TO.C,K37*%
X109537500Y-47625000D03*
D11*
X104457500Y-47625000D03*
X114617500Y-47625000D03*
D12*
X112077500Y-42545000D03*
X105727500Y-45085000D03*
%TD*%
D11*
%TO.C,K18*%
X47942500Y-28575000D03*
D10*
X42862500Y-28575000D03*
D11*
X37782500Y-28575000D03*
D12*
X45402500Y-23495000D03*
X39052500Y-26035000D03*
%TD*%
D10*
%TO.C,K42*%
X204787500Y-47625000D03*
D11*
X209867500Y-47625000D03*
X199707500Y-47625000D03*
D12*
X207327500Y-42545000D03*
X200977500Y-45085000D03*
%TD*%
D11*
%TO.C,K77-1*%
X256857720Y-85725072D03*
D10*
X261937720Y-85725072D03*
D11*
X267017720Y-85725072D03*
D12*
X264477720Y-80645072D03*
X258127720Y-83185072D03*
%TD*%
D11*
%TO.C,K30*%
X271145000Y-28575000D03*
D10*
X276225000Y-28575000D03*
D11*
X281305000Y-28575000D03*
D12*
X278765000Y-23495000D03*
X272415000Y-26035000D03*
%TD*%
D11*
%TO.C,K78*%
X290830000Y-85725000D03*
D10*
X285750000Y-85725000D03*
D11*
X280670000Y-85725000D03*
D12*
X288290000Y-80645000D03*
X281940000Y-83185000D03*
%TD*%
D11*
%TO.C,K54*%
X113982500Y-66675000D03*
D10*
X119062500Y-66675000D03*
D11*
X124142500Y-66675000D03*
D12*
X121602500Y-61595000D03*
X115252500Y-64135000D03*
%TD*%
D10*
%TO.C,K47-1*%
X294163750Y-26162000D03*
D13*
X309403750Y-26162000D03*
D11*
X297338750Y-38100000D03*
X307498750Y-38100000D03*
D10*
X294163750Y-50038000D03*
D13*
X309403750Y-50038000D03*
D10*
X302418750Y-38100000D03*
D12*
X304958750Y-33020000D03*
X298608750Y-35560000D03*
%TD*%
D10*
%TO.C,K29*%
X257175000Y-28575000D03*
D11*
X262255000Y-28575000D03*
X252095000Y-28575000D03*
D12*
X259715000Y-23495000D03*
X253365000Y-26035000D03*
%TD*%
D11*
%TO.C,K9*%
X176530000Y-9525000D03*
D10*
X171450000Y-9525000D03*
D11*
X166370000Y-9525000D03*
D12*
X173990000Y-4445000D03*
X167640000Y-6985000D03*
%TD*%
D10*
%TO.C,K80*%
X323850000Y-85725000D03*
D11*
X328930000Y-85725000D03*
X318770000Y-85725000D03*
D12*
X326390000Y-80645000D03*
X320040000Y-83185000D03*
%TD*%
D11*
%TO.C,K1*%
X4445000Y-9525000D03*
X14605000Y-9525000D03*
D10*
X9525000Y-9525000D03*
D12*
X12065000Y-4445000D03*
X5715000Y-6985000D03*
%TD*%
D11*
%TO.C,K75*%
X233680000Y-85725000D03*
D10*
X228600000Y-85725000D03*
D11*
X223520000Y-85725000D03*
D12*
X231140000Y-80645000D03*
X224790000Y-83185000D03*
%TD*%
D10*
%TO.C,K28*%
X238125000Y-28575000D03*
D11*
X243205000Y-28575000D03*
X233045000Y-28575000D03*
D12*
X240665000Y-23495000D03*
X234315000Y-26035000D03*
%TD*%
D11*
%TO.C,K7*%
X138430000Y-9525000D03*
D10*
X133350000Y-9525000D03*
D11*
X128270000Y-9525000D03*
D12*
X135890000Y-4445000D03*
X129540000Y-6985000D03*
%TD*%
D11*
%TO.C,K39*%
X142557500Y-47625000D03*
D10*
X147637500Y-47625000D03*
D11*
X152717500Y-47625000D03*
D12*
X150177500Y-42545000D03*
X143827500Y-45085000D03*
%TD*%
D11*
%TO.C,K16*%
X328930000Y-9525000D03*
D10*
X323850000Y-9525000D03*
D11*
X318770000Y-9525000D03*
D12*
X326390000Y-4445000D03*
X320040000Y-6985000D03*
%TD*%
D11*
%TO.C,K52*%
X86042500Y-66675000D03*
D10*
X80962500Y-66675000D03*
D11*
X75882500Y-66675000D03*
D12*
X83502500Y-61595000D03*
X77152500Y-64135000D03*
%TD*%
D13*
%TO.C,K50*%
X61944250Y-59690000D03*
D10*
X61944250Y-74930000D03*
D13*
X38068250Y-59690000D03*
D10*
X50006250Y-66675000D03*
D11*
X44926250Y-66675000D03*
X55086250Y-66675000D03*
D10*
X38068250Y-74930000D03*
D12*
X52546250Y-61595000D03*
X46196250Y-64135000D03*
%TD*%
D10*
%TO.C,K47*%
X304831750Y-55880000D03*
X280955750Y-55880000D03*
D11*
X287813750Y-47625000D03*
X297973750Y-47625000D03*
D13*
X304831750Y-40640000D03*
X280955750Y-40640000D03*
D10*
X292893750Y-47625000D03*
D12*
X295433750Y-42545000D03*
X289083750Y-45085000D03*
%TD*%
D10*
%TO.C,K60*%
X233362500Y-66675000D03*
D11*
X238442500Y-66675000D03*
X228282500Y-66675000D03*
D12*
X235902500Y-61595000D03*
X229552500Y-64135000D03*
%TD*%
D10*
%TO.C,K23*%
X142875000Y-28575000D03*
D11*
X147955000Y-28575000D03*
X137795000Y-28575000D03*
D12*
X145415000Y-23495000D03*
X139065000Y-26035000D03*
%TD*%
D10*
%TO.C,K33*%
X9525000Y-47625000D03*
D11*
X14605000Y-47625000D03*
X4445000Y-47625000D03*
D12*
X12065000Y-42545000D03*
X5715000Y-45085000D03*
%TD*%
D11*
%TO.C,K38*%
X123507500Y-47625000D03*
X133667500Y-47625000D03*
D10*
X128587500Y-47625000D03*
D12*
X131127500Y-42545000D03*
X124777500Y-45085000D03*
%TD*%
D11*
%TO.C,K3*%
X62230000Y-9525000D03*
D10*
X57150000Y-9525000D03*
D11*
X52070000Y-9525000D03*
D12*
X59690000Y-4445000D03*
X53340000Y-6985000D03*
%TD*%
D11*
%TO.C,K10*%
X185420000Y-9525000D03*
X195580000Y-9525000D03*
D10*
X190500000Y-9525000D03*
D12*
X193040000Y-4445000D03*
X186690000Y-6985000D03*
%TD*%
D11*
%TO.C,K26*%
X194945000Y-28575000D03*
X205105000Y-28575000D03*
D10*
X200025000Y-28575000D03*
D12*
X202565000Y-23495000D03*
X196215000Y-26035000D03*
%TD*%
D11*
%TO.C,K34-1*%
X45561250Y-47625000D03*
D10*
X40481250Y-47625000D03*
D11*
X35401250Y-47625000D03*
D12*
X43021250Y-42545000D03*
X36671250Y-45085000D03*
%TD*%
D10*
%TO.C,K65*%
X9525000Y-85725000D03*
D11*
X14605000Y-85725000D03*
X4445000Y-85725000D03*
D12*
X12065000Y-80645000D03*
X5715000Y-83185000D03*
%TD*%
D10*
%TO.C,K14*%
X266700000Y-9525000D03*
D11*
X261620000Y-9525000D03*
X271780000Y-9525000D03*
D12*
X269240000Y-4445000D03*
X262890000Y-6985000D03*
%TD*%
D11*
%TO.C,K5*%
X100330000Y-9525000D03*
X90170000Y-9525000D03*
D10*
X95250000Y-9525000D03*
D12*
X97790000Y-4445000D03*
X91440000Y-6985000D03*
%TD*%
D11*
%TO.C,K17*%
X4445000Y-28575000D03*
D10*
X9525000Y-28575000D03*
D11*
X14605000Y-28575000D03*
D12*
X12065000Y-23495000D03*
X5715000Y-26035000D03*
%TD*%
D11*
%TO.C,K55*%
X143192500Y-66675000D03*
D10*
X138112500Y-66675000D03*
D11*
X133032500Y-66675000D03*
D12*
X140652500Y-61595000D03*
X134302500Y-64135000D03*
%TD*%
D11*
%TO.C,K64*%
X318770000Y-66675000D03*
D10*
X323850000Y-66675000D03*
D11*
X328930000Y-66675000D03*
D12*
X326390000Y-61595000D03*
X320040000Y-64135000D03*
%TD*%
D10*
%TO.C,K53*%
X100012500Y-66675000D03*
D11*
X105092500Y-66675000D03*
X94932500Y-66675000D03*
D12*
X102552500Y-61595000D03*
X96202500Y-64135000D03*
%TD*%
D11*
%TO.C,K61*%
X247332500Y-66675000D03*
D10*
X252412500Y-66675000D03*
D11*
X257492500Y-66675000D03*
D12*
X254952500Y-61595000D03*
X248602500Y-64135000D03*
%TD*%
D10*
%TO.C,K77*%
X266700000Y-85725000D03*
D11*
X261620000Y-85725000D03*
X271780000Y-85725000D03*
D12*
X269240000Y-80645000D03*
X262890000Y-83185000D03*
%TD*%
D11*
%TO.C,K8*%
X157480000Y-9525000D03*
D10*
X152400000Y-9525000D03*
D11*
X147320000Y-9525000D03*
D12*
X154940000Y-4445000D03*
X148590000Y-6985000D03*
%TD*%
D11*
%TO.C,K79*%
X309880000Y-85725000D03*
D10*
X304800000Y-85725000D03*
D11*
X299720000Y-85725000D03*
D12*
X307340000Y-80645000D03*
X300990000Y-83185000D03*
%TD*%
D11*
%TO.C,K34*%
X40163750Y-47625000D03*
X50323750Y-47625000D03*
D10*
X45243750Y-47625000D03*
D12*
X47783750Y-42545000D03*
X41433750Y-45085000D03*
%TD*%
D11*
%TO.C,K41*%
X180657500Y-47625000D03*
D10*
X185737500Y-47625000D03*
D11*
X190817500Y-47625000D03*
D12*
X188277500Y-42545000D03*
X181927500Y-45085000D03*
%TD*%
D11*
%TO.C,K50-1*%
X35401250Y-66675000D03*
X45561250Y-66675000D03*
D10*
X40481250Y-66675000D03*
D12*
X43021250Y-61595000D03*
X36671250Y-64135000D03*
%TD*%
D10*
%TO.C,K12*%
X228600000Y-9525000D03*
D11*
X233680000Y-9525000D03*
X223520000Y-9525000D03*
D12*
X231140000Y-4445000D03*
X224790000Y-6985000D03*
%TD*%
D10*
%TO.C,K40*%
X166687500Y-47625000D03*
D11*
X171767500Y-47625000D03*
X161607500Y-47625000D03*
D12*
X169227500Y-42545000D03*
X162877500Y-45085000D03*
%TD*%
D11*
%TO.C,K20*%
X80645000Y-28575000D03*
X90805000Y-28575000D03*
D10*
X85725000Y-28575000D03*
D12*
X88265000Y-23495000D03*
X81915000Y-26035000D03*
%TD*%
D10*
%TO.C,K67-1*%
X71437560Y-85725072D03*
D11*
X66357560Y-85725072D03*
X76517560Y-85725072D03*
D12*
X73977560Y-80645072D03*
X67627560Y-83185072D03*
%TD*%
D10*
%TO.C,K6*%
X114300000Y-9525000D03*
D11*
X119380000Y-9525000D03*
X109220000Y-9525000D03*
D12*
X116840000Y-4445000D03*
X110490000Y-6985000D03*
%TD*%
D10*
%TO.C,K48*%
X323850000Y-47625000D03*
D11*
X328930000Y-47625000D03*
X318770000Y-47625000D03*
D12*
X326390000Y-42545000D03*
X320040000Y-45085000D03*
%TD*%
D10*
%TO.C,K66-1*%
X42862536Y-85725072D03*
D11*
X37782536Y-85725072D03*
X47942536Y-85725072D03*
D12*
X45402536Y-80645072D03*
X39052536Y-83185072D03*
%TD*%
D14*
%TO.C,D7*%
X141089181Y-11915634D03*
X141089181Y-9515634D03*
%TD*%
%TO.C,D53*%
X107751653Y-69065682D03*
X107751653Y-66665682D03*
%TD*%
D15*
%TO.C,J3*%
X273612416Y-19954663D03*
X273612416Y-18954663D03*
X273612416Y-17954663D03*
X273612416Y-16954663D03*
D16*
X269587416Y-21454663D03*
X269587416Y-15454663D03*
%TD*%
D14*
%TO.C,D6*%
X122039165Y-11915634D03*
X122039165Y-9515634D03*
%TD*%
%TO.C,D20*%
X93464141Y-30965650D03*
X93464141Y-28565650D03*
%TD*%
%TO.C,D16*%
X316111203Y-11915634D03*
X316111203Y-9515634D03*
%TD*%
%TO.C,D26*%
X207764237Y-30965650D03*
X207764237Y-28565650D03*
%TD*%
%TO.C,D42*%
X212526741Y-50015666D03*
X212526741Y-47615666D03*
%TD*%
%TO.C,D78*%
X293489309Y-88115698D03*
X293489309Y-85715698D03*
%TD*%
D17*
%TO.C,R102*%
X275034606Y-11815634D03*
X275034606Y-9615634D03*
%TD*%
D14*
%TO.C,D75*%
X220861123Y-88115698D03*
X220861123Y-85715698D03*
%TD*%
%TO.C,D15*%
X312539325Y-11915634D03*
X312539325Y-9515634D03*
%TD*%
%TO.C,D31*%
X255389277Y-11915634D03*
X255389277Y-9515634D03*
%TD*%
%TO.C,D76*%
X278011171Y-88115698D03*
X278011171Y-85715698D03*
%TD*%
%TO.C,D72*%
X167282953Y-88115698D03*
X167282953Y-85715698D03*
%TD*%
%TO.C,D66*%
X50601605Y-88115698D03*
X50601605Y-85715698D03*
%TD*%
%TO.C,D68*%
X95845393Y-88115698D03*
X95845393Y-85715698D03*
%TD*%
%TO.C,D41*%
X193476725Y-50015666D03*
X193476725Y-47615666D03*
%TD*%
%TO.C,D65*%
X17264077Y-88115698D03*
X17264077Y-85715698D03*
%TD*%
D17*
%TO.C,F1*%
X273248667Y-6457817D03*
X273248667Y-4257817D03*
%TD*%
D14*
%TO.C,D11*%
X217289245Y-11915634D03*
X217289245Y-9515634D03*
%TD*%
%TO.C,D49*%
X17264077Y-69065682D03*
X17264077Y-66665682D03*
%TD*%
%TO.C,D9*%
X179189213Y-11915634D03*
X179189213Y-9515634D03*
%TD*%
D18*
%TO.C,C101*%
X21243748Y-42309398D03*
X21243748Y-40109398D03*
%TD*%
D14*
%TO.C,D5*%
X102989149Y-11915634D03*
X102989149Y-9515634D03*
%TD*%
%TO.C,D47*%
X300633065Y-50015666D03*
X300633065Y-47615666D03*
%TD*%
D19*
%TO.C,U1*%
X25068756Y-40446894D03*
X25068756Y-39646894D03*
X25068756Y-38846894D03*
X25068756Y-38046894D03*
X25068756Y-37246894D03*
X25068756Y-36446894D03*
X25068756Y-35646894D03*
X25068756Y-34846894D03*
X25068756Y-34046894D03*
X25068756Y-33246894D03*
X25068756Y-32446894D03*
D20*
X26768756Y-30746894D03*
X27568756Y-30746894D03*
X28368756Y-30746894D03*
X29168756Y-30746894D03*
X29968756Y-30746894D03*
X30768756Y-30746894D03*
X31568756Y-30746894D03*
X32368756Y-30746894D03*
X33168756Y-30746894D03*
X33968756Y-30746894D03*
X34768756Y-30746894D03*
D19*
X36468756Y-32446894D03*
X36468756Y-33246894D03*
X36468756Y-34046894D03*
X36468756Y-34846894D03*
X36468756Y-35646894D03*
X36468756Y-36446894D03*
X36468756Y-37246894D03*
X36468756Y-38046894D03*
X36468756Y-38846894D03*
X36468756Y-39646894D03*
X36468756Y-40446894D03*
D20*
X34768756Y-42146894D03*
X33968756Y-42146894D03*
X33168756Y-42146894D03*
X32368756Y-42146894D03*
X31568756Y-42146894D03*
X30768756Y-42146894D03*
X29968756Y-42146894D03*
X29168756Y-42146894D03*
X28368756Y-42146894D03*
X27568756Y-42146894D03*
X26768756Y-42146894D03*
%TD*%
D14*
%TO.C,D67*%
X79176629Y-88115698D03*
X79176629Y-85715698D03*
%TD*%
D21*
%TO.C,J2*%
X13068114Y-37121581D03*
D22*
X13068114Y-34581581D03*
X10528114Y-37121581D03*
X10528114Y-34581581D03*
X7988114Y-37121581D03*
X7988114Y-34581581D03*
%TD*%
D14*
%TO.C,D50*%
X69651621Y-69065682D03*
X69651621Y-66665682D03*
%TD*%
%TO.C,D48*%
X316111203Y-50015666D03*
X316111203Y-47615666D03*
%TD*%
%TO.C,D14*%
X258961155Y-11915634D03*
X258961155Y-9515634D03*
%TD*%
D23*
%TO.C,J1*%
X274625000Y7025000D03*
X275425000Y7025000D03*
X276225000Y7025000D03*
X277025000Y7025000D03*
X277825000Y7025000D03*
D24*
X272575000Y12275000D03*
X279875000Y12275000D03*
X279875000Y7475000D03*
X272575000Y7475000D03*
%TD*%
D14*
%TO.C,D4*%
X83939133Y-11915634D03*
X83939133Y-9515634D03*
%TD*%
%TO.C,D62*%
X286345553Y-69065682D03*
X286345553Y-66665682D03*
%TD*%
%TO.C,D79*%
X312539325Y-88115698D03*
X312539325Y-85715698D03*
%TD*%
%TO.C,D24*%
X169664205Y-30965650D03*
X169664205Y-28565650D03*
%TD*%
D17*
%TO.C,R105*%
X17264077Y-7053130D03*
X17264077Y-4853130D03*
%TD*%
D25*
%TO.C,C106*%
X18176557Y-40614085D03*
X15976557Y-40614085D03*
%TD*%
D14*
%TO.C,D80*%
X316111203Y-88115698D03*
X316111203Y-85715698D03*
%TD*%
%TO.C,D25*%
X188714221Y-30965650D03*
X188714221Y-28565650D03*
%TD*%
%TO.C,D33*%
X17264077Y-50015666D03*
X17264077Y-47615666D03*
%TD*%
%TO.C,D35*%
X79176629Y-50015666D03*
X79176629Y-47615666D03*
%TD*%
%TO.C,D52*%
X88701637Y-69065682D03*
X88701637Y-66665682D03*
%TD*%
%TO.C,D40*%
X174426709Y-50015666D03*
X174426709Y-47615666D03*
%TD*%
%TO.C,D32*%
X316111203Y-30965650D03*
X316111203Y-28565650D03*
%TD*%
%TO.C,D23*%
X150614189Y-30965650D03*
X150614189Y-28565650D03*
%TD*%
D18*
%TO.C,C102*%
X26601565Y-48857841D03*
X26601565Y-46657841D03*
%TD*%
D14*
%TO.C,D30*%
X283964301Y-30965650D03*
X283964301Y-28565650D03*
%TD*%
D26*
%TO.C,U2*%
X275870545Y-4207817D03*
X276820545Y-4207817D03*
X277770545Y-4207817D03*
X277770545Y-6507817D03*
X276820545Y-6507817D03*
X275870545Y-6507817D03*
%TD*%
D18*
%TO.C,C105*%
X34340634Y-12725000D03*
X34340634Y-14925000D03*
%TD*%
D14*
%TO.C,D56*%
X164901701Y-69065682D03*
X164901701Y-66665682D03*
%TD*%
%TO.C,D51*%
X73223499Y-69065682D03*
X73223499Y-66665682D03*
%TD*%
%TO.C,D22*%
X131564173Y-30965650D03*
X131564173Y-28565650D03*
%TD*%
%TO.C,D8*%
X160139197Y-11915634D03*
X160139197Y-9515634D03*
%TD*%
%TO.C,D12*%
X236339261Y-11915634D03*
X236339261Y-9515634D03*
%TD*%
D25*
%TO.C,C103*%
X48537520Y-39423459D03*
X46337520Y-39423459D03*
%TD*%
D14*
%TO.C,D63*%
X312539325Y-69065682D03*
X312539325Y-66665682D03*
%TD*%
D27*
%TO.C,RGB2*%
X26375000Y-14575000D03*
X26375000Y-13075000D03*
X20875000Y-13075000D03*
X20875000Y-14575000D03*
%TD*%
D18*
%TO.C,C108*%
X28982817Y-12725000D03*
X28982817Y-14925000D03*
%TD*%
D28*
%TO.C,R104*%
X44370329Y-38232833D03*
X42170329Y-38232833D03*
%TD*%
D14*
%TO.C,D54*%
X126801669Y-69065682D03*
X126801669Y-66665682D03*
%TD*%
%TO.C,D39*%
X155376693Y-50015666D03*
X155376693Y-47615666D03*
%TD*%
D17*
%TO.C,R101*%
X277415858Y-11815634D03*
X277415858Y-9615634D03*
%TD*%
D14*
%TO.C,D43*%
X231576757Y-50015666D03*
X231576757Y-47615666D03*
%TD*%
D25*
%TO.C,C104*%
X48537520Y-32875016D03*
X46337520Y-32875016D03*
%TD*%
D14*
%TO.C,D13*%
X239911139Y-11915634D03*
X239911139Y-9515634D03*
%TD*%
%TO.C,D10*%
X198239229Y-11915634D03*
X198239229Y-9515634D03*
%TD*%
D18*
%TO.C,C107*%
X28982817Y-6325000D03*
X28982817Y-8525000D03*
%TD*%
D14*
%TO.C,D19*%
X74414125Y-30965650D03*
X74414125Y-28565650D03*
%TD*%
%TO.C,D28*%
X245864269Y-30965650D03*
X245864269Y-28565650D03*
%TD*%
%TO.C,D29*%
X264914285Y-30965650D03*
X264914285Y-28565650D03*
%TD*%
%TO.C,D59*%
X222051749Y-69065682D03*
X222051749Y-66665682D03*
%TD*%
%TO.C,D44*%
X250626773Y-50015666D03*
X250626773Y-47615666D03*
%TD*%
%TO.C,D61*%
X260151781Y-69065682D03*
X260151781Y-66665682D03*
%TD*%
%TO.C,D18*%
X50601605Y-30965650D03*
X50601605Y-28565650D03*
%TD*%
%TO.C,D58*%
X203001733Y-69065682D03*
X203001733Y-66665682D03*
%TD*%
%TO.C,D57*%
X183951717Y-69065682D03*
X183951717Y-66665682D03*
%TD*%
%TO.C,D34*%
X52982857Y-50015666D03*
X52982857Y-47615666D03*
%TD*%
%TO.C,D37*%
X117276661Y-50015666D03*
X117276661Y-47615666D03*
%TD*%
%TO.C,D36*%
X98226645Y-50015666D03*
X98226645Y-47615666D03*
%TD*%
%TO.C,D38*%
X136326677Y-50015666D03*
X136326677Y-47615666D03*
%TD*%
%TO.C,D3*%
X64889117Y-11915634D03*
X64889117Y-9515634D03*
%TD*%
D27*
%TO.C,RGB1*%
X26375000Y-8175000D03*
X26375000Y-6675000D03*
X20875000Y-6675000D03*
X20875000Y-8175000D03*
%TD*%
D14*
%TO.C,D60*%
X241101765Y-69065682D03*
X241101765Y-66665682D03*
%TD*%
%TO.C,D21*%
X112514157Y-30965650D03*
X112514157Y-28565650D03*
%TD*%
%TO.C,D2*%
X45839101Y-11915634D03*
X45839101Y-9515634D03*
%TD*%
%TO.C,D64*%
X316111203Y-69065682D03*
X316111203Y-66665682D03*
%TD*%
D28*
%TO.C,R103*%
X9428114Y-40018772D03*
X11628114Y-40018772D03*
%TD*%
D14*
%TO.C,D45*%
X269676789Y-50015666D03*
X269676789Y-47615666D03*
%TD*%
D29*
%TO.C,SW1*%
X25712520Y-54132849D03*
X25712520Y-60432849D03*
X21912520Y-60432849D03*
X21912520Y-54132849D03*
%TD*%
D14*
%TO.C,D46*%
X273248667Y-50015666D03*
X273248667Y-47615666D03*
%TD*%
%TO.C,D55*%
X145851685Y-69065682D03*
X145851685Y-66665682D03*
%TD*%
%TO.C,D1*%
X17264077Y-11915634D03*
X17264077Y-9515634D03*
%TD*%
%TO.C,D77*%
X274439293Y-88115698D03*
X274439293Y-85715698D03*
%TD*%
%TO.C,D17*%
X17264077Y-30965650D03*
X17264077Y-28565650D03*
%TD*%
D30*
%TO.C,X1*%
X31968756Y-25135947D03*
X29568756Y-25135947D03*
X30768756Y-25135947D03*
%TD*%
D14*
%TO.C,D27*%
X226814253Y-30965650D03*
X226814253Y-28565650D03*
%TD*%
M02*
