%TF.GenerationSoftware,KiCad,Pcbnew,(5.99.0-12740-g895f4ca989)*%
%TF.CreationDate,2021-10-23T17:36:28+02:00*%
%TF.ProjectId,mamooth,6d616d6f-6f74-4682-9e6b-696361645f70,rev?*%
%TF.SameCoordinates,Original*%
%TF.FileFunction,Paste,Bot*%
%TF.FilePolarity,Positive*%
%FSLAX46Y46*%
G04 Gerber Fmt 4.6, Leading zero omitted, Abs format (unit mm)*
G04 Created by KiCad (PCBNEW (5.99.0-12740-g895f4ca989)) date 2021-10-23 17:36:28*
%MOMM*%
%LPD*%
G01*
G04 APERTURE LIST*
G04 Aperture macros list*
%AMRoundRect*
0 Rectangle with rounded corners*
0 $1 Rounding radius*
0 $2 $3 $4 $5 $6 $7 $8 $9 X,Y pos of 4 corners*
0 Add a 4 corners polygon primitive as box body*
4,1,4,$2,$3,$4,$5,$6,$7,$8,$9,$2,$3,0*
0 Add four circle primitives for the rounded corners*
1,1,$1+$1,$2,$3*
1,1,$1+$1,$4,$5*
1,1,$1+$1,$6,$7*
1,1,$1+$1,$8,$9*
0 Add four rect primitives between the rounded corners*
20,1,$1+$1,$2,$3,$4,$5,0*
20,1,$1+$1,$4,$5,$6,$7,0*
20,1,$1+$1,$6,$7,$8,$9,0*
20,1,$1+$1,$8,$9,$2,$3,0*%
G04 Aperture macros list end*
%ADD10R,1.400000X1.400000*%
%ADD11RoundRect,0.150000X0.775000X-0.150000X0.775000X0.150000X-0.775000X0.150000X-0.775000X-0.150000X0*%
%ADD12RoundRect,0.332800X0.567200X-0.467200X0.567200X0.467200X-0.567200X0.467200X-0.567200X-0.467200X0*%
%ADD13R,1.300000X1.200000*%
%ADD14R,1.250000X1.200000*%
%ADD15R,1.500000X0.550000*%
%ADD16R,0.550000X1.500000*%
%ADD17R,0.500000X1.500000*%
%ADD18R,1.200000X1.250000*%
%ADD19R,0.600000X1.200000*%
%ADD20R,1.800000X0.820000*%
%ADD21R,1.200000X1.300000*%
%ADD22R,1.000000X1.700000*%
%ADD23R,0.400000X2.000000*%
G04 APERTURE END LIST*
D10*
%TO.C,D7*%
X141089181Y-11915634D03*
X141089181Y-9515634D03*
%TD*%
%TO.C,D53*%
X107751653Y-69065682D03*
X107751653Y-66665682D03*
%TD*%
D11*
%TO.C,J3*%
X273612416Y-19954663D03*
X273612416Y-18954663D03*
X273612416Y-17954663D03*
X273612416Y-16954663D03*
D12*
X269587416Y-21454663D03*
X269587416Y-15454663D03*
%TD*%
D10*
%TO.C,D6*%
X122039165Y-11915634D03*
X122039165Y-9515634D03*
%TD*%
%TO.C,D20*%
X93464141Y-30965650D03*
X93464141Y-28565650D03*
%TD*%
%TO.C,D16*%
X316111203Y-11915634D03*
X316111203Y-9515634D03*
%TD*%
%TO.C,D26*%
X207764237Y-30965650D03*
X207764237Y-28565650D03*
%TD*%
%TO.C,D42*%
X212526741Y-50015666D03*
X212526741Y-47615666D03*
%TD*%
%TO.C,D78*%
X293489309Y-88115698D03*
X293489309Y-85715698D03*
%TD*%
D13*
%TO.C,R102*%
X275034606Y-11815634D03*
X275034606Y-9615634D03*
%TD*%
D10*
%TO.C,D75*%
X220861123Y-88115698D03*
X220861123Y-85715698D03*
%TD*%
%TO.C,D15*%
X312539325Y-11915634D03*
X312539325Y-9515634D03*
%TD*%
%TO.C,D31*%
X255389277Y-11915634D03*
X255389277Y-9515634D03*
%TD*%
%TO.C,D76*%
X278011171Y-88115698D03*
X278011171Y-85715698D03*
%TD*%
%TO.C,D72*%
X167282953Y-88115698D03*
X167282953Y-85715698D03*
%TD*%
%TO.C,D66*%
X50601605Y-88115698D03*
X50601605Y-85715698D03*
%TD*%
%TO.C,D68*%
X95845393Y-88115698D03*
X95845393Y-85715698D03*
%TD*%
%TO.C,D41*%
X193476725Y-50015666D03*
X193476725Y-47615666D03*
%TD*%
%TO.C,D65*%
X17264077Y-88115698D03*
X17264077Y-85715698D03*
%TD*%
D13*
%TO.C,F1*%
X273248667Y-6457817D03*
X273248667Y-4257817D03*
%TD*%
D10*
%TO.C,D11*%
X217289245Y-11915634D03*
X217289245Y-9515634D03*
%TD*%
%TO.C,D49*%
X17264077Y-69065682D03*
X17264077Y-66665682D03*
%TD*%
%TO.C,D9*%
X179189213Y-11915634D03*
X179189213Y-9515634D03*
%TD*%
D14*
%TO.C,C101*%
X21243748Y-42309398D03*
X21243748Y-40109398D03*
%TD*%
D10*
%TO.C,D5*%
X102989149Y-11915634D03*
X102989149Y-9515634D03*
%TD*%
%TO.C,D47*%
X300633065Y-50015666D03*
X300633065Y-47615666D03*
%TD*%
D15*
%TO.C,U1*%
X25068756Y-40446894D03*
X25068756Y-39646894D03*
X25068756Y-38846894D03*
X25068756Y-38046894D03*
X25068756Y-37246894D03*
X25068756Y-36446894D03*
X25068756Y-35646894D03*
X25068756Y-34846894D03*
X25068756Y-34046894D03*
X25068756Y-33246894D03*
X25068756Y-32446894D03*
D16*
X26768756Y-30746894D03*
X27568756Y-30746894D03*
X28368756Y-30746894D03*
X29168756Y-30746894D03*
X29968756Y-30746894D03*
X30768756Y-30746894D03*
X31568756Y-30746894D03*
X32368756Y-30746894D03*
X33168756Y-30746894D03*
X33968756Y-30746894D03*
X34768756Y-30746894D03*
D15*
X36468756Y-32446894D03*
X36468756Y-33246894D03*
X36468756Y-34046894D03*
X36468756Y-34846894D03*
X36468756Y-35646894D03*
X36468756Y-36446894D03*
X36468756Y-37246894D03*
X36468756Y-38046894D03*
X36468756Y-38846894D03*
X36468756Y-39646894D03*
X36468756Y-40446894D03*
D16*
X34768756Y-42146894D03*
X33968756Y-42146894D03*
X33168756Y-42146894D03*
X32368756Y-42146894D03*
X31568756Y-42146894D03*
X30768756Y-42146894D03*
X29968756Y-42146894D03*
X29168756Y-42146894D03*
X28368756Y-42146894D03*
X27568756Y-42146894D03*
X26768756Y-42146894D03*
%TD*%
D10*
%TO.C,D67*%
X79176629Y-88115698D03*
X79176629Y-85715698D03*
%TD*%
%TO.C,D50*%
X69651621Y-69065682D03*
X69651621Y-66665682D03*
%TD*%
%TO.C,D48*%
X316111203Y-50015666D03*
X316111203Y-47615666D03*
%TD*%
%TO.C,D14*%
X258961155Y-11915634D03*
X258961155Y-9515634D03*
%TD*%
D17*
%TO.C,J1*%
X274625000Y7025000D03*
X275425000Y7025000D03*
X276225000Y7025000D03*
X277025000Y7025000D03*
X277825000Y7025000D03*
%TD*%
D10*
%TO.C,D4*%
X83939133Y-11915634D03*
X83939133Y-9515634D03*
%TD*%
%TO.C,D62*%
X286345553Y-69065682D03*
X286345553Y-66665682D03*
%TD*%
%TO.C,D79*%
X312539325Y-88115698D03*
X312539325Y-85715698D03*
%TD*%
%TO.C,D24*%
X169664205Y-30965650D03*
X169664205Y-28565650D03*
%TD*%
D13*
%TO.C,R105*%
X17264077Y-7053130D03*
X17264077Y-4853130D03*
%TD*%
D18*
%TO.C,C106*%
X18176557Y-40614085D03*
X15976557Y-40614085D03*
%TD*%
D10*
%TO.C,D80*%
X316111203Y-88115698D03*
X316111203Y-85715698D03*
%TD*%
%TO.C,D25*%
X188714221Y-30965650D03*
X188714221Y-28565650D03*
%TD*%
%TO.C,D33*%
X17264077Y-50015666D03*
X17264077Y-47615666D03*
%TD*%
%TO.C,D35*%
X79176629Y-50015666D03*
X79176629Y-47615666D03*
%TD*%
%TO.C,D52*%
X88701637Y-69065682D03*
X88701637Y-66665682D03*
%TD*%
%TO.C,D40*%
X174426709Y-50015666D03*
X174426709Y-47615666D03*
%TD*%
%TO.C,D32*%
X316111203Y-30965650D03*
X316111203Y-28565650D03*
%TD*%
%TO.C,D23*%
X150614189Y-30965650D03*
X150614189Y-28565650D03*
%TD*%
D14*
%TO.C,C102*%
X26601565Y-48857841D03*
X26601565Y-46657841D03*
%TD*%
D10*
%TO.C,D30*%
X283964301Y-30965650D03*
X283964301Y-28565650D03*
%TD*%
D19*
%TO.C,U2*%
X275870545Y-4207817D03*
X276820545Y-4207817D03*
X277770545Y-4207817D03*
X277770545Y-6507817D03*
X276820545Y-6507817D03*
X275870545Y-6507817D03*
%TD*%
D14*
%TO.C,C105*%
X34340634Y-12725000D03*
X34340634Y-14925000D03*
%TD*%
D10*
%TO.C,D56*%
X164901701Y-69065682D03*
X164901701Y-66665682D03*
%TD*%
%TO.C,D51*%
X73223499Y-69065682D03*
X73223499Y-66665682D03*
%TD*%
%TO.C,D22*%
X131564173Y-30965650D03*
X131564173Y-28565650D03*
%TD*%
%TO.C,D8*%
X160139197Y-11915634D03*
X160139197Y-9515634D03*
%TD*%
%TO.C,D12*%
X236339261Y-11915634D03*
X236339261Y-9515634D03*
%TD*%
D18*
%TO.C,C103*%
X48537520Y-39423459D03*
X46337520Y-39423459D03*
%TD*%
D10*
%TO.C,D63*%
X312539325Y-69065682D03*
X312539325Y-66665682D03*
%TD*%
D20*
%TO.C,RGB2*%
X26375000Y-14575000D03*
X26375000Y-13075000D03*
X20875000Y-13075000D03*
X20875000Y-14575000D03*
%TD*%
D14*
%TO.C,C108*%
X28982817Y-12725000D03*
X28982817Y-14925000D03*
%TD*%
D21*
%TO.C,R104*%
X44370329Y-38232833D03*
X42170329Y-38232833D03*
%TD*%
D10*
%TO.C,D54*%
X126801669Y-69065682D03*
X126801669Y-66665682D03*
%TD*%
%TO.C,D39*%
X155376693Y-50015666D03*
X155376693Y-47615666D03*
%TD*%
D13*
%TO.C,R101*%
X277415858Y-11815634D03*
X277415858Y-9615634D03*
%TD*%
D10*
%TO.C,D43*%
X231576757Y-50015666D03*
X231576757Y-47615666D03*
%TD*%
D18*
%TO.C,C104*%
X48537520Y-32875016D03*
X46337520Y-32875016D03*
%TD*%
D10*
%TO.C,D13*%
X239911139Y-11915634D03*
X239911139Y-9515634D03*
%TD*%
%TO.C,D10*%
X198239229Y-11915634D03*
X198239229Y-9515634D03*
%TD*%
D14*
%TO.C,C107*%
X28982817Y-6325000D03*
X28982817Y-8525000D03*
%TD*%
D10*
%TO.C,D19*%
X74414125Y-30965650D03*
X74414125Y-28565650D03*
%TD*%
%TO.C,D28*%
X245864269Y-30965650D03*
X245864269Y-28565650D03*
%TD*%
%TO.C,D29*%
X264914285Y-30965650D03*
X264914285Y-28565650D03*
%TD*%
%TO.C,D59*%
X222051749Y-69065682D03*
X222051749Y-66665682D03*
%TD*%
%TO.C,D44*%
X250626773Y-50015666D03*
X250626773Y-47615666D03*
%TD*%
%TO.C,D61*%
X260151781Y-69065682D03*
X260151781Y-66665682D03*
%TD*%
%TO.C,D18*%
X50601605Y-30965650D03*
X50601605Y-28565650D03*
%TD*%
%TO.C,D58*%
X203001733Y-69065682D03*
X203001733Y-66665682D03*
%TD*%
%TO.C,D57*%
X183951717Y-69065682D03*
X183951717Y-66665682D03*
%TD*%
%TO.C,D34*%
X52982857Y-50015666D03*
X52982857Y-47615666D03*
%TD*%
%TO.C,D37*%
X117276661Y-50015666D03*
X117276661Y-47615666D03*
%TD*%
%TO.C,D36*%
X98226645Y-50015666D03*
X98226645Y-47615666D03*
%TD*%
%TO.C,D38*%
X136326677Y-50015666D03*
X136326677Y-47615666D03*
%TD*%
%TO.C,D3*%
X64889117Y-11915634D03*
X64889117Y-9515634D03*
%TD*%
D20*
%TO.C,RGB1*%
X26375000Y-8175000D03*
X26375000Y-6675000D03*
X20875000Y-6675000D03*
X20875000Y-8175000D03*
%TD*%
D10*
%TO.C,D60*%
X241101765Y-69065682D03*
X241101765Y-66665682D03*
%TD*%
%TO.C,D21*%
X112514157Y-30965650D03*
X112514157Y-28565650D03*
%TD*%
%TO.C,D2*%
X45839101Y-11915634D03*
X45839101Y-9515634D03*
%TD*%
%TO.C,D64*%
X316111203Y-69065682D03*
X316111203Y-66665682D03*
%TD*%
D21*
%TO.C,R103*%
X9428114Y-40018772D03*
X11628114Y-40018772D03*
%TD*%
D10*
%TO.C,D45*%
X269676789Y-50015666D03*
X269676789Y-47615666D03*
%TD*%
D22*
%TO.C,SW1*%
X25712520Y-54132849D03*
X25712520Y-60432849D03*
X21912520Y-60432849D03*
X21912520Y-54132849D03*
%TD*%
D10*
%TO.C,D46*%
X273248667Y-50015666D03*
X273248667Y-47615666D03*
%TD*%
%TO.C,D55*%
X145851685Y-69065682D03*
X145851685Y-66665682D03*
%TD*%
%TO.C,D1*%
X17264077Y-11915634D03*
X17264077Y-9515634D03*
%TD*%
%TO.C,D77*%
X274439293Y-88115698D03*
X274439293Y-85715698D03*
%TD*%
%TO.C,D17*%
X17264077Y-30965650D03*
X17264077Y-28565650D03*
%TD*%
D23*
%TO.C,X1*%
X31968756Y-25135947D03*
X29568756Y-25135947D03*
X30768756Y-25135947D03*
%TD*%
D10*
%TO.C,D27*%
X226814253Y-30965650D03*
X226814253Y-28565650D03*
%TD*%
M02*
