M48
; DRILL file {KiCad (5.99.0-12740-g895f4ca989)} date Sat Oct 23 17:36:30 2021
; FORMAT={-:-/ absolute / inch / decimal}
; #@! TF.CreationDate,2021-10-23T17:36:30+02:00
; #@! TF.GenerationSoftware,Kicad,Pcbnew,(5.99.0-12740-g895f4ca989)
; #@! TF.FileFunction,NonPlated,1,2,NPTH
FMAT,2
INCH
; #@! TA.AperFunction,NonPlated,NPTH,ComponentDrill
T1C0.0670
; #@! TA.AperFunction,NonPlated,NPTH,ComponentDrill
T2C0.1200
; #@! TA.AperFunction,NonPlated,NPTH,ComponentDrill
T3C0.1570
%
G90
G05
T1
X0.175Y-0.375
X0.175Y-1.125
X0.175Y-1.875
X0.175Y-2.625
X0.175Y-3.375
X0.575Y-0.375
X0.575Y-1.125
X0.575Y-1.875
X0.575Y-2.625
X0.575Y-3.375
X1.3Y-0.375
X1.3938Y-1.875
X1.3938Y-2.625
X1.3938Y-3.375
X1.4875Y-1.125
X1.4875Y-3.375
X1.5813Y-1.875
X1.7Y-0.375
X1.7688Y-2.625
X1.7937Y-1.875
X1.7937Y-2.625
X1.7937Y-3.375
X1.8875Y-1.125
X1.8875Y-3.375
X1.9812Y-1.875
X2.05Y-0.375
X2.1687Y-2.625
X2.2375Y-2.625
X2.3312Y-3.375
X2.425Y-1.125
X2.45Y-0.375
X2.6125Y-1.875
X2.6125Y-3.375
X2.6375Y-2.625
X2.7312Y-3.375
X2.8Y-0.375
X2.825Y-1.125
X2.9875Y-2.625
X3.0125Y-1.875
X3.0125Y-3.375
X3.175Y-1.125
X3.2Y-0.375
X3.2687Y-3.375
X3.3625Y-1.875
X3.3875Y-2.625
X3.55Y-0.375
X3.575Y-1.125
X3.6687Y-3.375
X3.7375Y-2.625
X3.7625Y-1.875
X3.925Y-1.125
X3.95Y-0.375
X4.1125Y-1.875
X4.1375Y-2.625
X4.3Y-0.375
X4.325Y-1.125
X4.4875Y-2.625
X4.5125Y-1.875
X4.675Y-1.125
X4.7Y-0.375
X4.8625Y-1.875
X4.8875Y-2.625
X5.05Y-0.375
X5.075Y-1.125
X5.2375Y-2.625
X5.2625Y-1.875
X5.425Y-1.125
X5.45Y-0.375
X5.6125Y-1.875
X5.6375Y-2.625
X5.8Y-0.375
X5.8Y-3.375
X5.825Y-1.125
X5.9875Y-2.625
X6.0125Y-1.875
X6.0812Y-3.375
X6.175Y-1.125
X6.2Y-0.375
X6.2Y-3.375
X6.3625Y-1.875
X6.3875Y-2.625
X6.4813Y-3.375
X6.55Y-0.375
X6.575Y-1.125
X6.7375Y-2.625
X6.7625Y-1.875
X6.925Y-1.125
X6.95Y-0.375
X7.1125Y-1.875
X7.1375Y-2.625
X7.3Y-0.375
X7.325Y-1.125
X7.4875Y-2.625
X7.5125Y-1.875
X7.675Y-1.125
X7.7Y-0.375
X7.8625Y-1.875
X7.8875Y-2.625
X8.05Y-0.375
X8.075Y-1.125
X8.2375Y-2.625
X8.2625Y-1.875
X8.425Y-1.125
X8.45Y-0.375
X8.6125Y-1.875
X8.6375Y-2.625
X8.8Y-0.375
X8.8Y-3.375
X8.825Y-1.125
X8.8937Y-3.375
X8.9875Y-2.625
X8.9875Y-3.375
X9.0125Y-1.875
X9.175Y-1.125
X9.2Y-0.375
X9.2Y-3.375
X9.2937Y-3.375
X9.3625Y-1.875
X9.3875Y-2.625
X9.3875Y-3.375
X9.55Y-0.375
X9.55Y-3.375
X9.575Y-1.125
X9.7375Y-2.625
X9.7625Y-1.875
X9.8312Y-3.375
X9.925Y-1.125
X9.95Y-0.375
X9.95Y-3.375
X10.1125Y-1.875
X10.1125Y-3.375
X10.1375Y-2.625
X10.2312Y-3.375
X10.3Y-0.375
X10.3Y-3.375
X10.325Y-1.125
X10.5125Y-1.875
X10.5125Y-3.375
X10.675Y-1.125
X10.7Y-0.375
X10.7Y-3.375
X10.7687Y-2.625
X10.8625Y-1.875
X11.05Y-0.375
X11.05Y-3.375
X11.075Y-1.125
X11.1687Y-2.625
X11.2625Y-1.875
X11.3312Y-1.875
X11.425Y-0.375
X11.45Y-0.375
X11.45Y-3.375
X11.6125Y-1.125
X11.7062Y-1.5
X11.7312Y-1.875
X11.8Y-0.375
X11.8Y-2.625
X11.8Y-3.375
X11.825Y-0.375
X12.0125Y-1.125
X12.1062Y-1.5
X12.2Y-0.375
X12.2Y-2.625
X12.2Y-3.375
X12.55Y-0.375
X12.55Y-1.125
X12.55Y-1.875
X12.55Y-2.625
X12.55Y-3.375
X12.95Y-0.375
X12.95Y-1.125
X12.95Y-1.875
X12.95Y-2.625
X12.95Y-3.375
T2
X1.4988Y-2.35
X2.4387Y-2.35
X3.7488Y-3.65
X4.3113Y-3.65
X8.2513Y-3.65
X8.2513Y-3.65
X11.0612Y-1.6
X11.155Y-0.1
X12.0012Y-1.6
X12.095Y-0.1
X12.1813Y-1.03
X12.1813Y-1.97
T3
X0.375Y-0.375
X0.375Y-1.125
X0.375Y-1.875
X0.375Y-2.625
X0.375Y-3.375
X1.4988Y-2.95
X1.5Y-0.375
X1.5938Y-1.875
X1.5938Y-2.625
X1.5938Y-3.375
X1.6875Y-1.125
X1.6875Y-3.375
X1.7812Y-1.875
X1.9688Y-2.625
X2.25Y-0.375
X2.4375Y-2.625
X2.4387Y-2.95
X2.5312Y-3.375
X2.625Y-1.125
X2.8125Y-1.875
X2.8125Y-3.375
X3.0Y-0.375
X3.1875Y-2.625
X3.375Y-1.125
X3.4688Y-3.375
X3.5625Y-1.875
X3.7488Y-3.05
X3.75Y-0.375
X3.9375Y-2.625
X4.125Y-1.125
X4.3113Y-3.05
X4.3125Y-1.875
X4.5Y-0.375
X4.6875Y-2.625
X4.875Y-1.125
X5.0625Y-1.875
X5.25Y-0.375
X5.4375Y-2.625
X5.625Y-1.125
X5.8125Y-1.875
X6.0Y-0.375
X6.0Y-3.375
X6.1875Y-2.625
X6.2812Y-3.375
X6.375Y-1.125
X6.5625Y-1.875
X6.75Y-0.375
X6.9375Y-2.625
X7.125Y-1.125
X7.3125Y-1.875
X7.5Y-0.375
X7.6875Y-2.625
X7.875Y-1.125
X8.0625Y-1.875
X8.25Y-0.375
X8.2513Y-3.05
X8.2513Y-3.05
X8.4375Y-2.625
X8.625Y-1.125
X8.8125Y-1.875
X9.0Y-0.375
X9.0Y-3.375
X9.0938Y-3.375
X9.1875Y-2.625
X9.1875Y-3.375
X9.375Y-1.125
X9.5625Y-1.875
X9.75Y-0.375
X9.75Y-3.375
X9.9375Y-2.625
X10.0312Y-3.375
X10.125Y-1.125
X10.3125Y-1.875
X10.3125Y-3.375
X10.5Y-0.375
X10.5Y-3.375
X10.875Y-1.125
X10.9688Y-2.625
X11.0612Y-2.2
X11.0625Y-1.875
X11.155Y-0.7
X11.25Y-0.375
X11.25Y-3.375
X11.5312Y-1.875
X11.5812Y-1.03
X11.5812Y-1.97
X11.625Y-0.375
X11.8125Y-1.125
X11.9062Y-1.5
X12.0Y-0.375
X12.0Y-2.625
X12.0Y-3.375
X12.0012Y-2.2
X12.095Y-0.7
X12.75Y-0.375
X12.75Y-1.125
X12.75Y-1.875
X12.75Y-2.625
X12.75Y-3.375
T0
M30
